<?xml version="1.0" encoding="UTF-8" standalone="no"?>
<!DOCTYPE svg PUBLIC "-//W3C//DTD SVG 1.1//EN" "http://www.w3.org/Graphics/SVG/1.1/DTD/svg11.dtd">
<svg width="100%" height="100%" viewBox="0 0 1880 2520" version="1.1" xmlns="http://www.w3.org/2000/svg" xmlns:xlink="http://www.w3.org/1999/xlink" xml:space="preserve" xmlns:serif="http://www.serif.com/" style="fill-rule:evenodd;clip-rule:evenodd;stroke-linecap:round;stroke-linejoin:round;stroke-miterlimit:1.5;">
    <rect id="month" x="0" y="0" width="1880" height="2520" style="fill:none;"/>
    <g id="Layer1">
        <path d="M1865,20L1865,2500C1865,2505.519 1860.519,2510 1855,2510L125,2510C119.481,2510 115,2505.519 115,2500L115,20C115,14.481 119.481,10 125,10L1855,10C1860.519,10 1865,14.481 1865,20Z" style="fill:none;stroke:#000;stroke-width:3px;"/>
        <path d="M115,210L1865,210" style="fill:none;stroke:#000;stroke-width:3px;"/>
        <path d="M115,260L1865,260" style="fill:none;stroke:#000;stroke-width:2px;"/>
        <path d="M115,310L1865,310" style="fill:none;stroke:#000;stroke-width:2px;"/>
        <path d="M115,360L1865,360" style="fill:none;stroke:#000;stroke-width:2px;"/>
        <path d="M115,410L1865,410" style="fill:none;stroke:#000;stroke-width:2px;"/>
        <path d="M115,460L1865,460" style="fill:none;stroke:#000;stroke-width:2px;"/>
        <path d="M115,510L1865,510" style="fill:none;stroke:#000;stroke-width:2px;"/>
        <path d="M115,560L1865,560" style="fill:none;stroke:#000;stroke-width:2px;"/>
        <path d="M115,610L1865,610" style="fill:none;stroke:#000;stroke-width:2px;"/>
        <path d="M115,660L1865,660" style="fill:none;stroke:#000;stroke-width:2px;"/>
        <path d="M115,710L1865,710" style="fill:none;stroke:#000;stroke-width:2px;"/>
        <path d="M115,760L1865,760" style="fill:none;stroke:#000;stroke-width:2px;"/>
        <path d="M115,810L1865,810" style="fill:none;stroke:#000;stroke-width:2px;"/>
        <path d="M115,860L1865,860" style="fill:none;stroke:#000;stroke-width:2px;"/>
        <path d="M115,910L1865,910" style="fill:none;stroke:#000;stroke-width:2px;"/>
        <path d="M115,960L1865,960" style="fill:none;stroke:#000;stroke-width:2px;"/>
        <path d="M115,1010L1865,1010" style="fill:none;stroke:#000;stroke-width:2px;"/>
        <path d="M115,1060L1865,1060" style="fill:none;stroke:#000;stroke-width:2px;"/>
        <path d="M115,1110L1865,1110" style="fill:none;stroke:#000;stroke-width:2px;"/>
        <path d="M115,1160L1865,1160" style="fill:none;stroke:#000;stroke-width:2px;"/>
        <path d="M115,1210L1865,1210" style="fill:none;stroke:#000;stroke-width:2px;"/>
        <path d="M115,1260L1865,1260" style="fill:none;stroke:#000;stroke-width:2px;"/>
        <path d="M115,1310L1865,1310" style="fill:none;stroke:#000;stroke-width:2px;"/>
        <path d="M115,1360L1865,1360" style="fill:none;stroke:#000;stroke-width:2px;"/>
        <path d="M115,1410L1865,1410" style="fill:none;stroke:#000;stroke-width:2px;"/>
        <path d="M115,1460L1865,1460" style="fill:none;stroke:#000;stroke-width:2px;"/>
        <path d="M115,1510L1865,1510" style="fill:none;stroke:#000;stroke-width:2px;"/>
        <path d="M115,1560L1865,1560" style="fill:none;stroke:#000;stroke-width:2px;"/>
        <path d="M115,1610L1865,1610" style="fill:none;stroke:#000;stroke-width:2px;"/>
        <path d="M115,1660L1865,1660" style="fill:none;stroke:#000;stroke-width:2px;"/>
        <path d="M115,1710L1865,1710" style="fill:none;stroke:#000;stroke-width:2px;"/>
        <path d="M115,1759L1865,1759" style="fill:none;stroke:#000;stroke-width:2px;"/>
        <path d="M1515,10L1465,210L1465,2510" style="fill:none;stroke:#000;stroke-width:2px;"/>
        <path d="M1465,10L1415,210L1415,2510" style="fill:none;stroke:#000;stroke-width:3px;"/>
        <path d="M1565,10L1515,210L1515,2510" style="fill:none;stroke:#000;stroke-width:2px;"/>
        <path d="M1615,10L1565,210L1565,2510" style="fill:none;stroke:#000;stroke-width:2px;"/>
        <path d="M1665,10L1615,210L1615,2510" style="fill:none;stroke:#000;stroke-width:2px;"/>
        <path d="M1715,10L1665,210L1665,2510" style="fill:none;stroke:#000;stroke-width:2px;"/>
        <path d="M1765,10L1715,210L1715,2510" style="fill:none;stroke:#000;stroke-width:2px;"/>
        <path d="M1815,10L1765,210L1765,2510" style="fill:none;stroke:#000;stroke-width:3px;"/>
        <path d="M232.05,195.419L229.413,195.419L229.413,184.078C229.413,183.712 229.417,183.348 229.423,182.986C229.429,182.624 229.439,182.261 229.453,181.896C229.467,181.532 229.483,181.171 229.499,180.813C229.389,180.968 229.251,181.143 229.084,181.338C228.917,181.533 228.714,181.755 228.474,182.003L226.905,183.572L225.355,181.985L229.731,177.572L232.05,177.572L232.05,195.419Z" style="fill:#3f3f3f;fill-rule:nonzero;"/>
        <path d="M245.106,195.419L235.944,195.419L235.944,193.49L239.423,188.503C240.135,187.486 240.688,186.625 241.08,185.919C241.473,185.213 241.747,184.565 241.901,183.975C242.056,183.385 242.133,182.76 242.133,182.101C242.133,181.352 241.954,180.759 241.596,180.322C241.238,179.884 240.717,179.666 240.034,179.666C239.541,179.666 239.084,179.773 238.663,179.989C238.242,180.205 237.792,180.577 237.311,181.106L235.993,179.324C236.445,178.84 236.891,178.45 237.333,178.155C237.774,177.86 238.238,177.646 238.724,177.514C239.211,177.382 239.739,177.316 240.308,177.316C241.22,177.316 242.012,177.51 242.686,177.899C243.359,178.287 243.879,178.829 244.245,179.525C244.611,180.221 244.794,181.033 244.794,181.96C244.794,182.831 244.693,183.644 244.489,184.399C244.286,185.154 243.961,185.921 243.516,186.7C243.07,187.479 242.483,188.345 241.755,189.297L239.081,192.965L239.081,193.069L245.106,193.069L245.106,195.419Z" style="fill:#3f3f3f;fill-rule:nonzero;"/>
        <path d="M252.027,181.631C253.309,181.631 254.256,182.033 254.868,182.836C255.481,183.64 255.787,184.821 255.787,186.379L255.787,195.419L253.882,195.419L253.48,193.551L253.419,193.551C253.174,194.011 252.901,194.398 252.598,194.714C252.295,195.029 251.95,195.266 251.563,195.425C251.177,195.583 250.727,195.663 250.214,195.663C249.49,195.663 248.901,195.47 248.447,195.083C247.994,194.696 247.661,194.191 247.449,193.566C247.238,192.942 247.132,192.273 247.132,191.561C247.132,190.186 247.521,189.132 248.298,188.4C249.075,187.667 250.18,187.271 251.612,187.209L253.223,187.124L253.223,186.392C253.223,185.48 253.092,184.808 252.83,184.374C252.567,183.941 252.141,183.724 251.551,183.724C251.168,183.724 250.758,183.796 250.321,183.938C249.884,184.08 249.407,184.304 248.89,184.609L248.139,182.687C248.701,182.337 249.31,182.073 249.967,181.896C250.624,181.719 251.311,181.631 252.027,181.631ZM253.235,188.9L252.155,188.967C251.337,189.012 250.729,189.242 250.33,189.657C249.931,190.072 249.732,190.674 249.732,191.464C249.732,192.188 249.859,192.725 250.114,193.075C250.368,193.425 250.727,193.6 251.191,193.6C251.817,193.6 252.315,193.297 252.683,192.69C253.051,192.084 253.235,191.256 253.235,190.206L253.235,188.9Z" style="fill:#3f3f3f;fill-rule:nonzero;"/>
        <path d="M287.641,195.419L285.004,195.419L285.004,184.078C285.004,183.712 285.007,183.348 285.013,182.986C285.02,182.624 285.03,182.261 285.044,181.896C285.058,181.532 285.073,181.171 285.09,180.813C284.98,180.968 284.842,181.143 284.675,181.338C284.508,181.533 284.304,181.755 284.064,182.003L282.496,183.572L280.945,181.985L285.322,177.572L287.641,177.572L287.641,195.419Z" style="fill:#3f3f3f;fill-rule:nonzero;"/>
        <path d="M296.436,181.631C297.718,181.631 298.665,182.033 299.277,182.836C299.89,183.64 300.196,184.821 300.196,186.379L300.196,195.419L298.292,195.419L297.889,193.551L297.828,193.551C297.584,194.011 297.31,194.398 297.007,194.714C296.704,195.029 296.359,195.266 295.972,195.425C295.586,195.583 295.136,195.663 294.623,195.663C293.899,195.663 293.31,195.47 292.856,195.083C292.403,194.696 292.07,194.191 291.859,193.566C291.647,192.942 291.541,192.273 291.541,191.561C291.541,190.186 291.93,189.132 292.707,188.4C293.484,187.667 294.589,187.271 296.021,187.209L297.632,187.124L297.632,186.392C297.632,185.48 297.501,184.808 297.239,184.374C296.976,183.941 296.55,183.724 295.96,183.724C295.578,183.724 295.168,183.796 294.73,183.938C294.293,184.08 293.816,184.304 293.299,184.609L292.548,182.687C293.11,182.337 293.719,182.073 294.376,181.896C295.033,181.719 295.72,181.631 296.436,181.631ZM297.645,188.9L296.564,188.967C295.746,189.012 295.138,189.242 294.739,189.657C294.341,190.072 294.141,190.674 294.141,191.464C294.141,192.188 294.268,192.725 294.523,193.075C294.777,193.425 295.136,193.6 295.6,193.6C296.227,193.6 296.724,193.297 297.092,192.69C297.461,192.084 297.645,191.256 297.645,190.206L297.645,188.9Z" style="fill:#3f3f3f;fill-rule:nonzero;"/>
        <path d="M344.98,195.236L335.819,195.236L335.819,193.307L339.298,188.32C340.01,187.303 340.563,186.441 340.955,185.735C341.348,185.03 341.622,184.382 341.776,183.792C341.931,183.201 342.008,182.577 342.008,181.918C342.008,181.169 341.829,180.576 341.471,180.139C341.113,179.701 340.592,179.482 339.908,179.482C339.416,179.482 338.959,179.59 338.538,179.806C338.117,180.022 337.666,180.394 337.186,180.923L335.868,179.141C336.32,178.656 336.766,178.267 337.208,177.972C337.649,177.677 338.113,177.463 338.599,177.331C339.085,177.199 339.613,177.133 340.183,177.133C341.095,177.133 341.887,177.327 342.56,177.715C343.234,178.104 343.754,178.646 344.12,179.342C344.486,180.038 344.669,180.85 344.669,181.777C344.669,182.648 344.567,183.461 344.364,184.216C344.161,184.97 343.836,185.738 343.391,186.517C342.945,187.296 342.358,188.162 341.63,189.114L338.956,192.782L338.956,192.886L344.98,192.886L344.98,195.236Z" style="fill:#3f3f3f;fill-rule:nonzero;"/>
        <path d="M394.736,181.57C394.736,182.249 394.622,182.87 394.395,183.431C394.167,183.993 393.831,184.479 393.387,184.89C392.944,185.301 392.399,185.625 391.752,185.861L391.752,185.946C392.83,186.178 393.65,186.665 394.211,187.408C394.773,188.15 395.054,189.112 395.054,190.292C395.054,191.333 394.846,192.244 394.431,193.023C394.016,193.802 393.417,194.407 392.634,194.836C391.85,195.265 390.905,195.48 389.799,195.48C389.054,195.48 388.377,195.422 387.769,195.306C387.161,195.19 386.547,194.987 385.929,194.698L385.929,192.159C386.495,192.493 387.078,192.748 387.681,192.925C388.283,193.102 388.875,193.191 389.457,193.191C390.425,193.191 391.139,192.917 391.599,192.37C392.059,191.823 392.289,191.089 392.289,190.17C392.289,189.498 392.162,188.941 391.907,188.497C391.653,188.054 391.267,187.722 390.751,187.502C390.234,187.283 389.579,187.173 388.785,187.173L387.882,187.173L387.882,184.921L388.834,184.921C389.53,184.921 390.123,184.796 390.613,184.545C391.104,184.295 391.478,183.94 391.736,183.48C391.995,183.02 392.124,182.479 392.124,181.857C392.124,181.08 391.932,180.481 391.547,180.062C391.163,179.643 390.61,179.434 389.89,179.434C389.532,179.434 389.194,179.48 388.877,179.574C388.56,179.668 388.249,179.805 387.946,179.986C387.643,180.167 387.333,180.394 387.015,180.667L385.886,178.768C386.566,178.178 387.256,177.758 387.958,177.508C388.66,177.258 389.453,177.133 390.336,177.133C391.695,177.133 392.768,177.521 393.555,178.298C394.343,179.076 394.736,180.166 394.736,181.57Z" style="fill:#3f3f3f;fill-rule:nonzero;"/>
        <path d="M445.89,191.458L444.041,191.458L444.041,195.236L441.44,195.236L441.44,191.458L435.453,191.458L435.453,189.315L441.349,177.291L444.041,177.291L444.041,189.248L445.89,189.248L445.89,191.458ZM441.428,189.248L441.428,183.584C441.428,183.429 441.431,183.227 441.437,182.977C441.443,182.726 441.451,182.465 441.459,182.192C441.467,181.92 441.475,181.667 441.483,181.436C441.491,181.204 441.499,181.025 441.508,180.898L441.416,180.898C441.298,181.273 441.169,181.631 441.028,181.973C440.888,182.314 440.745,182.642 440.598,182.955L437.675,189.248L441.428,189.248Z" style="fill:#3f3f3f;fill-rule:nonzero;"/>
        <path d="M490.781,184.054C491.668,184.054 492.434,184.281 493.079,184.734C493.724,185.188 494.223,185.819 494.575,186.627C494.927,187.434 495.103,188.371 495.103,189.437C495.103,190.666 494.9,191.733 494.495,192.639C494.09,193.544 493.489,194.244 492.692,194.738C491.894,195.233 490.899,195.48 489.707,195.48C489.003,195.48 488.365,195.414 487.794,195.281C487.222,195.149 486.708,194.951 486.252,194.686L486.252,192.159C486.745,192.465 487.276,192.713 487.845,192.904C488.415,193.095 488.975,193.191 489.524,193.191C490.175,193.191 490.713,193.029 491.138,192.706C491.564,192.382 491.882,191.945 492.094,191.393C492.305,190.842 492.411,190.221 492.411,189.529C492.411,188.479 492.173,187.679 491.697,187.13C491.221,186.581 490.529,186.306 489.622,186.306C489.255,186.306 488.885,186.343 488.511,186.416C488.136,186.489 487.76,186.591 487.382,186.721L486.436,185.928L486.967,177.389L494.169,177.389L494.169,179.751L489.182,179.751L488.877,184.286C489.227,184.2 489.562,184.14 489.881,184.106C490.2,184.071 490.5,184.054 490.781,184.054Z" style="fill:#3f3f3f;fill-rule:nonzero;"/>
        <path d="M536.051,187.649C536.051,186.388 536.12,185.217 536.259,184.136C536.397,183.056 536.616,182.086 536.915,181.225C537.214,180.364 537.607,179.629 538.096,179.019C538.584,178.408 539.175,177.942 539.869,177.621C540.563,177.299 541.375,177.139 542.307,177.139C542.681,177.139 543.044,177.159 543.394,177.2C543.743,177.24 544.071,177.303 544.376,177.389L544.376,179.684C544.091,179.602 543.79,179.539 543.473,179.495C543.156,179.45 542.822,179.427 542.472,179.427C541.65,179.427 540.955,179.662 540.388,180.132C539.82,180.602 539.384,181.31 539.078,182.256C538.773,183.203 538.598,184.394 538.553,185.83L538.651,185.83C538.83,185.403 539.054,185.037 539.323,184.731C539.591,184.426 539.906,184.19 540.269,184.023C540.631,183.857 541.034,183.773 541.477,183.773C542.311,183.773 543.008,184.018 543.568,184.509C544.127,184.999 544.55,185.67 544.837,186.523C545.124,187.375 545.267,188.355 545.267,189.462C545.267,190.634 545.097,191.673 544.758,192.581C544.418,193.488 543.916,194.199 543.253,194.714C542.59,195.228 541.772,195.486 540.8,195.486C540.043,195.486 539.369,195.313 538.779,194.967C538.189,194.621 537.691,194.115 537.284,193.447C536.877,192.78 536.57,191.96 536.362,190.988C536.155,190.015 536.051,188.902 536.051,187.649ZM540.745,193.16C541.335,193.16 541.796,192.859 542.13,192.257C542.464,191.655 542.631,190.741 542.631,189.517C542.631,188.385 542.476,187.528 542.167,186.944C541.858,186.36 541.392,186.068 540.769,186.068C540.334,186.068 539.964,186.198 539.661,186.459C539.358,186.719 539.128,187.064 538.972,187.493C538.815,187.923 538.737,188.396 538.737,188.912C538.737,189.392 538.773,189.881 538.846,190.377C538.92,190.874 539.036,191.332 539.194,191.754C539.353,192.175 539.561,192.514 539.817,192.773C540.073,193.031 540.382,193.16 540.745,193.16Z" style="fill:#3f3f3f;fill-rule:nonzero;"/>
        <path d="M587.29,195.236L592.6,179.757L585.862,179.757L585.862,177.389L595.292,177.389L595.292,179.269L590.079,195.236L587.29,195.236Z" style="fill:#3f3f3f;fill-rule:nonzero;"/>
        <path d="M640.641,177.133C641.556,177.133 642.337,177.303 642.982,177.645C643.627,177.987 644.12,178.471 644.462,179.098C644.803,179.725 644.974,180.473 644.974,181.344C644.974,181.999 644.877,182.601 644.681,183.151C644.486,183.7 644.19,184.2 643.793,184.652C643.397,185.104 642.893,185.513 642.283,185.879C642.942,186.326 643.502,186.786 643.964,187.258C644.426,187.73 644.779,188.243 645.023,188.796C645.267,189.35 645.389,189.97 645.389,190.658C645.389,191.63 645.198,192.478 644.816,193.2C644.433,193.922 643.889,194.483 643.183,194.882C642.477,195.28 641.642,195.48 640.677,195.48C639.652,195.48 638.778,195.288 638.056,194.906C637.334,194.524 636.784,193.978 636.408,193.27C636.032,192.562 635.844,191.724 635.844,190.756C635.844,190.068 635.947,189.435 636.155,188.857C636.362,188.28 636.68,187.748 637.107,187.261C637.534,186.775 638.073,186.324 638.724,185.909C638.175,185.482 637.719,185.031 637.357,184.554C636.995,184.078 636.725,183.575 636.548,183.044C636.371,182.513 636.283,181.95 636.283,181.356C636.283,180.49 636.461,179.741 636.817,179.11C637.173,178.479 637.678,177.992 638.331,177.648C638.984,177.304 639.754,177.133 640.641,177.133ZM638.413,190.737C638.413,191.498 638.602,192.119 638.981,192.599C639.359,193.079 639.9,193.319 640.604,193.319C641.345,193.319 641.901,193.077 642.274,192.593C642.646,192.109 642.832,191.47 642.832,190.676C642.832,190.298 642.769,189.93 642.643,189.572C642.517,189.213 642.312,188.861 642.029,188.516C641.747,188.17 641.369,187.824 640.897,187.478L640.476,187.167C639.984,187.504 639.586,187.85 639.283,188.204C638.98,188.558 638.759,188.941 638.621,189.352C638.482,189.763 638.413,190.225 638.413,190.737ZM640.623,179.299C640.077,179.299 639.64,179.5 639.31,179.901C638.981,180.301 638.816,180.85 638.816,181.545C638.816,181.977 638.883,182.368 639.017,182.72C639.152,183.072 639.351,183.4 639.615,183.703C639.88,184.006 640.21,184.3 640.604,184.585C641.048,184.284 641.405,183.979 641.675,183.669C641.946,183.36 642.143,183.033 642.267,182.687C642.392,182.341 642.454,181.96 642.454,181.545C642.454,180.85 642.29,180.301 641.962,179.901C641.635,179.5 641.188,179.299 640.623,179.299Z" style="fill:#3f3f3f;fill-rule:nonzero;"/>
        <path d="M695.127,184.854C695.127,186.143 695.053,187.337 694.904,188.433C694.756,189.53 694.525,190.512 694.211,191.381C693.898,192.25 693.494,192.988 693,193.597C692.505,194.205 691.913,194.671 691.224,194.995C690.534,195.318 689.74,195.48 688.84,195.48C688.494,195.48 688.128,195.455 687.742,195.406C687.355,195.358 687.017,195.299 686.729,195.229L686.729,192.91C687.009,193.004 687.313,193.076 687.641,193.127C687.969,193.178 688.315,193.203 688.682,193.203C689.597,193.203 690.338,192.922 690.903,192.361C691.469,191.799 691.89,191.035 692.167,190.069C692.443,189.103 692.6,188.013 692.637,186.801L692.527,186.801C692.348,187.22 692.123,187.583 691.852,187.89C691.582,188.197 691.267,188.434 690.909,188.601C690.551,188.768 690.151,188.851 689.707,188.851C688.865,188.851 688.162,188.607 687.598,188.119C687.035,187.631 686.614,186.957 686.335,186.099C686.056,185.24 685.917,184.264 685.917,183.169C685.917,181.993 686.088,180.951 686.429,180.044C686.771,179.137 687.279,178.424 687.952,177.908C688.626,177.391 689.463,177.133 690.464,177.133C691.208,177.133 691.871,177.303 692.451,177.645C693.03,177.987 693.519,178.489 693.915,179.15C694.312,179.811 694.613,180.619 694.819,181.573C695.024,182.527 695.127,183.621 695.127,184.854ZM690.47,179.47C689.864,179.47 689.392,179.77 689.054,180.37C688.716,180.971 688.547,181.883 688.547,183.108C688.547,184.235 688.704,185.093 689.017,185.681C689.331,186.269 689.801,186.562 690.427,186.562C690.895,186.562 691.278,186.415 691.575,186.12C691.872,185.825 692.091,185.451 692.234,184.997C692.376,184.543 692.448,184.076 692.448,183.596C692.448,183.238 692.421,182.825 692.368,182.357C692.315,181.889 692.22,181.436 692.081,180.996C691.943,180.557 691.745,180.192 691.486,179.904C691.228,179.615 690.889,179.47 690.47,179.47Z" style="fill:#3f3f3f;fill-rule:nonzero;"/>
        <path d="M737.516,195.236L734.879,195.236L734.879,183.895C734.879,183.529 734.882,183.165 734.888,182.803C734.894,182.441 734.905,182.077 734.919,181.713C734.933,181.349 734.948,180.988 734.965,180.63C734.855,180.785 734.716,180.959 734.55,181.155C734.383,181.35 734.179,181.572 733.939,181.82L732.371,183.389L730.82,181.802L735.197,177.389L737.516,177.389L737.516,195.236Z" style="fill:#3f3f3f;fill-rule:nonzero;"/>
        <path d="M750.797,186.312C750.797,187.704 750.718,188.962 750.559,190.087C750.4,191.212 750.142,192.177 749.784,192.98C749.426,193.784 748.953,194.4 748.365,194.83C747.777,195.259 747.056,195.474 746.201,195.474C745.212,195.474 744.377,195.178 743.696,194.586C743.014,193.994 742.495,193.028 742.139,191.689C741.783,190.351 741.605,188.558 741.605,186.312C741.605,184.249 741.773,182.539 742.109,181.182C742.444,179.825 742.952,178.811 743.632,178.14C744.311,177.468 745.168,177.133 746.201,177.133C747.239,177.133 748.096,177.475 748.774,178.161C749.451,178.847 749.958,179.869 750.294,181.228C750.629,182.587 750.797,184.282 750.797,186.312ZM744.272,186.312C744.272,187.838 744.335,189.104 744.459,190.109C744.583,191.114 744.786,191.865 745.069,192.364C745.352,192.862 745.729,193.112 746.201,193.112C746.677,193.112 747.057,192.861 747.339,192.361C747.622,191.86 747.826,191.107 747.95,190.099C748.074,189.092 748.136,187.83 748.136,186.312C748.136,184.815 748.073,183.562 747.947,182.552C747.821,181.543 747.617,180.783 747.336,180.273C747.056,179.762 746.677,179.507 746.201,179.507C745.733,179.507 745.357,179.759 745.072,180.264C744.787,180.768 744.583,181.524 744.459,182.531C744.335,183.538 744.272,184.799 744.272,186.312Z" style="fill:#3f3f3f;fill-rule:nonzero;"/>
        <path d="M787.516,195.236L784.879,195.236L784.879,183.895C784.879,183.529 784.882,183.165 784.888,182.803C784.894,182.441 784.905,182.077 784.919,181.713C784.933,181.349 784.948,180.988 784.965,180.63C784.855,180.785 784.716,180.959 784.55,181.155C784.383,181.35 784.179,181.572 783.939,181.82L782.371,183.389L780.82,181.802L785.197,177.389L787.516,177.389L787.516,195.236Z" style="fill:#3f3f3f;fill-rule:nonzero;"/>
        <path d="M798.698,195.236L796.061,195.236L796.061,183.895C796.061,183.529 796.064,183.165 796.07,182.803C796.076,182.441 796.086,182.077 796.1,181.713C796.115,181.349 796.13,180.988 796.146,180.63C796.036,180.785 795.898,180.959 795.731,181.155C795.564,181.35 795.361,181.572 795.121,181.82L793.552,183.389L792.002,181.802L796.378,177.389L798.698,177.389L798.698,195.236Z" style="fill:#3f3f3f;fill-rule:nonzero;"/>
        <path d="M831.531,195.236L828.895,195.236L828.895,183.895C828.895,183.529 828.898,183.165 828.904,182.803C828.91,182.441 828.92,182.077 828.934,181.713C828.949,181.349 828.964,180.988 828.98,180.63C828.87,180.785 828.732,180.959 828.565,181.155C828.398,181.35 828.195,181.572 827.955,181.82L826.386,183.389L824.836,181.802L829.212,177.389L831.531,177.389L831.531,195.236Z" style="fill:#3f3f3f;fill-rule:nonzero;"/>
        <path d="M844.587,195.236L835.425,195.236L835.425,193.307L838.904,188.32C839.616,187.303 840.169,186.441 840.562,185.735C840.954,185.03 841.228,184.382 841.382,183.792C841.537,183.201 841.614,182.577 841.614,181.918C841.614,181.169 841.435,180.576 841.077,180.139C840.719,179.701 840.198,179.482 839.515,179.482C839.022,179.482 838.566,179.59 838.145,179.806C837.723,180.022 837.273,180.394 836.793,180.923L835.474,179.141C835.926,178.656 836.372,178.267 836.814,177.972C837.255,177.677 837.719,177.463 838.206,177.331C838.692,177.199 839.22,177.133 839.789,177.133C840.701,177.133 841.493,177.327 842.167,177.715C842.84,178.104 843.36,178.646 843.726,179.342C844.092,180.038 844.276,180.85 844.276,181.777C844.276,182.648 844.174,183.461 843.97,184.216C843.767,184.97 843.442,185.738 842.997,186.517C842.551,187.296 841.964,188.162 841.236,189.114L838.563,192.782L838.563,192.886L844.587,192.886L844.587,195.236Z" style="fill:#3f3f3f;fill-rule:nonzero;"/>
        <path d="M852.851,181.448C854.137,181.448 855.119,182.045 855.799,183.239C856.478,184.433 856.818,186.178 856.818,188.473C856.818,189.95 856.666,191.21 856.36,192.254C856.055,193.298 855.614,194.096 855.036,194.65C854.458,195.203 853.762,195.48 852.949,195.48C852.513,195.48 852.105,195.399 851.725,195.239C851.344,195.078 851.003,194.842 850.699,194.531C850.396,194.219 850.135,193.84 849.915,193.392L849.811,193.392C849.84,193.816 849.862,194.199 849.879,194.543C849.895,194.887 849.903,195.189 849.903,195.449L849.903,201.229L847.339,201.229L847.339,181.698L849.415,181.698L849.769,183.578L849.909,183.578C850.161,183.061 850.434,182.647 850.727,182.336C851.02,182.025 851.342,181.799 851.694,181.658C852.046,181.518 852.432,181.448 852.851,181.448ZM852.137,183.639C851.632,183.639 851.215,183.798 850.886,184.115C850.556,184.432 850.31,184.918 850.147,185.571C849.984,186.224 849.903,187.057 849.903,188.07L849.903,188.735C849.903,189.765 849.984,190.613 850.147,191.281C850.31,191.948 850.559,192.442 850.895,192.764C851.23,193.085 851.649,193.246 852.149,193.246C852.605,193.246 852.986,193.075 853.293,192.733C853.601,192.391 853.831,191.87 853.983,191.168C854.136,190.466 854.212,189.576 854.212,188.497C854.212,186.874 854.049,185.658 853.724,184.85C853.398,184.043 852.869,183.639 852.137,183.639Z" style="fill:#3f3f3f;fill-rule:nonzero;"/>
        <path d="M893.107,195.236L890.47,195.236L890.47,183.895C890.47,183.529 890.473,183.165 890.479,182.803C890.485,182.441 890.495,182.077 890.51,181.713C890.524,181.349 890.539,180.988 890.555,180.63C890.446,180.785 890.307,180.959 890.14,181.155C889.974,181.35 889.77,181.572 889.53,181.82L887.961,183.389L886.411,181.802L890.787,177.389L893.107,177.389L893.107,195.236Z" style="fill:#3f3f3f;fill-rule:nonzero;"/>
        <path d="M944.98,195.236L935.819,195.236L935.819,193.307L939.298,188.32C940.01,187.303 940.563,186.441 940.955,185.735C941.348,185.03 941.622,184.382 941.776,183.792C941.931,183.201 942.008,182.577 942.008,181.918C942.008,181.169 941.829,180.576 941.471,180.139C941.113,179.701 940.592,179.482 939.908,179.482C939.416,179.482 938.959,179.59 938.538,179.806C938.117,180.022 937.666,180.394 937.186,180.923L935.868,179.141C936.32,178.656 936.766,178.267 937.208,177.972C937.649,177.677 938.113,177.463 938.599,177.331C939.085,177.199 939.613,177.133 940.183,177.133C941.095,177.133 941.887,177.327 942.56,177.715C943.234,178.104 943.754,178.646 944.12,179.342C944.486,180.038 944.669,180.85 944.669,181.777C944.669,182.648 944.567,183.461 944.364,184.216C944.161,184.97 943.836,185.738 943.391,186.517C942.945,187.296 942.358,188.162 941.63,189.114L938.956,192.782L938.956,192.886L944.98,192.886L944.98,195.236Z" style="fill:#3f3f3f;fill-rule:nonzero;"/>
        <path d="M994.736,181.57C994.736,182.249 994.622,182.87 994.395,183.431C994.167,183.993 993.831,184.479 993.387,184.89C992.944,185.301 992.399,185.625 991.752,185.861L991.752,185.946C992.83,186.178 993.65,186.665 994.211,187.408C994.773,188.15 995.054,189.112 995.054,190.292C995.054,191.333 994.846,192.244 994.431,193.023C994.016,193.802 993.417,194.407 992.634,194.836C991.85,195.265 990.905,195.48 989.799,195.48C989.054,195.48 988.377,195.422 987.769,195.306C987.161,195.19 986.547,194.987 985.929,194.698L985.929,192.159C986.495,192.493 987.078,192.748 987.681,192.925C988.283,193.102 988.875,193.191 989.457,193.191C990.425,193.191 991.139,192.917 991.599,192.37C992.059,191.823 992.289,191.089 992.289,190.17C992.289,189.498 992.162,188.941 991.907,188.497C991.653,188.054 991.267,187.722 990.751,187.502C990.234,187.283 989.579,187.173 988.785,187.173L987.882,187.173L987.882,184.921L988.834,184.921C989.53,184.921 990.123,184.796 990.613,184.545C991.104,184.295 991.478,183.94 991.736,183.48C991.995,183.02 992.124,182.479 992.124,181.857C992.124,181.08 991.932,180.481 991.547,180.062C991.163,179.643 990.61,179.434 989.89,179.434C989.532,179.434 989.194,179.48 988.877,179.574C988.56,179.668 988.249,179.805 987.946,179.986C987.643,180.167 987.333,180.394 987.015,180.667L985.886,178.768C986.566,178.178 987.256,177.758 987.958,177.508C988.66,177.258 989.453,177.133 990.336,177.133C991.695,177.133 992.768,177.521 993.555,178.298C994.343,179.076 994.736,180.166 994.736,181.57Z" style="fill:#3f3f3f;fill-rule:nonzero;"/>
        <path d="M1045.89,191.458L1044.041,191.458L1044.041,195.236L1041.44,195.236L1041.44,191.458L1035.453,191.458L1035.453,189.315L1041.349,177.291L1044.041,177.291L1044.041,189.248L1045.89,189.248L1045.89,191.458ZM1041.428,189.248L1041.428,183.584C1041.428,183.429 1041.431,183.227 1041.437,182.977C1041.443,182.726 1041.451,182.465 1041.459,182.192C1041.467,181.92 1041.475,181.667 1041.483,181.436C1041.491,181.204 1041.499,181.025 1041.508,180.898L1041.416,180.898C1041.298,181.273 1041.169,181.631 1041.028,181.973C1040.888,182.314 1040.745,182.642 1040.598,182.955L1037.675,189.248L1041.428,189.248Z" style="fill:#3f3f3f;fill-rule:nonzero;"/>
        <path d="M1090.781,184.054C1091.668,184.054 1092.434,184.281 1093.079,184.734C1093.724,185.188 1094.223,185.819 1094.575,186.627C1094.927,187.434 1095.103,188.371 1095.103,189.437C1095.103,190.666 1094.9,191.733 1094.495,192.639C1094.09,193.544 1093.489,194.244 1092.692,194.738C1091.894,195.233 1090.899,195.48 1089.707,195.48C1089.003,195.48 1088.365,195.414 1087.794,195.281C1087.222,195.149 1086.708,194.951 1086.252,194.686L1086.252,192.159C1086.745,192.465 1087.276,192.713 1087.845,192.904C1088.415,193.095 1088.975,193.191 1089.524,193.191C1090.175,193.191 1090.713,193.029 1091.138,192.706C1091.564,192.382 1091.882,191.945 1092.094,191.393C1092.305,190.842 1092.411,190.221 1092.411,189.529C1092.411,188.479 1092.173,187.679 1091.697,187.13C1091.221,186.581 1090.529,186.306 1089.622,186.306C1089.255,186.306 1088.885,186.343 1088.511,186.416C1088.136,186.489 1087.76,186.591 1087.382,186.721L1086.436,185.928L1086.967,177.389L1094.169,177.389L1094.169,179.751L1089.182,179.751L1088.877,184.286C1089.227,184.2 1089.562,184.14 1089.881,184.106C1090.2,184.071 1090.5,184.054 1090.781,184.054Z" style="fill:#3f3f3f;fill-rule:nonzero;"/>
        <path d="M1136.051,187.649C1136.051,186.388 1136.12,185.217 1136.259,184.136C1136.397,183.056 1136.616,182.086 1136.915,181.225C1137.214,180.364 1137.607,179.629 1138.096,179.019C1138.584,178.408 1139.175,177.942 1139.869,177.621C1140.563,177.299 1141.375,177.139 1142.307,177.139C1142.681,177.139 1143.044,177.159 1143.394,177.2C1143.743,177.24 1144.071,177.303 1144.376,177.389L1144.376,179.684C1144.091,179.602 1143.79,179.539 1143.473,179.495C1143.156,179.45 1142.822,179.427 1142.472,179.427C1141.65,179.427 1140.955,179.662 1140.388,180.132C1139.82,180.602 1139.384,181.31 1139.078,182.256C1138.773,183.203 1138.598,184.394 1138.553,185.83L1138.651,185.83C1138.83,185.403 1139.054,185.037 1139.323,184.731C1139.591,184.426 1139.906,184.19 1140.269,184.023C1140.631,183.857 1141.034,183.773 1141.477,183.773C1142.311,183.773 1143.008,184.018 1143.568,184.509C1144.127,184.999 1144.55,185.67 1144.837,186.523C1145.124,187.375 1145.267,188.355 1145.267,189.462C1145.267,190.634 1145.097,191.673 1144.758,192.581C1144.418,193.488 1143.916,194.199 1143.253,194.714C1142.59,195.228 1141.772,195.486 1140.8,195.486C1140.043,195.486 1139.369,195.313 1138.779,194.967C1138.189,194.621 1137.691,194.115 1137.284,193.447C1136.877,192.78 1136.57,191.96 1136.362,190.988C1136.155,190.015 1136.051,188.902 1136.051,187.649ZM1140.745,193.16C1141.335,193.16 1141.796,192.859 1142.13,192.257C1142.464,191.655 1142.631,190.741 1142.631,189.517C1142.631,188.385 1142.476,187.528 1142.167,186.944C1141.858,186.36 1141.392,186.068 1140.769,186.068C1140.334,186.068 1139.964,186.198 1139.661,186.459C1139.358,186.719 1139.128,187.064 1138.972,187.493C1138.815,187.923 1138.737,188.396 1138.737,188.912C1138.737,189.392 1138.773,189.881 1138.846,190.377C1138.92,190.874 1139.036,191.332 1139.194,191.754C1139.353,192.175 1139.561,192.514 1139.817,192.773C1140.073,193.031 1140.382,193.16 1140.745,193.16Z" style="fill:#3f3f3f;fill-rule:nonzero;"/>
        <path d="M1187.29,195.236L1192.6,179.757L1185.862,179.757L1185.862,177.389L1195.292,177.389L1195.292,179.269L1190.079,195.236L1187.29,195.236Z" style="fill:#3f3f3f;fill-rule:nonzero;"/>
        <path d="M1240.641,177.133C1241.556,177.133 1242.337,177.303 1242.982,177.645C1243.627,177.987 1244.12,178.471 1244.462,179.098C1244.803,179.725 1244.974,180.473 1244.974,181.344C1244.974,181.999 1244.877,182.601 1244.681,183.151C1244.486,183.7 1244.19,184.2 1243.793,184.652C1243.397,185.104 1242.893,185.513 1242.283,185.879C1242.942,186.326 1243.502,186.786 1243.964,187.258C1244.426,187.73 1244.779,188.243 1245.023,188.796C1245.267,189.35 1245.389,189.97 1245.389,190.658C1245.389,191.63 1245.198,192.478 1244.816,193.2C1244.433,193.922 1243.889,194.483 1243.183,194.882C1242.477,195.28 1241.642,195.48 1240.677,195.48C1239.652,195.48 1238.778,195.288 1238.056,194.906C1237.334,194.524 1236.784,193.978 1236.408,193.27C1236.032,192.562 1235.844,191.724 1235.844,190.756C1235.844,190.068 1235.947,189.435 1236.155,188.857C1236.362,188.28 1236.68,187.748 1237.107,187.261C1237.534,186.775 1238.073,186.324 1238.724,185.909C1238.175,185.482 1237.719,185.031 1237.357,184.554C1236.995,184.078 1236.725,183.575 1236.548,183.044C1236.371,182.513 1236.283,181.95 1236.283,181.356C1236.283,180.49 1236.461,179.741 1236.817,179.11C1237.173,178.479 1237.678,177.992 1238.331,177.648C1238.984,177.304 1239.754,177.133 1240.641,177.133ZM1238.413,190.737C1238.413,191.498 1238.602,192.119 1238.981,192.599C1239.359,193.079 1239.9,193.319 1240.604,193.319C1241.345,193.319 1241.901,193.077 1242.274,192.593C1242.646,192.109 1242.832,191.47 1242.832,190.676C1242.832,190.298 1242.769,189.93 1242.643,189.572C1242.517,189.213 1242.312,188.861 1242.029,188.516C1241.747,188.17 1241.369,187.824 1240.897,187.478L1240.476,187.167C1239.984,187.504 1239.586,187.85 1239.283,188.204C1238.98,188.558 1238.759,188.941 1238.621,189.352C1238.482,189.763 1238.413,190.225 1238.413,190.737ZM1240.623,179.299C1240.077,179.299 1239.64,179.5 1239.31,179.901C1238.981,180.301 1238.816,180.85 1238.816,181.545C1238.816,181.977 1238.883,182.368 1239.017,182.72C1239.152,183.072 1239.351,183.4 1239.615,183.703C1239.88,184.006 1240.21,184.3 1240.604,184.585C1241.048,184.284 1241.405,183.979 1241.675,183.669C1241.946,183.36 1242.143,183.033 1242.267,182.687C1242.392,182.341 1242.454,181.96 1242.454,181.545C1242.454,180.85 1242.29,180.301 1241.962,179.901C1241.635,179.5 1241.188,179.299 1240.623,179.299Z" style="fill:#3f3f3f;fill-rule:nonzero;"/>
        <path d="M1295.127,184.854C1295.127,186.143 1295.053,187.337 1294.904,188.433C1294.756,189.53 1294.525,190.512 1294.211,191.381C1293.898,192.25 1293.494,192.988 1293,193.597C1292.505,194.205 1291.913,194.671 1291.224,194.995C1290.534,195.318 1289.74,195.48 1288.84,195.48C1288.494,195.48 1288.128,195.455 1287.742,195.406C1287.355,195.358 1287.017,195.299 1286.729,195.229L1286.729,192.91C1287.009,193.004 1287.313,193.076 1287.641,193.127C1287.969,193.178 1288.315,193.203 1288.682,193.203C1289.597,193.203 1290.338,192.922 1290.903,192.361C1291.469,191.799 1291.89,191.035 1292.167,190.069C1292.443,189.103 1292.6,188.013 1292.637,186.801L1292.527,186.801C1292.348,187.22 1292.123,187.583 1291.852,187.89C1291.582,188.197 1291.267,188.434 1290.909,188.601C1290.551,188.768 1290.151,188.851 1289.707,188.851C1288.865,188.851 1288.162,188.607 1287.598,188.119C1287.035,187.631 1286.614,186.957 1286.335,186.099C1286.056,185.24 1285.917,184.264 1285.917,183.169C1285.917,181.993 1286.088,180.951 1286.429,180.044C1286.771,179.137 1287.279,178.424 1287.952,177.908C1288.626,177.391 1289.463,177.133 1290.464,177.133C1291.208,177.133 1291.871,177.303 1292.451,177.645C1293.03,177.987 1293.519,178.489 1293.915,179.15C1294.312,179.811 1294.613,180.619 1294.819,181.573C1295.024,182.527 1295.127,183.621 1295.127,184.854ZM1290.47,179.47C1289.864,179.47 1289.392,179.77 1289.054,180.37C1288.716,180.971 1288.547,181.883 1288.547,183.108C1288.547,184.235 1288.704,185.093 1289.017,185.681C1289.331,186.269 1289.801,186.562 1290.427,186.562C1290.895,186.562 1291.278,186.415 1291.575,186.12C1291.872,185.825 1292.091,185.451 1292.234,184.997C1292.376,184.543 1292.448,184.076 1292.448,183.596C1292.448,183.238 1292.421,182.825 1292.368,182.357C1292.315,181.889 1292.22,181.436 1292.081,180.996C1291.943,180.557 1291.745,180.192 1291.486,179.904C1291.228,179.615 1290.889,179.47 1290.47,179.47Z" style="fill:#3f3f3f;fill-rule:nonzero;"/>
        <path d="M1337.516,195.236L1334.879,195.236L1334.879,183.895C1334.879,183.529 1334.882,183.165 1334.888,182.803C1334.894,182.441 1334.905,182.077 1334.919,181.713C1334.933,181.349 1334.948,180.988 1334.965,180.63C1334.855,180.785 1334.716,180.959 1334.55,181.155C1334.383,181.35 1334.179,181.572 1333.939,181.82L1332.371,183.389L1330.82,181.802L1335.197,177.389L1337.516,177.389L1337.516,195.236Z" style="fill:#3f3f3f;fill-rule:nonzero;"/>
        <path d="M1350.797,186.312C1350.797,187.704 1350.718,188.962 1350.559,190.087C1350.4,191.212 1350.142,192.177 1349.784,192.98C1349.426,193.784 1348.953,194.4 1348.365,194.83C1347.777,195.259 1347.056,195.474 1346.201,195.474C1345.212,195.474 1344.377,195.178 1343.696,194.586C1343.014,193.994 1342.495,193.028 1342.139,191.689C1341.783,190.351 1341.605,188.558 1341.605,186.312C1341.605,184.249 1341.773,182.539 1342.109,181.182C1342.444,179.825 1342.952,178.811 1343.632,178.14C1344.311,177.468 1345.168,177.133 1346.201,177.133C1347.239,177.133 1348.096,177.475 1348.774,178.161C1349.451,178.847 1349.958,179.869 1350.294,181.228C1350.629,182.587 1350.797,184.282 1350.797,186.312ZM1344.272,186.312C1344.272,187.838 1344.335,189.104 1344.459,190.109C1344.583,191.114 1344.786,191.865 1345.069,192.364C1345.352,192.862 1345.729,193.112 1346.201,193.112C1346.677,193.112 1347.057,192.861 1347.339,192.361C1347.622,191.86 1347.826,191.107 1347.95,190.099C1348.074,189.092 1348.136,187.83 1348.136,186.312C1348.136,184.815 1348.073,183.562 1347.947,182.552C1347.821,181.543 1347.617,180.783 1347.336,180.273C1347.056,179.762 1346.677,179.507 1346.201,179.507C1345.733,179.507 1345.357,179.759 1345.072,180.264C1344.787,180.768 1344.583,181.524 1344.459,182.531C1344.335,183.538 1344.272,184.799 1344.272,186.312Z" style="fill:#3f3f3f;fill-rule:nonzero;"/>
        <path d="M1381.531,195.236L1378.895,195.236L1378.895,183.895C1378.895,183.529 1378.898,183.165 1378.904,182.803C1378.91,182.441 1378.92,182.077 1378.934,181.713C1378.949,181.349 1378.964,180.988 1378.98,180.63C1378.87,180.785 1378.732,180.959 1378.565,181.155C1378.398,181.35 1378.195,181.572 1377.955,181.82L1376.386,183.389L1374.836,181.802L1379.212,177.389L1381.531,177.389L1381.531,195.236Z" style="fill:#3f3f3f;fill-rule:nonzero;"/>
        <path d="M1392.713,195.236L1390.076,195.236L1390.076,183.895C1390.076,183.529 1390.079,183.165 1390.085,182.803C1390.092,182.441 1390.102,182.077 1390.116,181.713C1390.13,181.349 1390.145,180.988 1390.162,180.63C1390.052,180.785 1389.914,180.959 1389.747,181.155C1389.58,181.35 1389.376,181.572 1389.136,181.82L1387.568,183.389L1386.017,181.802L1390.394,177.389L1392.713,177.389L1392.713,195.236Z" style="fill:#3f3f3f;fill-rule:nonzero;"/>
        <path d="M1402.851,181.448C1404.137,181.448 1405.119,182.045 1405.799,183.239C1406.478,184.433 1406.818,186.178 1406.818,188.473C1406.818,189.95 1406.666,191.21 1406.36,192.254C1406.055,193.298 1405.614,194.096 1405.036,194.65C1404.458,195.203 1403.762,195.48 1402.949,195.48C1402.513,195.48 1402.105,195.399 1401.725,195.239C1401.344,195.078 1401.003,194.842 1400.699,194.531C1400.396,194.219 1400.135,193.84 1399.915,193.392L1399.811,193.392C1399.84,193.816 1399.862,194.199 1399.879,194.543C1399.895,194.887 1399.903,195.189 1399.903,195.449L1399.903,201.229L1397.339,201.229L1397.339,181.698L1399.415,181.698L1399.769,183.578L1399.909,183.578C1400.161,183.061 1400.434,182.647 1400.727,182.336C1401.02,182.025 1401.342,181.799 1401.694,181.658C1402.046,181.518 1402.432,181.448 1402.851,181.448ZM1402.137,183.639C1401.632,183.639 1401.215,183.798 1400.886,184.115C1400.556,184.432 1400.31,184.918 1400.147,185.571C1399.984,186.224 1399.903,187.057 1399.903,188.07L1399.903,188.735C1399.903,189.765 1399.984,190.613 1400.147,191.281C1400.31,191.948 1400.559,192.442 1400.895,192.764C1401.23,193.085 1401.649,193.246 1402.149,193.246C1402.605,193.246 1402.986,193.075 1403.293,192.733C1403.601,192.391 1403.831,191.87 1403.983,191.168C1404.136,190.466 1404.212,189.576 1404.212,188.497C1404.212,186.874 1404.049,185.658 1403.724,184.85C1403.398,184.043 1402.869,183.639 1402.137,183.639Z" style="fill:#3f3f3f;fill-rule:nonzero;"/>
        <path d="M192.309,244.117L189.549,244.117L189.549,233.09C189.549,232.723 189.552,232.355 189.558,231.988C189.563,231.621 189.573,231.262 189.587,230.91C189.601,230.559 189.617,230.225 189.637,229.908C189.473,230.084 189.272,230.277 189.036,230.488C188.8,230.699 188.547,230.918 188.277,231.145L186.314,232.721L184.932,230.969L190.012,226.984L192.309,226.984L192.309,244.117Z" style="fill-rule:nonzero;"/>
        <path d="M195.812,294.117L184.211,294.117L184.211,292.043L188.652,287.543C189.512,286.668 190.219,285.913 190.773,285.278C191.328,284.644 191.741,284.04 192.013,283.468C192.284,282.896 192.42,282.273 192.42,281.602C192.42,280.777 192.182,280.152 191.705,279.727C191.229,279.301 190.598,279.088 189.812,279.088C189.07,279.088 188.385,279.234 187.756,279.527C187.127,279.82 186.477,280.236 185.805,280.775L184.299,278.953C184.771,278.551 185.279,278.182 185.822,277.846C186.365,277.51 186.973,277.241 187.645,277.04C188.316,276.839 189.082,276.738 189.941,276.738C191.031,276.738 191.97,276.932 192.757,277.318C193.544,277.705 194.151,278.243 194.579,278.933C195.007,279.622 195.221,280.422 195.221,281.332C195.221,282.258 195.037,283.11 194.67,283.89C194.303,284.669 193.778,285.44 193.097,286.204C192.415,286.968 191.605,287.795 190.668,288.686L187.703,291.58L187.703,291.703L195.812,291.703L195.812,294.117Z" style="fill-rule:nonzero;"/>
        <path d="M195.162,330.898C195.162,331.676 195.006,332.35 194.693,332.92C194.381,333.49 193.952,333.956 193.407,334.317C192.862,334.679 192.236,334.938 191.529,335.094L191.529,335.176C192.896,335.348 193.93,335.777 194.629,336.465C195.328,337.152 195.678,338.062 195.678,339.195C195.678,340.191 195.439,341.078 194.963,341.855C194.486,342.633 193.755,343.243 192.769,343.687C191.782,344.13 190.516,344.352 188.969,344.352C188.043,344.352 187.184,344.277 186.391,344.129C185.598,343.98 184.846,343.744 184.135,343.42L184.135,340.965C184.857,341.328 185.629,341.607 186.449,341.803C187.27,341.998 188.049,342.096 188.787,342.096C190.217,342.096 191.235,341.828 191.843,341.293C192.45,340.758 192.754,340.018 192.754,339.072C192.754,338.463 192.597,337.962 192.282,337.569C191.968,337.177 191.48,336.884 190.82,336.69C190.16,336.497 189.309,336.4 188.266,336.4L186.76,336.4L186.76,334.18L188.283,334.18C189.275,334.18 190.071,334.062 190.671,333.825C191.271,333.589 191.705,333.26 191.975,332.838C192.244,332.416 192.379,331.924 192.379,331.361C192.379,330.623 192.141,330.05 191.664,329.642C191.187,329.233 190.482,329.029 189.549,329.029C188.971,329.029 188.444,329.095 187.97,329.226C187.495,329.356 187.059,329.524 186.66,329.729C186.262,329.935 185.885,330.154 185.529,330.389L184.199,328.473C184.848,327.988 185.622,327.578 186.522,327.242C187.423,326.906 188.471,326.738 189.666,326.738C191.424,326.738 192.779,327.115 193.732,327.869C194.686,328.623 195.162,329.633 195.162,330.898Z" style="fill-rule:nonzero;"/>
        <path d="M196.434,390.355L194.119,390.355L194.119,394.117L191.4,394.117L191.4,390.355L183.602,390.355L183.602,388.275L191.436,376.938L194.119,376.938L194.119,388.07L196.434,388.07L196.434,390.355ZM191.4,388.07L191.4,383.816C191.4,383.465 191.405,383.108 191.415,382.747C191.425,382.386 191.437,382.036 191.453,381.698C191.469,381.36 191.527,380.246 191.535,380.055L191.441,380.055C191.293,380.371 191.13,380.691 190.952,381.016C190.774,381.34 190.582,381.652 190.375,381.953L186.162,388.07L191.4,388.07Z" style="fill-rule:nonzero;"/>
        <path d="M190.035,433.406C191.141,433.406 192.112,433.604 192.95,434.001C193.788,434.397 194.442,434.977 194.913,435.738C195.384,436.5 195.619,437.432 195.619,438.533C195.619,439.736 195.364,440.773 194.854,441.645C194.345,442.516 193.599,443.185 192.616,443.651C191.634,444.118 190.434,444.352 189.016,444.352C188.121,444.352 187.284,444.274 186.505,444.12C185.726,443.966 185.057,443.732 184.498,443.42L184.498,440.93C185.08,441.258 185.782,441.526 186.604,441.735C187.427,441.944 188.213,442.049 188.963,442.049C189.756,442.049 190.438,441.932 191.011,441.697C191.583,441.463 192.023,441.104 192.332,440.619C192.641,440.135 192.795,439.521 192.795,438.779C192.795,437.791 192.479,437.03 191.849,436.497C191.218,435.964 190.234,435.697 188.898,435.697C188.434,435.697 187.937,435.738 187.407,435.82C186.878,435.902 186.439,435.988 186.092,436.078L184.879,435.369L185.529,426.984L194.436,426.984L194.436,429.41L187.949,429.41L187.574,433.676C187.855,433.617 188.191,433.558 188.582,433.497C188.973,433.437 189.457,433.406 190.035,433.406Z" style="fill-rule:nonzero;"/>
        <path d="M184.24,486.816C184.24,485.809 184.312,484.817 184.457,483.843C184.602,482.868 184.85,481.955 185.201,481.104C185.553,480.252 186.039,479.501 186.66,478.851C187.281,478.2 188.063,477.689 189.007,477.318C189.95,476.947 191.088,476.762 192.42,476.762C192.764,476.762 193.149,476.777 193.577,476.809C194.005,476.84 194.359,476.891 194.641,476.961L194.641,479.246C194.34,479.16 194.008,479.095 193.645,479.05C193.281,479.005 192.918,478.982 192.555,478.982C191.117,478.982 189.996,479.254 189.191,479.797C188.387,480.34 187.813,481.082 187.472,482.023C187.13,482.965 186.932,484.039 186.877,485.246L187.018,485.246C187.248,484.859 187.54,484.513 187.894,484.206C188.247,483.899 188.677,483.655 189.183,483.474C189.688,483.292 190.279,483.201 190.955,483.201C191.955,483.201 192.825,483.409 193.565,483.825C194.306,484.241 194.878,484.844 195.282,485.633C195.687,486.422 195.889,487.381 195.889,488.51C195.889,489.717 195.66,490.758 195.203,491.633C194.746,492.508 194.098,493.18 193.258,493.648C192.418,494.117 191.42,494.352 190.264,494.352C189.408,494.352 188.615,494.196 187.885,493.886C187.154,493.575 186.517,493.107 185.972,492.482C185.427,491.857 185.002,491.074 184.697,490.133C184.393,489.191 184.24,488.086 184.24,486.816ZM190.217,492.084C191.104,492.084 191.818,491.793 192.361,491.211C192.904,490.629 193.176,489.736 193.176,488.533C193.176,487.553 192.937,486.778 192.458,486.21C191.979,485.642 191.258,485.357 190.293,485.357C189.637,485.357 189.063,485.498 188.573,485.779C188.083,486.061 187.703,486.415 187.434,486.843C187.164,487.271 187.029,487.707 187.029,488.152C187.029,488.609 187.095,489.068 187.226,489.529C187.356,489.99 187.555,490.414 187.82,490.801C188.086,491.188 188.419,491.498 188.819,491.732C189.22,491.967 189.686,492.084 190.217,492.084Z" style="fill-rule:nonzero;"/>
        <path d="M186.168,544.117L192.9,529.398L184.006,529.398L184.006,526.984L195.865,526.984L195.865,528.871L189.133,544.117L186.168,544.117Z" style="fill-rule:nonzero;"/>
        <path d="M189.994,576.75C190.982,576.75 191.876,576.904 192.675,577.213C193.474,577.521 194.106,577.98 194.573,578.59C195.04,579.199 195.273,579.955 195.273,580.857C195.273,581.549 195.131,582.153 194.846,582.671C194.561,583.188 194.176,583.641 193.691,584.027C193.207,584.414 192.664,584.756 192.062,585.053C192.734,585.381 193.354,585.757 193.923,586.181C194.491,586.604 194.948,587.102 195.294,587.672C195.64,588.242 195.812,588.912 195.812,589.682C195.812,590.639 195.569,591.467 195.083,592.166C194.597,592.865 193.92,593.404 193.053,593.783C192.186,594.162 191.174,594.352 190.018,594.352C188.771,594.352 187.712,594.169 186.839,593.804C185.966,593.438 185.302,592.914 184.847,592.23C184.392,591.547 184.164,590.727 184.164,589.77C184.164,588.984 184.321,588.302 184.636,587.722C184.95,587.142 185.371,586.642 185.898,586.222C186.426,585.802 187.004,585.445 187.633,585.152C187.094,584.836 186.602,584.477 186.156,584.074C185.711,583.672 185.357,583.206 185.096,582.677C184.834,582.147 184.703,581.535 184.703,580.84C184.703,579.953 184.941,579.206 185.418,578.599C185.895,577.991 186.534,577.531 187.337,577.219C188.14,576.906 189.025,576.75 189.994,576.75ZM186.795,589.67C186.795,590.416 187.06,591.031 187.589,591.516C188.118,592 188.912,592.242 189.971,592.242C191.014,592.242 191.809,592.004 192.355,591.527C192.902,591.051 193.176,590.424 193.176,589.646C193.176,589.143 193.038,588.7 192.763,588.319C192.487,587.938 192.117,587.597 191.652,587.294C191.187,586.991 190.672,586.713 190.105,586.459L189.736,586.301C189.127,586.562 188.604,586.854 188.166,587.177C187.729,587.499 187.391,587.863 187.152,588.27C186.914,588.676 186.795,589.143 186.795,589.67ZM189.971,578.871C189.213,578.871 188.59,579.058 188.102,579.431C187.613,579.804 187.369,580.336 187.369,581.027C187.369,581.52 187.488,581.941 187.727,582.293C187.965,582.645 188.286,582.948 188.69,583.204C189.095,583.46 189.543,583.697 190.035,583.916C190.512,583.705 190.943,583.472 191.33,583.216C191.717,582.96 192.025,582.654 192.256,582.299C192.486,581.943 192.602,581.518 192.602,581.021C192.602,580.33 192.357,579.799 191.869,579.428C191.381,579.057 190.748,578.871 189.971,578.871Z" style="fill-rule:nonzero;"/>
        <path d="M195.789,634.291C195.789,635.303 195.717,636.297 195.572,637.273C195.428,638.25 195.179,639.165 194.825,640.019C194.472,640.872 193.984,641.624 193.363,642.274C192.742,642.925 191.958,643.435 191.011,643.804C190.063,644.173 188.924,644.357 187.592,644.357C187.256,644.357 186.867,644.34 186.426,644.305C185.984,644.27 185.621,644.219 185.336,644.152L185.336,641.855C185.637,641.945 185.973,642.016 186.344,642.066C186.715,642.117 187.084,642.143 187.451,642.143C188.896,642.143 190.022,641.872 190.829,641.331C191.636,640.79 192.21,640.048 192.552,639.104C192.894,638.161 193.088,637.088 193.135,635.885L192.994,635.885C192.764,636.26 192.477,636.602 192.133,636.91C191.789,637.219 191.363,637.465 190.855,637.648C190.348,637.832 189.73,637.924 189.004,637.924C188.02,637.924 187.162,637.716 186.432,637.3C185.701,636.884 185.135,636.28 184.732,635.489C184.33,634.698 184.129,633.742 184.129,632.621C184.129,631.41 184.359,630.367 184.82,629.492C185.281,628.617 185.934,627.943 186.777,627.471C187.621,626.998 188.615,626.762 189.76,626.762C190.619,626.762 191.414,626.917 192.145,627.228C192.875,627.538 193.514,628.007 194.061,628.634C194.607,629.261 195.032,630.045 195.335,630.986C195.638,631.928 195.789,633.029 195.789,634.291ZM189.795,629.041C188.924,629.041 188.216,629.332 187.671,629.914C187.126,630.496 186.854,631.387 186.854,632.586C186.854,633.566 187.088,634.342 187.557,634.912C188.025,635.482 188.744,635.768 189.713,635.768C190.381,635.768 190.96,635.628 191.45,635.349C191.94,635.069 192.32,634.716 192.59,634.288C192.859,633.86 192.994,633.422 192.994,632.973C192.994,632.516 192.929,632.057 192.798,631.596C192.667,631.135 192.469,630.712 192.203,630.327C191.937,629.942 191.604,629.632 191.204,629.396C190.804,629.159 190.334,629.041 189.795,629.041Z" style="fill-rule:nonzero;"/>
        <path d="M185.447,694.117L182.687,694.117L182.687,683.09C182.687,682.723 182.69,682.355 182.696,681.988C182.702,681.621 182.712,681.262 182.726,680.91C182.739,680.559 182.756,680.225 182.775,679.908C182.611,680.084 182.411,680.277 182.175,680.488C181.938,680.699 181.686,680.918 181.416,681.145L179.453,682.721L178.07,680.969L183.15,676.984L185.447,676.984L185.447,694.117Z" style="fill-rule:nonzero;"/>
        <path d="M202.674,685.539C202.674,686.926 202.567,688.164 202.354,689.254C202.142,690.344 201.804,691.268 201.341,692.025C200.878,692.783 200.275,693.36 199.533,693.757C198.791,694.153 197.895,694.352 196.844,694.352C195.52,694.352 194.429,694.003 193.571,693.306C192.714,692.608 192.077,691.602 191.661,690.285C191.245,688.969 191.037,687.387 191.037,685.539C191.037,683.699 191.227,682.121 191.605,680.805C191.984,679.488 192.6,678.478 193.451,677.772C194.303,677.067 195.434,676.715 196.844,676.715C198.172,676.715 199.267,677.064 200.128,677.764C200.989,678.463 201.629,679.471 202.047,680.787C202.465,682.104 202.674,683.688 202.674,685.539ZM193.814,685.539C193.814,686.988 193.911,688.196 194.104,689.163C194.298,690.13 194.616,690.854 195.06,691.337C195.503,691.819 196.098,692.061 196.844,692.061C197.586,692.061 198.18,691.821 198.625,691.343C199.07,690.864 199.392,690.142 199.589,689.175C199.786,688.208 199.885,686.996 199.885,685.539C199.885,684.102 199.787,682.899 199.592,681.933C199.396,680.966 199.077,680.238 198.634,679.75C198.19,679.262 197.594,679.018 196.844,679.018C196.09,679.018 195.492,679.262 195.051,679.75C194.609,680.238 194.293,680.966 194.102,681.933C193.91,682.899 193.814,684.102 193.814,685.539Z" style="fill-rule:nonzero;"/>
        <path d="M185.447,744.117L182.687,744.117L182.687,733.09C182.687,732.723 182.69,732.355 182.696,731.988C182.702,731.621 182.712,731.262 182.726,730.91C182.739,730.559 182.756,730.225 182.775,729.908C182.611,730.084 182.411,730.277 182.175,730.488C181.938,730.699 181.686,730.918 181.416,731.145L179.453,732.721L178.07,730.969L183.15,726.984L185.447,726.984L185.447,744.117Z" style="fill-rule:nonzero;"/>
        <path d="M199.17,744.117L196.41,744.117L196.41,733.09C196.41,732.723 196.413,732.355 196.419,731.988C196.425,731.621 196.435,731.262 196.448,730.91C196.462,730.559 196.479,730.225 196.498,729.908C196.334,730.084 196.134,730.277 195.897,730.488C195.661,730.699 195.408,730.918 195.139,731.145L193.176,732.721L191.793,730.969L196.873,726.984L199.17,726.984L199.17,744.117Z" style="fill-rule:nonzero;"/>
        <path d="M185.447,794.117L182.687,794.117L182.687,783.09C182.687,782.723 182.69,782.355 182.696,781.988C182.702,781.621 182.712,781.262 182.726,780.91C182.739,780.559 182.756,780.225 182.775,779.908C182.611,780.084 182.411,780.277 182.175,780.488C181.938,780.699 181.686,780.918 181.416,781.145L179.453,782.721L178.07,780.969L183.15,776.984L185.447,776.984L185.447,794.117Z" style="fill-rule:nonzero;"/>
        <path d="M202.674,794.117L191.072,794.117L191.072,792.043L195.514,787.543C196.373,786.668 197.08,785.913 197.635,785.278C198.189,784.644 198.603,784.04 198.874,783.468C199.146,782.896 199.281,782.273 199.281,781.602C199.281,780.777 199.043,780.152 198.566,779.727C198.09,779.301 197.459,779.088 196.674,779.088C195.932,779.088 195.246,779.234 194.617,779.527C193.988,779.82 193.338,780.236 192.666,780.775L191.16,778.953C191.633,778.551 192.141,778.182 192.684,777.846C193.227,777.51 193.834,777.241 194.506,777.04C195.178,776.839 195.943,776.738 196.803,776.738C197.893,776.738 198.831,776.932 199.618,777.318C200.405,777.705 201.013,778.243 201.44,778.933C201.868,779.622 202.082,780.422 202.082,781.332C202.082,782.258 201.898,783.11 201.531,783.89C201.164,784.669 200.64,785.44 199.958,786.204C199.276,786.968 198.467,787.795 197.529,788.686L194.564,791.58L194.564,791.703L202.674,791.703L202.674,794.117Z" style="fill-rule:nonzero;"/>
        <path d="M185.447,844.117L182.687,844.117L182.687,833.09C182.687,832.723 182.69,832.355 182.696,831.988C182.702,831.621 182.712,831.262 182.726,830.91C182.739,830.559 182.756,830.225 182.775,829.908C182.611,830.084 182.411,830.277 182.175,830.488C181.938,830.699 181.686,830.918 181.416,831.145L179.453,832.721L178.07,830.969L183.15,826.984L185.447,826.984L185.447,844.117Z" style="fill-rule:nonzero;"/>
        <path d="M202.023,830.898C202.023,831.676 201.867,832.35 201.555,832.92C201.242,833.49 200.813,833.956 200.269,834.317C199.724,834.679 199.098,834.938 198.391,835.094L198.391,835.176C199.758,835.348 200.791,835.777 201.49,836.465C202.189,837.152 202.539,838.062 202.539,839.195C202.539,840.191 202.301,841.078 201.824,841.855C201.348,842.633 200.616,843.243 199.63,843.687C198.644,844.13 197.377,844.352 195.83,844.352C194.904,844.352 194.045,844.277 193.252,844.129C192.459,843.98 191.707,843.744 190.996,843.42L190.996,840.965C191.719,841.328 192.49,841.607 193.311,841.803C194.131,841.998 194.91,842.096 195.648,842.096C197.078,842.096 198.097,841.828 198.704,841.293C199.312,840.758 199.615,840.018 199.615,839.072C199.615,838.463 199.458,837.962 199.144,837.569C198.829,837.177 198.342,836.884 197.682,836.69C197.021,836.497 196.17,836.4 195.127,836.4L193.621,836.4L193.621,834.18L195.145,834.18C196.137,834.18 196.933,834.062 197.532,833.825C198.132,833.589 198.566,833.26 198.836,832.838C199.105,832.416 199.24,831.924 199.24,831.361C199.24,830.623 199.002,830.05 198.525,829.642C198.049,829.233 197.344,829.029 196.41,829.029C195.832,829.029 195.306,829.095 194.831,829.226C194.356,829.356 193.92,829.524 193.521,829.729C193.123,829.935 192.746,830.154 192.391,830.389L191.061,828.473C191.709,827.988 192.483,827.578 193.384,827.242C194.284,826.906 195.332,826.738 196.527,826.738C198.285,826.738 199.641,827.115 200.594,827.869C201.547,828.623 202.023,829.633 202.023,830.898Z" style="fill-rule:nonzero;"/>
        <path d="M185.447,894.117L182.687,894.117L182.687,883.09C182.687,882.723 182.69,882.355 182.696,881.988C182.702,881.621 182.712,881.262 182.726,880.91C182.739,880.559 182.756,880.225 182.775,879.908C182.611,880.084 182.411,880.277 182.175,880.488C181.938,880.699 181.686,880.918 181.416,881.145L179.453,882.721L178.07,880.969L183.15,876.984L185.447,876.984L185.447,894.117Z" style="fill-rule:nonzero;"/>
        <path d="M203.295,890.355L200.98,890.355L200.98,894.117L198.262,894.117L198.262,890.355L190.463,890.355L190.463,888.275L198.297,876.938L200.98,876.938L200.98,888.07L203.295,888.07L203.295,890.355ZM198.262,888.07L198.262,883.816C198.262,883.465 198.267,883.108 198.276,882.747C198.286,882.386 198.299,882.036 198.314,881.698C198.33,881.36 198.389,880.246 198.396,880.055L198.303,880.055C198.154,880.371 197.991,880.691 197.813,881.016C197.636,881.34 197.443,881.652 197.236,881.953L193.023,888.07L198.262,888.07Z" style="fill-rule:nonzero;"/>
        <path d="M185.447,944.117L182.687,944.117L182.687,933.09C182.687,932.723 182.69,932.355 182.696,931.988C182.702,931.621 182.712,931.262 182.726,930.91C182.739,930.559 182.756,930.225 182.775,929.908C182.611,930.084 182.411,930.277 182.175,930.488C181.938,930.699 181.686,930.918 181.416,931.145L179.453,932.721L178.07,930.969L183.15,926.984L185.447,926.984L185.447,944.117Z" style="fill-rule:nonzero;"/>
        <path d="M196.896,933.406C198.002,933.406 198.974,933.604 199.812,934.001C200.649,934.397 201.304,934.977 201.774,935.738C202.245,936.5 202.48,937.432 202.48,938.533C202.48,939.736 202.226,940.773 201.716,941.645C201.206,942.516 200.46,943.185 199.478,943.651C198.495,944.118 197.295,944.352 195.877,944.352C194.982,944.352 194.146,944.274 193.366,944.12C192.587,943.966 191.918,943.732 191.359,943.42L191.359,940.93C191.941,941.258 192.644,941.526 193.466,941.735C194.288,941.944 195.074,942.049 195.824,942.049C196.617,942.049 197.3,941.932 197.872,941.697C198.444,941.463 198.885,941.104 199.193,940.619C199.502,940.135 199.656,939.521 199.656,938.779C199.656,937.791 199.341,937.03 198.71,936.497C198.079,935.964 197.096,935.697 195.76,935.697C195.295,935.697 194.798,935.738 194.269,935.82C193.739,935.902 193.301,935.988 192.953,936.078L191.74,935.369L192.391,926.984L201.297,926.984L201.297,929.41L194.811,929.41L194.436,933.676C194.717,933.617 195.053,933.558 195.443,933.497C195.834,933.437 196.318,933.406 196.896,933.406Z" style="fill-rule:nonzero;"/>
        <path d="M185.447,994.117L182.687,994.117L182.687,983.09C182.687,982.723 182.69,982.355 182.696,981.988C182.702,981.621 182.712,981.262 182.726,980.91C182.739,980.559 182.756,980.225 182.775,979.908C182.611,980.084 182.411,980.277 182.175,980.488C181.938,980.699 181.686,980.918 181.416,981.145L179.453,982.721L178.07,980.969L183.15,976.984L185.447,976.984L185.447,994.117Z" style="fill-rule:nonzero;"/>
        <path d="M191.102,986.816C191.102,985.809 191.174,984.817 191.318,983.843C191.463,982.868 191.711,981.955 192.062,981.104C192.414,980.252 192.9,979.501 193.521,978.851C194.143,978.2 194.925,977.689 195.868,977.318C196.812,976.947 197.949,976.762 199.281,976.762C199.625,976.762 200.011,976.777 200.438,976.809C200.866,976.84 201.221,976.891 201.502,976.961L201.502,979.246C201.201,979.16 200.869,979.095 200.506,979.05C200.143,979.005 199.779,978.982 199.416,978.982C197.979,978.982 196.857,979.254 196.053,979.797C195.248,980.34 194.675,981.082 194.333,982.023C193.991,982.965 193.793,984.039 193.738,985.246L193.879,985.246C194.109,984.859 194.401,984.513 194.755,984.206C195.108,983.899 195.538,983.655 196.044,983.474C196.55,983.292 197.141,983.201 197.816,983.201C198.816,983.201 199.687,983.409 200.427,983.825C201.167,984.241 201.739,984.844 202.144,985.633C202.548,986.422 202.75,987.381 202.75,988.51C202.75,989.717 202.521,990.758 202.064,991.633C201.607,992.508 200.959,993.18 200.119,993.648C199.279,994.117 198.281,994.352 197.125,994.352C196.27,994.352 195.477,994.196 194.746,993.886C194.016,993.575 193.378,993.107 192.833,992.482C192.288,991.857 191.863,991.074 191.559,990.133C191.254,989.191 191.102,988.086 191.102,986.816ZM197.078,992.084C197.965,992.084 198.68,991.793 199.223,991.211C199.766,990.629 200.037,989.736 200.037,988.533C200.037,987.553 199.798,986.778 199.319,986.21C198.841,985.642 198.119,985.357 197.154,985.357C196.498,985.357 195.925,985.498 195.435,985.779C194.944,986.061 194.564,986.415 194.295,986.843C194.025,987.271 193.891,987.707 193.891,988.152C193.891,988.609 193.956,989.068 194.087,989.529C194.218,989.99 194.416,990.414 194.682,990.801C194.947,991.188 195.28,991.498 195.681,991.732C196.081,991.967 196.547,992.084 197.078,992.084Z" style="fill-rule:nonzero;"/>
        <path d="M185.447,1044.117L182.687,1044.117L182.687,1033.09C182.687,1032.723 182.69,1032.355 182.696,1031.988C182.702,1031.621 182.712,1031.262 182.726,1030.91C182.739,1030.559 182.756,1030.225 182.775,1029.908C182.611,1030.084 182.411,1030.277 182.175,1030.488C181.938,1030.699 181.686,1030.918 181.416,1031.145L179.453,1032.721L178.07,1030.969L183.15,1026.984L185.447,1026.984L185.447,1044.117Z" style="fill-rule:nonzero;"/>
        <path d="M193.029,1044.117L199.762,1029.398L190.867,1029.398L190.867,1026.984L202.727,1026.984L202.727,1028.871L195.994,1044.117L193.029,1044.117Z" style="fill-rule:nonzero;"/>
        <path d="M185.447,1094.117L182.687,1094.117L182.687,1083.09C182.687,1082.723 182.69,1082.355 182.696,1081.988C182.702,1081.621 182.712,1081.262 182.726,1080.91C182.739,1080.559 182.756,1080.225 182.775,1079.908C182.611,1080.084 182.411,1080.277 182.175,1080.488C181.938,1080.699 181.686,1080.918 181.416,1081.145L179.453,1082.721L178.07,1080.969L183.15,1076.984L185.447,1076.984L185.447,1094.117Z" style="fill-rule:nonzero;"/>
        <path d="M196.855,1076.75C197.844,1076.75 198.737,1076.904 199.536,1077.213C200.335,1077.521 200.968,1077.98 201.435,1078.59C201.901,1079.199 202.135,1079.955 202.135,1080.857C202.135,1081.549 201.992,1082.153 201.707,1082.671C201.422,1083.188 201.037,1083.641 200.553,1084.027C200.068,1084.414 199.525,1084.756 198.924,1085.053C199.596,1085.381 200.216,1085.757 200.784,1086.181C201.353,1086.604 201.81,1087.102 202.155,1087.672C202.501,1088.242 202.674,1088.912 202.674,1089.682C202.674,1090.639 202.431,1091.467 201.944,1092.166C201.458,1092.865 200.781,1093.404 199.914,1093.783C199.047,1094.162 198.035,1094.352 196.879,1094.352C195.633,1094.352 194.573,1094.169 193.7,1093.804C192.827,1093.438 192.163,1092.914 191.708,1092.23C191.253,1091.547 191.025,1090.727 191.025,1089.77C191.025,1088.984 191.183,1088.302 191.497,1087.722C191.812,1087.142 192.232,1086.642 192.76,1086.222C193.287,1085.802 193.865,1085.445 194.494,1085.152C193.955,1084.836 193.463,1084.477 193.018,1084.074C192.572,1083.672 192.219,1083.206 191.957,1082.677C191.695,1082.147 191.564,1081.535 191.564,1080.84C191.564,1079.953 191.803,1079.206 192.279,1078.599C192.756,1077.991 193.396,1077.531 194.198,1077.219C195.001,1076.906 195.887,1076.75 196.855,1076.75ZM193.656,1089.67C193.656,1090.416 193.921,1091.031 194.45,1091.516C194.979,1092 195.773,1092.242 196.832,1092.242C197.875,1092.242 198.67,1092.004 199.217,1091.527C199.764,1091.051 200.037,1090.424 200.037,1089.646C200.037,1089.143 199.899,1088.7 199.624,1088.319C199.349,1087.938 198.979,1087.597 198.514,1087.294C198.049,1086.991 197.533,1086.713 196.967,1086.459L196.598,1086.301C195.988,1086.562 195.465,1086.854 195.027,1087.177C194.59,1087.499 194.252,1087.863 194.014,1088.27C193.775,1088.676 193.656,1089.143 193.656,1089.67ZM196.832,1078.871C196.074,1078.871 195.451,1079.058 194.963,1079.431C194.475,1079.804 194.23,1080.336 194.23,1081.027C194.23,1081.52 194.35,1081.941 194.588,1082.293C194.826,1082.645 195.147,1082.948 195.552,1083.204C195.956,1083.46 196.404,1083.697 196.896,1083.916C197.373,1083.705 197.805,1083.472 198.191,1083.216C198.578,1082.96 198.887,1082.654 199.117,1082.299C199.348,1081.943 199.463,1081.518 199.463,1081.021C199.463,1080.33 199.219,1079.799 198.73,1079.428C198.242,1079.057 197.609,1078.871 196.832,1078.871Z" style="fill-rule:nonzero;"/>
        <path d="M185.447,1144.117L182.687,1144.117L182.687,1133.09C182.687,1132.723 182.69,1132.355 182.696,1131.988C182.702,1131.621 182.712,1131.262 182.726,1130.91C182.739,1130.559 182.756,1130.225 182.775,1129.908C182.611,1130.084 182.411,1130.277 182.175,1130.488C181.938,1130.699 181.686,1130.918 181.416,1131.145L179.453,1132.721L178.07,1130.969L183.15,1126.984L185.447,1126.984L185.447,1144.117Z" style="fill-rule:nonzero;"/>
        <path d="M202.65,1134.291C202.65,1135.303 202.578,1136.297 202.434,1137.273C202.289,1138.25 202.04,1139.165 201.687,1140.019C201.333,1140.872 200.846,1141.624 200.225,1142.274C199.604,1142.925 198.819,1143.435 197.872,1143.804C196.925,1144.173 195.785,1144.357 194.453,1144.357C194.117,1144.357 193.729,1144.34 193.287,1144.305C192.846,1144.27 192.482,1144.219 192.197,1144.152L192.197,1141.855C192.498,1141.945 192.834,1142.016 193.205,1142.066C193.576,1142.117 193.945,1142.143 194.312,1142.143C195.758,1142.143 196.884,1141.872 197.69,1141.331C198.497,1140.79 199.071,1140.048 199.413,1139.104C199.755,1138.161 199.949,1137.088 199.996,1135.885L199.855,1135.885C199.625,1136.26 199.338,1136.602 198.994,1136.91C198.65,1137.219 198.225,1137.465 197.717,1137.648C197.209,1137.832 196.592,1137.924 195.865,1137.924C194.881,1137.924 194.023,1137.716 193.293,1137.3C192.562,1136.884 191.996,1136.28 191.594,1135.489C191.191,1134.698 190.99,1133.742 190.99,1132.621C190.99,1131.41 191.221,1130.367 191.682,1129.492C192.143,1128.617 192.795,1127.943 193.639,1127.471C194.482,1126.998 195.477,1126.762 196.621,1126.762C197.48,1126.762 198.275,1126.917 199.006,1127.228C199.736,1127.538 200.375,1128.007 200.922,1128.634C201.469,1129.261 201.894,1130.045 202.196,1130.986C202.499,1131.928 202.65,1133.029 202.65,1134.291ZM196.656,1129.041C195.785,1129.041 195.077,1129.332 194.532,1129.914C193.987,1130.496 193.715,1131.387 193.715,1132.586C193.715,1133.566 193.949,1134.342 194.418,1134.912C194.887,1135.482 195.605,1135.768 196.574,1135.768C197.242,1135.768 197.821,1135.628 198.312,1135.349C198.802,1135.069 199.182,1134.716 199.451,1134.288C199.721,1133.86 199.855,1133.422 199.855,1132.973C199.855,1132.516 199.79,1132.057 199.659,1131.596C199.528,1131.135 199.33,1130.712 199.064,1130.327C198.799,1129.942 198.466,1129.632 198.065,1129.396C197.665,1129.159 197.195,1129.041 196.656,1129.041Z" style="fill-rule:nonzero;"/>
        <path d="M188.951,1194.117L177.35,1194.117L177.35,1192.043L181.791,1187.543C182.65,1186.668 183.357,1185.913 183.912,1185.278C184.467,1184.644 184.88,1184.04 185.151,1183.468C185.423,1182.896 185.559,1182.273 185.559,1181.602C185.559,1180.777 185.32,1180.152 184.844,1179.727C184.367,1179.301 183.736,1179.088 182.951,1179.088C182.209,1179.088 181.523,1179.234 180.895,1179.527C180.266,1179.82 179.615,1180.236 178.943,1180.775L177.437,1178.953C177.91,1178.551 178.418,1178.182 178.961,1177.846C179.504,1177.51 180.111,1177.241 180.783,1177.04C181.455,1176.839 182.221,1176.738 183.08,1176.738C184.17,1176.738 185.108,1176.932 185.896,1177.318C186.683,1177.705 187.29,1178.243 187.718,1178.933C188.146,1179.622 188.359,1180.422 188.359,1181.332C188.359,1182.258 188.176,1183.11 187.809,1183.89C187.441,1184.669 186.917,1185.44 186.235,1186.204C185.554,1186.968 184.744,1187.795 183.807,1188.686L180.842,1191.58L180.842,1191.703L188.951,1191.703L188.951,1194.117Z" style="fill-rule:nonzero;"/>
        <path d="M202.674,1185.539C202.674,1186.926 202.567,1188.164 202.354,1189.254C202.142,1190.344 201.804,1191.268 201.341,1192.025C200.878,1192.783 200.275,1193.36 199.533,1193.757C198.791,1194.153 197.895,1194.352 196.844,1194.352C195.52,1194.352 194.429,1194.003 193.571,1193.306C192.714,1192.608 192.077,1191.602 191.661,1190.285C191.245,1188.969 191.037,1187.387 191.037,1185.539C191.037,1183.699 191.227,1182.121 191.605,1180.805C191.984,1179.488 192.6,1178.478 193.451,1177.772C194.303,1177.067 195.434,1176.715 196.844,1176.715C198.172,1176.715 199.267,1177.064 200.128,1177.764C200.989,1178.463 201.629,1179.471 202.047,1180.787C202.465,1182.104 202.674,1183.688 202.674,1185.539ZM193.814,1185.539C193.814,1186.988 193.911,1188.196 194.104,1189.163C194.298,1190.13 194.616,1190.854 195.06,1191.337C195.503,1191.819 196.098,1192.061 196.844,1192.061C197.586,1192.061 198.18,1191.821 198.625,1191.343C199.07,1190.864 199.392,1190.142 199.589,1189.175C199.786,1188.208 199.885,1186.996 199.885,1185.539C199.885,1184.102 199.787,1182.899 199.592,1181.933C199.396,1180.966 199.077,1180.238 198.634,1179.75C198.19,1179.262 197.594,1179.018 196.844,1179.018C196.09,1179.018 195.492,1179.262 195.051,1179.75C194.609,1180.238 194.293,1180.966 194.102,1181.933C193.91,1182.899 193.814,1184.102 193.814,1185.539Z" style="fill-rule:nonzero;"/>
        <path d="M188.951,1244.117L177.35,1244.117L177.35,1242.043L181.791,1237.543C182.65,1236.668 183.357,1235.913 183.912,1235.278C184.467,1234.644 184.88,1234.04 185.151,1233.468C185.423,1232.896 185.559,1232.273 185.559,1231.602C185.559,1230.777 185.32,1230.152 184.844,1229.727C184.367,1229.301 183.736,1229.088 182.951,1229.088C182.209,1229.088 181.523,1229.234 180.895,1229.527C180.266,1229.82 179.615,1230.236 178.943,1230.775L177.437,1228.953C177.91,1228.551 178.418,1228.182 178.961,1227.846C179.504,1227.51 180.111,1227.241 180.783,1227.04C181.455,1226.839 182.221,1226.738 183.08,1226.738C184.17,1226.738 185.108,1226.932 185.896,1227.318C186.683,1227.705 187.29,1228.243 187.718,1228.933C188.146,1229.622 188.359,1230.422 188.359,1231.332C188.359,1232.258 188.176,1233.11 187.809,1233.89C187.441,1234.669 186.917,1235.44 186.235,1236.204C185.554,1236.968 184.744,1237.795 183.807,1238.686L180.842,1241.58L180.842,1241.703L188.951,1241.703L188.951,1244.117Z" style="fill-rule:nonzero;"/>
        <path d="M199.17,1244.117L196.41,1244.117L196.41,1233.09C196.41,1232.723 196.413,1232.355 196.419,1231.988C196.425,1231.621 196.435,1231.262 196.448,1230.91C196.462,1230.559 196.479,1230.225 196.498,1229.908C196.334,1230.084 196.134,1230.277 195.897,1230.488C195.661,1230.699 195.408,1230.918 195.139,1231.145L193.176,1232.721L191.793,1230.969L196.873,1226.984L199.17,1226.984L199.17,1244.117Z" style="fill-rule:nonzero;"/>
        <path d="M188.951,1294.117L177.35,1294.117L177.35,1292.043L181.791,1287.543C182.65,1286.668 183.357,1285.913 183.912,1285.278C184.467,1284.644 184.88,1284.04 185.151,1283.468C185.423,1282.896 185.559,1282.273 185.559,1281.602C185.559,1280.777 185.32,1280.152 184.844,1279.727C184.367,1279.301 183.736,1279.088 182.951,1279.088C182.209,1279.088 181.523,1279.234 180.895,1279.527C180.266,1279.82 179.615,1280.236 178.943,1280.775L177.437,1278.953C177.91,1278.551 178.418,1278.182 178.961,1277.846C179.504,1277.51 180.111,1277.241 180.783,1277.04C181.455,1276.839 182.221,1276.738 183.08,1276.738C184.17,1276.738 185.108,1276.932 185.896,1277.318C186.683,1277.705 187.29,1278.243 187.718,1278.933C188.146,1279.622 188.359,1280.422 188.359,1281.332C188.359,1282.258 188.176,1283.11 187.809,1283.89C187.441,1284.669 186.917,1285.44 186.235,1286.204C185.554,1286.968 184.744,1287.795 183.807,1288.686L180.842,1291.58L180.842,1291.703L188.951,1291.703L188.951,1294.117Z" style="fill-rule:nonzero;"/>
        <path d="M202.674,1294.117L191.072,1294.117L191.072,1292.043L195.514,1287.543C196.373,1286.668 197.08,1285.913 197.635,1285.278C198.189,1284.644 198.603,1284.04 198.874,1283.468C199.146,1282.896 199.281,1282.273 199.281,1281.602C199.281,1280.777 199.043,1280.152 198.566,1279.727C198.09,1279.301 197.459,1279.088 196.674,1279.088C195.932,1279.088 195.246,1279.234 194.617,1279.527C193.988,1279.82 193.338,1280.236 192.666,1280.775L191.16,1278.953C191.633,1278.551 192.141,1278.182 192.684,1277.846C193.227,1277.51 193.834,1277.241 194.506,1277.04C195.178,1276.839 195.943,1276.738 196.803,1276.738C197.893,1276.738 198.831,1276.932 199.618,1277.318C200.405,1277.705 201.013,1278.243 201.44,1278.933C201.868,1279.622 202.082,1280.422 202.082,1281.332C202.082,1282.258 201.898,1283.11 201.531,1283.89C201.164,1284.669 200.64,1285.44 199.958,1286.204C199.276,1286.968 198.467,1287.795 197.529,1288.686L194.564,1291.58L194.564,1291.703L202.674,1291.703L202.674,1294.117Z" style="fill-rule:nonzero;"/>
        <path d="M188.951,1344.117L177.35,1344.117L177.35,1342.043L181.791,1337.543C182.65,1336.668 183.357,1335.913 183.912,1335.278C184.467,1334.644 184.88,1334.04 185.151,1333.468C185.423,1332.896 185.559,1332.273 185.559,1331.602C185.559,1330.777 185.32,1330.152 184.844,1329.727C184.367,1329.301 183.736,1329.088 182.951,1329.088C182.209,1329.088 181.523,1329.234 180.895,1329.527C180.266,1329.82 179.615,1330.236 178.943,1330.775L177.437,1328.953C177.91,1328.551 178.418,1328.182 178.961,1327.846C179.504,1327.51 180.111,1327.241 180.783,1327.04C181.455,1326.839 182.221,1326.738 183.08,1326.738C184.17,1326.738 185.108,1326.932 185.896,1327.318C186.683,1327.705 187.29,1328.243 187.718,1328.933C188.146,1329.622 188.359,1330.422 188.359,1331.332C188.359,1332.258 188.176,1333.11 187.809,1333.89C187.441,1334.669 186.917,1335.44 186.235,1336.204C185.554,1336.968 184.744,1337.795 183.807,1338.686L180.842,1341.58L180.842,1341.703L188.951,1341.703L188.951,1344.117Z" style="fill-rule:nonzero;"/>
        <path d="M202.023,1330.898C202.023,1331.676 201.867,1332.35 201.555,1332.92C201.242,1333.49 200.813,1333.956 200.269,1334.317C199.724,1334.679 199.098,1334.938 198.391,1335.094L198.391,1335.176C199.758,1335.348 200.791,1335.777 201.49,1336.465C202.189,1337.152 202.539,1338.062 202.539,1339.195C202.539,1340.191 202.301,1341.078 201.824,1341.855C201.348,1342.633 200.616,1343.243 199.63,1343.687C198.644,1344.13 197.377,1344.352 195.83,1344.352C194.904,1344.352 194.045,1344.277 193.252,1344.129C192.459,1343.98 191.707,1343.744 190.996,1343.42L190.996,1340.965C191.719,1341.328 192.49,1341.607 193.311,1341.803C194.131,1341.998 194.91,1342.096 195.648,1342.096C197.078,1342.096 198.097,1341.828 198.704,1341.293C199.312,1340.758 199.615,1340.018 199.615,1339.072C199.615,1338.463 199.458,1337.962 199.144,1337.569C198.829,1337.177 198.342,1336.884 197.682,1336.69C197.021,1336.497 196.17,1336.4 195.127,1336.4L193.621,1336.4L193.621,1334.18L195.145,1334.18C196.137,1334.18 196.933,1334.062 197.532,1333.825C198.132,1333.589 198.566,1333.26 198.836,1332.838C199.105,1332.416 199.24,1331.924 199.24,1331.361C199.24,1330.623 199.002,1330.05 198.525,1329.642C198.049,1329.233 197.344,1329.029 196.41,1329.029C195.832,1329.029 195.306,1329.095 194.831,1329.226C194.356,1329.356 193.92,1329.524 193.521,1329.729C193.123,1329.935 192.746,1330.154 192.391,1330.389L191.061,1328.473C191.709,1327.988 192.483,1327.578 193.384,1327.242C194.284,1326.906 195.332,1326.738 196.527,1326.738C198.285,1326.738 199.641,1327.115 200.594,1327.869C201.547,1328.623 202.023,1329.633 202.023,1330.898Z" style="fill-rule:nonzero;"/>
        <path d="M188.951,1394.117L177.35,1394.117L177.35,1392.043L181.791,1387.543C182.65,1386.668 183.357,1385.913 183.912,1385.278C184.467,1384.644 184.88,1384.04 185.151,1383.468C185.423,1382.896 185.559,1382.273 185.559,1381.602C185.559,1380.777 185.32,1380.152 184.844,1379.727C184.367,1379.301 183.736,1379.088 182.951,1379.088C182.209,1379.088 181.523,1379.234 180.895,1379.527C180.266,1379.82 179.615,1380.236 178.943,1380.775L177.437,1378.953C177.91,1378.551 178.418,1378.182 178.961,1377.846C179.504,1377.51 180.111,1377.241 180.783,1377.04C181.455,1376.839 182.221,1376.738 183.08,1376.738C184.17,1376.738 185.108,1376.932 185.896,1377.318C186.683,1377.705 187.29,1378.243 187.718,1378.933C188.146,1379.622 188.359,1380.422 188.359,1381.332C188.359,1382.258 188.176,1383.11 187.809,1383.89C187.441,1384.669 186.917,1385.44 186.235,1386.204C185.554,1386.968 184.744,1387.795 183.807,1388.686L180.842,1391.58L180.842,1391.703L188.951,1391.703L188.951,1394.117Z" style="fill-rule:nonzero;"/>
        <path d="M203.295,1390.355L200.98,1390.355L200.98,1394.117L198.262,1394.117L198.262,1390.355L190.463,1390.355L190.463,1388.275L198.297,1376.938L200.98,1376.938L200.98,1388.07L203.295,1388.07L203.295,1390.355ZM198.262,1388.07L198.262,1383.816C198.262,1383.465 198.267,1383.108 198.276,1382.747C198.286,1382.386 198.299,1382.036 198.314,1381.698C198.33,1381.36 198.389,1380.246 198.396,1380.055L198.303,1380.055C198.154,1380.371 197.991,1380.691 197.813,1381.016C197.636,1381.34 197.443,1381.652 197.236,1381.953L193.023,1388.07L198.262,1388.07Z" style="fill-rule:nonzero;"/>
        <path d="M188.951,1444.117L177.35,1444.117L177.35,1442.043L181.791,1437.543C182.65,1436.668 183.357,1435.913 183.912,1435.278C184.467,1434.644 184.88,1434.04 185.151,1433.468C185.423,1432.896 185.559,1432.273 185.559,1431.602C185.559,1430.777 185.32,1430.152 184.844,1429.727C184.367,1429.301 183.736,1429.088 182.951,1429.088C182.209,1429.088 181.523,1429.234 180.895,1429.527C180.266,1429.82 179.615,1430.236 178.943,1430.775L177.437,1428.953C177.91,1428.551 178.418,1428.182 178.961,1427.846C179.504,1427.51 180.111,1427.241 180.783,1427.04C181.455,1426.839 182.221,1426.738 183.08,1426.738C184.17,1426.738 185.108,1426.932 185.896,1427.318C186.683,1427.705 187.29,1428.243 187.718,1428.933C188.146,1429.622 188.359,1430.422 188.359,1431.332C188.359,1432.258 188.176,1433.11 187.809,1433.89C187.441,1434.669 186.917,1435.44 186.235,1436.204C185.554,1436.968 184.744,1437.795 183.807,1438.686L180.842,1441.58L180.842,1441.703L188.951,1441.703L188.951,1444.117Z" style="fill-rule:nonzero;"/>
        <path d="M196.896,1433.406C198.002,1433.406 198.974,1433.604 199.812,1434.001C200.649,1434.397 201.304,1434.977 201.774,1435.738C202.245,1436.5 202.48,1437.432 202.48,1438.533C202.48,1439.736 202.226,1440.773 201.716,1441.645C201.206,1442.516 200.46,1443.185 199.478,1443.651C198.495,1444.118 197.295,1444.352 195.877,1444.352C194.982,1444.352 194.146,1444.274 193.366,1444.12C192.587,1443.966 191.918,1443.732 191.359,1443.42L191.359,1440.93C191.941,1441.258 192.644,1441.526 193.466,1441.735C194.288,1441.944 195.074,1442.049 195.824,1442.049C196.617,1442.049 197.3,1441.932 197.872,1441.697C198.444,1441.463 198.885,1441.104 199.193,1440.619C199.502,1440.135 199.656,1439.521 199.656,1438.779C199.656,1437.791 199.341,1437.03 198.71,1436.497C198.079,1435.964 197.096,1435.697 195.76,1435.697C195.295,1435.697 194.798,1435.738 194.269,1435.82C193.739,1435.902 193.301,1435.988 192.953,1436.078L191.74,1435.369L192.391,1426.984L201.297,1426.984L201.297,1429.41L194.811,1429.41L194.436,1433.676C194.717,1433.617 195.053,1433.558 195.443,1433.497C195.834,1433.437 196.318,1433.406 196.896,1433.406Z" style="fill-rule:nonzero;"/>
        <path d="M188.951,1494.117L177.35,1494.117L177.35,1492.043L181.791,1487.543C182.65,1486.668 183.357,1485.913 183.912,1485.278C184.467,1484.644 184.88,1484.04 185.151,1483.468C185.423,1482.896 185.559,1482.273 185.559,1481.602C185.559,1480.777 185.32,1480.152 184.844,1479.727C184.367,1479.301 183.736,1479.088 182.951,1479.088C182.209,1479.088 181.523,1479.234 180.895,1479.527C180.266,1479.82 179.615,1480.236 178.943,1480.775L177.437,1478.953C177.91,1478.551 178.418,1478.182 178.961,1477.846C179.504,1477.51 180.111,1477.241 180.783,1477.04C181.455,1476.839 182.221,1476.738 183.08,1476.738C184.17,1476.738 185.108,1476.932 185.896,1477.318C186.683,1477.705 187.29,1478.243 187.718,1478.933C188.146,1479.622 188.359,1480.422 188.359,1481.332C188.359,1482.258 188.176,1483.11 187.809,1483.89C187.441,1484.669 186.917,1485.44 186.235,1486.204C185.554,1486.968 184.744,1487.795 183.807,1488.686L180.842,1491.58L180.842,1491.703L188.951,1491.703L188.951,1494.117Z" style="fill-rule:nonzero;"/>
        <path d="M191.102,1486.816C191.102,1485.809 191.174,1484.817 191.318,1483.843C191.463,1482.868 191.711,1481.955 192.062,1481.104C192.414,1480.252 192.9,1479.501 193.521,1478.851C194.143,1478.2 194.925,1477.689 195.868,1477.318C196.812,1476.947 197.949,1476.762 199.281,1476.762C199.625,1476.762 200.011,1476.777 200.438,1476.809C200.866,1476.84 201.221,1476.891 201.502,1476.961L201.502,1479.246C201.201,1479.16 200.869,1479.095 200.506,1479.05C200.143,1479.005 199.779,1478.982 199.416,1478.982C197.979,1478.982 196.857,1479.254 196.053,1479.797C195.248,1480.34 194.675,1481.082 194.333,1482.023C193.991,1482.965 193.793,1484.039 193.738,1485.246L193.879,1485.246C194.109,1484.859 194.401,1484.513 194.755,1484.206C195.108,1483.899 195.538,1483.655 196.044,1483.474C196.55,1483.292 197.141,1483.201 197.816,1483.201C198.816,1483.201 199.687,1483.409 200.427,1483.825C201.167,1484.241 201.739,1484.844 202.144,1485.633C202.548,1486.422 202.75,1487.381 202.75,1488.51C202.75,1489.717 202.521,1490.758 202.064,1491.633C201.607,1492.508 200.959,1493.18 200.119,1493.648C199.279,1494.117 198.281,1494.352 197.125,1494.352C196.27,1494.352 195.477,1494.196 194.746,1493.886C194.016,1493.575 193.378,1493.107 192.833,1492.482C192.288,1491.857 191.863,1491.074 191.559,1490.133C191.254,1489.191 191.102,1488.086 191.102,1486.816ZM197.078,1492.084C197.965,1492.084 198.68,1491.793 199.223,1491.211C199.766,1490.629 200.037,1489.736 200.037,1488.533C200.037,1487.553 199.798,1486.778 199.319,1486.21C198.841,1485.642 198.119,1485.357 197.154,1485.357C196.498,1485.357 195.925,1485.498 195.435,1485.779C194.944,1486.061 194.564,1486.415 194.295,1486.843C194.025,1487.271 193.891,1487.707 193.891,1488.152C193.891,1488.609 193.956,1489.068 194.087,1489.529C194.218,1489.99 194.416,1490.414 194.682,1490.801C194.947,1491.188 195.28,1491.498 195.681,1491.732C196.081,1491.967 196.547,1492.084 197.078,1492.084Z" style="fill-rule:nonzero;"/>
        <path d="M188.951,1544.117L177.35,1544.117L177.35,1542.043L181.791,1537.543C182.65,1536.668 183.357,1535.913 183.912,1535.278C184.467,1534.644 184.88,1534.04 185.151,1533.468C185.423,1532.896 185.559,1532.273 185.559,1531.602C185.559,1530.777 185.32,1530.152 184.844,1529.727C184.367,1529.301 183.736,1529.088 182.951,1529.088C182.209,1529.088 181.523,1529.234 180.895,1529.527C180.266,1529.82 179.615,1530.236 178.943,1530.775L177.437,1528.953C177.91,1528.551 178.418,1528.182 178.961,1527.846C179.504,1527.51 180.111,1527.241 180.783,1527.04C181.455,1526.839 182.221,1526.738 183.08,1526.738C184.17,1526.738 185.108,1526.932 185.896,1527.318C186.683,1527.705 187.29,1528.243 187.718,1528.933C188.146,1529.622 188.359,1530.422 188.359,1531.332C188.359,1532.258 188.176,1533.11 187.809,1533.89C187.441,1534.669 186.917,1535.44 186.235,1536.204C185.554,1536.968 184.744,1537.795 183.807,1538.686L180.842,1541.58L180.842,1541.703L188.951,1541.703L188.951,1544.117Z" style="fill-rule:nonzero;"/>
        <path d="M193.029,1544.117L199.762,1529.398L190.867,1529.398L190.867,1526.984L202.727,1526.984L202.727,1528.871L195.994,1544.117L193.029,1544.117Z" style="fill-rule:nonzero;"/>
        <path d="M188.951,1594.117L177.35,1594.117L177.35,1592.043L181.791,1587.543C182.65,1586.668 183.357,1585.913 183.912,1585.278C184.467,1584.644 184.88,1584.04 185.151,1583.468C185.423,1582.896 185.559,1582.273 185.559,1581.602C185.559,1580.777 185.32,1580.152 184.844,1579.727C184.367,1579.301 183.736,1579.088 182.951,1579.088C182.209,1579.088 181.523,1579.234 180.895,1579.527C180.266,1579.82 179.615,1580.236 178.943,1580.775L177.437,1578.953C177.91,1578.551 178.418,1578.182 178.961,1577.846C179.504,1577.51 180.111,1577.241 180.783,1577.04C181.455,1576.839 182.221,1576.738 183.08,1576.738C184.17,1576.738 185.108,1576.932 185.896,1577.318C186.683,1577.705 187.29,1578.243 187.718,1578.933C188.146,1579.622 188.359,1580.422 188.359,1581.332C188.359,1582.258 188.176,1583.11 187.809,1583.89C187.441,1584.669 186.917,1585.44 186.235,1586.204C185.554,1586.968 184.744,1587.795 183.807,1588.686L180.842,1591.58L180.842,1591.703L188.951,1591.703L188.951,1594.117Z" style="fill-rule:nonzero;"/>
        <path d="M196.855,1576.75C197.844,1576.75 198.737,1576.904 199.536,1577.213C200.335,1577.521 200.968,1577.98 201.435,1578.59C201.901,1579.199 202.135,1579.955 202.135,1580.857C202.135,1581.549 201.992,1582.153 201.707,1582.671C201.422,1583.188 201.037,1583.641 200.553,1584.027C200.068,1584.414 199.525,1584.756 198.924,1585.053C199.596,1585.381 200.216,1585.757 200.784,1586.181C201.353,1586.604 201.81,1587.102 202.155,1587.672C202.501,1588.242 202.674,1588.912 202.674,1589.682C202.674,1590.639 202.431,1591.467 201.944,1592.166C201.458,1592.865 200.781,1593.404 199.914,1593.783C199.047,1594.162 198.035,1594.352 196.879,1594.352C195.633,1594.352 194.573,1594.169 193.7,1593.804C192.827,1593.438 192.163,1592.914 191.708,1592.23C191.253,1591.547 191.025,1590.727 191.025,1589.77C191.025,1588.984 191.183,1588.302 191.497,1587.722C191.812,1587.142 192.232,1586.642 192.76,1586.222C193.287,1585.802 193.865,1585.445 194.494,1585.152C193.955,1584.836 193.463,1584.477 193.018,1584.074C192.572,1583.672 192.219,1583.206 191.957,1582.677C191.695,1582.147 191.564,1581.535 191.564,1580.84C191.564,1579.953 191.803,1579.206 192.279,1578.599C192.756,1577.991 193.396,1577.531 194.198,1577.219C195.001,1576.906 195.887,1576.75 196.855,1576.75ZM193.656,1589.67C193.656,1590.416 193.921,1591.031 194.45,1591.516C194.979,1592 195.773,1592.242 196.832,1592.242C197.875,1592.242 198.67,1592.004 199.217,1591.527C199.764,1591.051 200.037,1590.424 200.037,1589.646C200.037,1589.143 199.899,1588.7 199.624,1588.319C199.349,1587.938 198.979,1587.597 198.514,1587.294C198.049,1586.991 197.533,1586.713 196.967,1586.459L196.598,1586.301C195.988,1586.562 195.465,1586.854 195.027,1587.177C194.59,1587.499 194.252,1587.863 194.014,1588.27C193.775,1588.676 193.656,1589.143 193.656,1589.67ZM196.832,1578.871C196.074,1578.871 195.451,1579.058 194.963,1579.431C194.475,1579.804 194.23,1580.336 194.23,1581.027C194.23,1581.52 194.35,1581.941 194.588,1582.293C194.826,1582.645 195.147,1582.948 195.552,1583.204C195.956,1583.46 196.404,1583.697 196.896,1583.916C197.373,1583.705 197.805,1583.472 198.191,1583.216C198.578,1582.96 198.887,1582.654 199.117,1582.299C199.348,1581.943 199.463,1581.518 199.463,1581.021C199.463,1580.33 199.219,1579.799 198.73,1579.428C198.242,1579.057 197.609,1578.871 196.832,1578.871Z" style="fill-rule:nonzero;"/>
        <path d="M188.951,1644.117L177.35,1644.117L177.35,1642.043L181.791,1637.543C182.65,1636.668 183.357,1635.913 183.912,1635.278C184.467,1634.644 184.88,1634.04 185.151,1633.468C185.423,1632.896 185.559,1632.273 185.559,1631.602C185.559,1630.777 185.32,1630.152 184.844,1629.727C184.367,1629.301 183.736,1629.088 182.951,1629.088C182.209,1629.088 181.523,1629.234 180.895,1629.527C180.266,1629.82 179.615,1630.236 178.943,1630.775L177.437,1628.953C177.91,1628.551 178.418,1628.182 178.961,1627.846C179.504,1627.51 180.111,1627.241 180.783,1627.04C181.455,1626.839 182.221,1626.738 183.08,1626.738C184.17,1626.738 185.108,1626.932 185.896,1627.318C186.683,1627.705 187.29,1628.243 187.718,1628.933C188.146,1629.622 188.359,1630.422 188.359,1631.332C188.359,1632.258 188.176,1633.11 187.809,1633.89C187.441,1634.669 186.917,1635.44 186.235,1636.204C185.554,1636.968 184.744,1637.795 183.807,1638.686L180.842,1641.58L180.842,1641.703L188.951,1641.703L188.951,1644.117Z" style="fill-rule:nonzero;"/>
        <path d="M202.65,1634.291C202.65,1635.303 202.578,1636.297 202.434,1637.273C202.289,1638.25 202.04,1639.165 201.687,1640.019C201.333,1640.872 200.846,1641.624 200.225,1642.274C199.604,1642.925 198.819,1643.435 197.872,1643.804C196.925,1644.173 195.785,1644.357 194.453,1644.357C194.117,1644.357 193.729,1644.34 193.287,1644.305C192.846,1644.27 192.482,1644.219 192.197,1644.152L192.197,1641.855C192.498,1641.945 192.834,1642.016 193.205,1642.066C193.576,1642.117 193.945,1642.143 194.312,1642.143C195.758,1642.143 196.884,1641.872 197.69,1641.331C198.497,1640.79 199.071,1640.048 199.413,1639.104C199.755,1638.161 199.949,1637.088 199.996,1635.885L199.855,1635.885C199.625,1636.26 199.338,1636.602 198.994,1636.91C198.65,1637.219 198.225,1637.465 197.717,1637.648C197.209,1637.832 196.592,1637.924 195.865,1637.924C194.881,1637.924 194.023,1637.716 193.293,1637.3C192.562,1636.884 191.996,1636.28 191.594,1635.489C191.191,1634.698 190.99,1633.742 190.99,1632.621C190.99,1631.41 191.221,1630.367 191.682,1629.492C192.143,1628.617 192.795,1627.943 193.639,1627.471C194.482,1626.998 195.477,1626.762 196.621,1626.762C197.48,1626.762 198.275,1626.917 199.006,1627.228C199.736,1627.538 200.375,1628.007 200.922,1628.634C201.469,1629.261 201.894,1630.045 202.196,1630.986C202.499,1631.928 202.65,1633.029 202.65,1634.291ZM196.656,1629.041C195.785,1629.041 195.077,1629.332 194.532,1629.914C193.987,1630.496 193.715,1631.387 193.715,1632.586C193.715,1633.566 193.949,1634.342 194.418,1634.912C194.887,1635.482 195.605,1635.768 196.574,1635.768C197.242,1635.768 197.821,1635.628 198.312,1635.349C198.802,1635.069 199.182,1634.716 199.451,1634.288C199.721,1633.86 199.855,1633.422 199.855,1632.973C199.855,1632.516 199.79,1632.057 199.659,1631.596C199.528,1631.135 199.33,1630.712 199.064,1630.327C198.799,1629.942 198.466,1629.632 198.065,1629.396C197.665,1629.159 197.195,1629.041 196.656,1629.041Z" style="fill-rule:nonzero;"/>
        <path d="M188.301,1680.898C188.301,1681.676 188.145,1682.35 187.832,1682.92C187.52,1683.49 187.091,1683.956 186.546,1684.317C186.001,1684.679 185.375,1684.938 184.668,1685.094L184.668,1685.176C186.035,1685.348 187.068,1685.777 187.768,1686.465C188.467,1687.152 188.816,1688.062 188.816,1689.195C188.816,1690.191 188.578,1691.078 188.102,1691.855C187.625,1692.633 186.894,1693.243 185.907,1693.687C184.921,1694.13 183.654,1694.352 182.107,1694.352C181.182,1694.352 180.322,1694.277 179.529,1694.129C178.736,1693.98 177.984,1693.744 177.273,1693.42L177.273,1690.965C177.996,1691.328 178.768,1691.607 179.588,1691.803C180.408,1691.998 181.187,1692.096 181.926,1692.096C183.355,1692.096 184.374,1691.828 184.981,1691.293C185.589,1690.758 185.893,1690.018 185.893,1689.072C185.893,1688.463 185.735,1687.962 185.421,1687.569C185.106,1687.177 184.619,1686.884 183.959,1686.69C183.299,1686.497 182.447,1686.4 181.404,1686.4L179.898,1686.4L179.898,1684.18L181.422,1684.18C182.414,1684.18 183.21,1684.062 183.81,1683.825C184.409,1683.589 184.844,1683.26 185.113,1682.838C185.383,1682.416 185.518,1681.924 185.518,1681.361C185.518,1680.623 185.279,1680.05 184.803,1679.642C184.326,1679.233 183.621,1679.029 182.687,1679.029C182.109,1679.029 181.583,1679.095 181.108,1679.226C180.634,1679.356 180.197,1679.524 179.799,1679.729C179.4,1679.935 179.023,1680.154 178.668,1680.389L177.338,1678.473C177.986,1677.988 178.761,1677.578 179.661,1677.242C180.562,1676.906 181.609,1676.738 182.805,1676.738C184.562,1676.738 185.918,1677.115 186.871,1677.869C187.824,1678.623 188.301,1679.633 188.301,1680.898Z" style="fill-rule:nonzero;"/>
        <path d="M202.674,1685.539C202.674,1686.926 202.567,1688.164 202.354,1689.254C202.142,1690.344 201.804,1691.268 201.341,1692.025C200.878,1692.783 200.275,1693.36 199.533,1693.757C198.791,1694.153 197.895,1694.352 196.844,1694.352C195.52,1694.352 194.429,1694.003 193.571,1693.306C192.714,1692.608 192.077,1691.602 191.661,1690.285C191.245,1688.969 191.037,1687.387 191.037,1685.539C191.037,1683.699 191.227,1682.121 191.605,1680.805C191.984,1679.488 192.6,1678.478 193.451,1677.772C194.303,1677.067 195.434,1676.715 196.844,1676.715C198.172,1676.715 199.267,1677.064 200.128,1677.764C200.989,1678.463 201.629,1679.471 202.047,1680.787C202.465,1682.104 202.674,1683.688 202.674,1685.539ZM193.814,1685.539C193.814,1686.988 193.911,1688.196 194.104,1689.163C194.298,1690.13 194.616,1690.854 195.06,1691.337C195.503,1691.819 196.098,1692.061 196.844,1692.061C197.586,1692.061 198.18,1691.821 198.625,1691.343C199.07,1690.864 199.392,1690.142 199.589,1689.175C199.786,1688.208 199.885,1686.996 199.885,1685.539C199.885,1684.102 199.787,1682.899 199.592,1681.933C199.396,1680.966 199.077,1680.238 198.634,1679.75C198.19,1679.262 197.594,1679.018 196.844,1679.018C196.09,1679.018 195.492,1679.262 195.051,1679.75C194.609,1680.238 194.293,1680.966 194.102,1681.933C193.91,1682.899 193.814,1684.102 193.814,1685.539Z" style="fill-rule:nonzero;"/>
        <path d="M188.301,1729.898C188.301,1730.676 188.145,1731.35 187.832,1731.92C187.52,1732.49 187.091,1732.956 186.546,1733.317C186.001,1733.679 185.375,1733.938 184.668,1734.094L184.668,1734.176C186.035,1734.348 187.068,1734.777 187.768,1735.465C188.467,1736.152 188.816,1737.062 188.816,1738.195C188.816,1739.191 188.578,1740.078 188.102,1740.855C187.625,1741.633 186.894,1742.243 185.907,1742.687C184.921,1743.13 183.654,1743.352 182.107,1743.352C181.182,1743.352 180.322,1743.277 179.529,1743.129C178.736,1742.98 177.984,1742.744 177.273,1742.42L177.273,1739.965C177.996,1740.328 178.768,1740.607 179.588,1740.803C180.408,1740.998 181.187,1741.096 181.926,1741.096C183.355,1741.096 184.374,1740.828 184.981,1740.293C185.589,1739.758 185.893,1739.018 185.893,1738.072C185.893,1737.463 185.735,1736.962 185.421,1736.569C185.106,1736.177 184.619,1735.884 183.959,1735.69C183.299,1735.497 182.447,1735.4 181.404,1735.4L179.898,1735.4L179.898,1733.18L181.422,1733.18C182.414,1733.18 183.21,1733.062 183.81,1732.825C184.409,1732.589 184.844,1732.26 185.113,1731.838C185.383,1731.416 185.518,1730.924 185.518,1730.361C185.518,1729.623 185.279,1729.05 184.803,1728.642C184.326,1728.233 183.621,1728.029 182.687,1728.029C182.109,1728.029 181.583,1728.095 181.108,1728.226C180.634,1728.356 180.197,1728.524 179.799,1728.729C179.4,1728.935 179.023,1729.154 178.668,1729.389L177.338,1727.473C177.986,1726.988 178.761,1726.578 179.661,1726.242C180.562,1725.906 181.609,1725.738 182.805,1725.738C184.562,1725.738 185.918,1726.115 186.871,1726.869C187.824,1727.623 188.301,1728.633 188.301,1729.898Z" style="fill-rule:nonzero;"/>
        <path d="M199.17,1743.117L196.41,1743.117L196.41,1732.09C196.41,1731.723 196.413,1731.355 196.419,1730.988C196.425,1730.621 196.435,1730.262 196.448,1729.91C196.462,1729.559 196.479,1729.225 196.498,1728.908C196.334,1729.084 196.134,1729.277 195.897,1729.488C195.661,1729.699 195.408,1729.918 195.139,1730.145L193.176,1731.721L191.793,1729.969L196.873,1725.984L199.17,1725.984L199.17,1743.117Z" style="fill-rule:nonzero;"/>
    </g>
    <path d="M215,2510L215,10" style="fill:none;stroke:#000;stroke-width:3px;"/>
    <path d="M165,2510L165,10" style="fill:none;stroke:#000;stroke-width:2px;"/>
    <path d="M265,2510L265,210" style="fill:none;stroke:#000;stroke-width:2px;"/>
    <path d="M315,2510L315,210" style="fill:none;stroke:#000;stroke-width:2px;"/>
    <path d="M365,2510L365,210" style="fill:none;stroke:#000;stroke-width:2px;"/>
    <path d="M415,2510L415,210" style="fill:none;stroke:#000;stroke-width:2px;"/>
    <path d="M465,2510L465,210" style="fill:none;stroke:#000;stroke-width:2px;"/>
    <path d="M515,2510L515,210" style="fill:none;stroke:#000;stroke-width:2px;"/>
    <path d="M565,2510L565,210" style="fill:none;stroke:#000;stroke-width:2px;"/>
    <path d="M615,2510L615,210" style="fill:none;stroke:#000;stroke-width:2px;"/>
    <path d="M665,2510L665,210" style="fill:none;stroke:#000;stroke-width:2px;"/>
    <path d="M715,2510L715,210" style="fill:none;stroke:#000;stroke-width:3px;"/>
    <path d="M765,2510L765,210" style="fill:none;stroke:#000;stroke-width:2px;"/>
    <path d="M815,2510L815,210" style="fill:none;stroke:#000;stroke-width:3px;"/>
    <path d="M865,2510L865,210" style="fill:none;stroke:#000;stroke-width:2px;"/>
    <path d="M915,2510L915,210" style="fill:none;stroke:#000;stroke-width:2px;"/>
    <path d="M965,2510L965,210" style="fill:none;stroke:#000;stroke-width:2px;"/>
    <path d="M1015,2510L1015,210" style="fill:none;stroke:#000;stroke-width:2px;"/>
    <path d="M1065,2510L1065,210" style="fill:none;stroke:#000;stroke-width:2px;"/>
    <path d="M1115,2510L1115,210" style="fill:none;stroke:#000;stroke-width:2px;"/>
    <path d="M1165,2510L1165,210" style="fill:none;stroke:#000;stroke-width:2px;"/>
    <path d="M1215,2510L1215,210" style="fill:none;stroke:#000;stroke-width:2px;"/>
    <path d="M1265,2510L1265,210" style="fill:none;stroke:#000;stroke-width:2px;"/>
    <path d="M1315,2510L1315,210" style="fill:none;stroke:#000;stroke-width:2px;"/>
    <path d="M1365,2510L1365,210" style="fill:none;stroke:#000;stroke-width:2px;"/>
</svg>
