<?xml version="1.0" encoding="UTF-8" standalone="no"?>
<!DOCTYPE svg PUBLIC "-//W3C//DTD SVG 1.1//EN" "http://www.w3.org/Graphics/SVG/1.1/DTD/svg11.dtd">
<svg width="100%" height="100%" viewBox="0 0 1880 2520" version="1.1" xmlns="http://www.w3.org/2000/svg" xmlns:xlink="http://www.w3.org/1999/xlink" xml:space="preserve" xmlns:serif="http://www.serif.com/" style="fill-rule:evenodd;clip-rule:evenodd;stroke-linecap:round;stroke-linejoin:round;stroke-miterlimit:1.5;">
    <rect id="month" x="0" y="0" width="1880" height="2520" style="fill:none;"/>
    <g id="Layer1">
        <path d="M1865,20L1865,2500C1865,2505.519 1860.519,2510 1855,2510L125,2510C119.481,2510 115,2505.519 115,2500L115,20C115,14.481 119.481,10 125,10L1855,10C1860.519,10 1865,14.481 1865,20Z" style="fill:none;stroke:#000;stroke-width:3px;"/>
        <path d="M115,210L1865,210" style="fill:none;stroke:#000;stroke-width:3px;"/>
        <path d="M115,260L1865,260" style="fill:none;stroke:#000;stroke-width:2px;"/>
        <path d="M115,310L1865,310" style="fill:none;stroke:#000;stroke-width:2px;"/>
        <path d="M115,360L1865,360" style="fill:none;stroke:#000;stroke-width:2px;"/>
        <path d="M115,410L1865,410" style="fill:none;stroke:#000;stroke-width:2px;"/>
        <path d="M115,460L1865,460" style="fill:none;stroke:#000;stroke-width:2px;"/>
        <path d="M115,510L1865,510" style="fill:none;stroke:#000;stroke-width:2px;"/>
        <path d="M115,560L1865,560" style="fill:none;stroke:#000;stroke-width:2px;"/>
        <path d="M115,610L1865,610" style="fill:none;stroke:#000;stroke-width:2px;"/>
        <path d="M115,660L1865,660" style="fill:none;stroke:#000;stroke-width:2px;"/>
        <path d="M115,710L1865,710" style="fill:none;stroke:#000;stroke-width:2px;"/>
        <path d="M115,760L1865,760" style="fill:none;stroke:#000;stroke-width:2px;"/>
        <path d="M115,810L1865,810" style="fill:none;stroke:#000;stroke-width:2px;"/>
        <path d="M115,860L1865,860" style="fill:none;stroke:#000;stroke-width:2px;"/>
        <path d="M115,910L1865,910" style="fill:none;stroke:#000;stroke-width:2px;"/>
        <path d="M115,960L1865,960" style="fill:none;stroke:#000;stroke-width:2px;"/>
        <path d="M115,1010L1865,1010" style="fill:none;stroke:#000;stroke-width:2px;"/>
        <path d="M115,1060L1865,1060" style="fill:none;stroke:#000;stroke-width:2px;"/>
        <path d="M115,1110L1865,1110" style="fill:none;stroke:#000;stroke-width:2px;"/>
        <path d="M115,1160L1865,1160" style="fill:none;stroke:#000;stroke-width:2px;"/>
        <path d="M115,1210L1865,1210" style="fill:none;stroke:#000;stroke-width:2px;"/>
        <path d="M115,1260L1865,1260" style="fill:none;stroke:#000;stroke-width:2px;"/>
        <path d="M115,1310L1865,1310" style="fill:none;stroke:#000;stroke-width:2px;"/>
        <path d="M115,1360L1865,1360" style="fill:none;stroke:#000;stroke-width:2px;"/>
        <path d="M115,1410L1865,1410" style="fill:none;stroke:#000;stroke-width:2px;"/>
        <path d="M115,1460L1865,1460" style="fill:none;stroke:#000;stroke-width:2px;"/>
        <path d="M115,1510L1865,1510" style="fill:none;stroke:#000;stroke-width:2px;"/>
        <path d="M115,1560L1865,1560" style="fill:none;stroke:#000;stroke-width:2px;"/>
        <path d="M115,1610L1865,1610" style="fill:none;stroke:#000;stroke-width:2px;"/>
        <path d="M115,1660L1865,1660" style="fill:none;stroke:#000;stroke-width:2px;"/>
        <path d="M115,1710L1865,1710" style="fill:none;stroke:#000;stroke-width:2px;"/>
        <path d="M115,1759L1865,1759" style="fill:none;stroke:#000;stroke-width:2px;"/>
        <path d="M1515,10L1465,210L1465,2510" style="fill:none;stroke:#000;stroke-width:2px;"/>
        <path d="M1465,10L1415,210L1415,2510" style="fill:none;stroke:#000;stroke-width:3px;"/>
        <path d="M1565,10L1515,210L1515,2510" style="fill:none;stroke:#000;stroke-width:2px;"/>
        <path d="M1615,10L1565,210L1565,2510" style="fill:none;stroke:#000;stroke-width:2px;"/>
        <path d="M1665,10L1615,210L1615,2510" style="fill:none;stroke:#000;stroke-width:2px;"/>
        <path d="M1715,10L1665,210L1665,2510" style="fill:none;stroke:#000;stroke-width:2px;"/>
        <path d="M1765,10L1715,210L1715,2510" style="fill:none;stroke:#000;stroke-width:2px;"/>
        <path d="M234.45,195.419L232.552,195.419L232.552,187.254C232.552,186.99 232.554,186.728 232.559,186.467C232.563,186.206 232.57,185.945 232.581,185.683C232.591,185.42 232.602,185.16 232.614,184.903C232.534,185.014 232.435,185.14 232.315,185.281C232.195,185.421 232.048,185.581 231.875,185.76L230.746,186.889L229.63,185.746L232.781,182.569L234.45,182.569L234.45,195.419Z" style="fill:#808080;fill-rule:nonzero;"/>
        <path d="M243.85,195.419L237.254,195.419L237.254,194.03L239.759,190.44C240.272,189.707 240.669,189.087 240.952,188.579C241.235,188.07 241.432,187.604 241.543,187.179C241.655,186.754 241.71,186.304 241.71,185.83C241.71,185.291 241.581,184.864 241.323,184.549C241.066,184.234 240.691,184.076 240.198,184.076C239.844,184.076 239.515,184.154 239.212,184.309C238.909,184.465 238.584,184.733 238.239,185.114L237.289,183.83C237.615,183.482 237.936,183.201 238.254,182.989C238.572,182.776 238.906,182.623 239.256,182.527C239.606,182.432 239.986,182.385 240.396,182.385C241.052,182.385 241.623,182.524 242.108,182.804C242.593,183.084 242.967,183.474 243.231,183.975C243.494,184.476 243.626,185.061 243.626,185.729C243.626,186.356 243.553,186.941 243.406,187.484C243.26,188.028 243.026,188.58 242.706,189.141C242.385,189.702 241.962,190.325 241.438,191.011L239.513,193.652L239.513,193.727L243.85,193.727L243.85,195.419Z" style="fill:#808080;fill-rule:nonzero;"/>
        <path d="M248.834,185.491C249.757,185.491 250.438,185.781 250.879,186.359C251.32,186.938 251.541,187.788 251.541,188.91L251.541,195.419L250.17,195.419L249.88,194.074L249.836,194.074C249.66,194.405 249.463,194.684 249.245,194.911C249.026,195.138 248.778,195.309 248.5,195.423C248.221,195.537 247.898,195.594 247.529,195.594C247.007,195.594 246.583,195.455 246.256,195.177C245.93,194.899 245.69,194.535 245.538,194.085C245.385,193.635 245.309,193.154 245.309,192.641C245.309,191.651 245.589,190.892 246.149,190.365C246.708,189.838 247.504,189.552 248.535,189.508L249.695,189.447L249.695,188.919C249.695,188.263 249.601,187.779 249.412,187.467C249.223,187.155 248.916,186.999 248.491,186.999C248.216,186.999 247.92,187.05 247.605,187.153C247.291,187.255 246.947,187.416 246.575,187.636L246.034,186.252C246.439,186 246.877,185.81 247.351,185.683C247.824,185.555 248.318,185.491 248.834,185.491ZM249.704,190.725L248.926,190.774C248.337,190.806 247.899,190.971 247.612,191.27C247.325,191.569 247.181,192.003 247.181,192.571C247.181,193.093 247.273,193.479 247.456,193.731C247.639,193.983 247.898,194.109 248.232,194.109C248.683,194.109 249.041,193.891 249.306,193.454C249.571,193.018 249.704,192.422 249.704,191.666L249.704,190.725Z" style="fill:#808080;fill-rule:nonzero;"/>
        <path d="M288.476,195.419L286.577,195.419L286.577,187.254C286.577,186.99 286.58,186.728 286.584,186.467C286.588,186.206 286.596,185.945 286.606,185.683C286.616,185.42 286.627,185.16 286.639,184.903C286.56,185.014 286.46,185.14 286.34,185.281C286.22,185.421 286.073,185.581 285.901,185.76L284.771,186.889L283.655,185.746L286.806,182.569L288.476,182.569L288.476,195.419Z" style="fill:#808080;fill-rule:nonzero;"/>
        <path d="M294.808,185.491C295.731,185.491 296.413,185.781 296.854,186.359C297.295,186.938 297.515,187.788 297.515,188.91L297.515,195.419L296.144,195.419L295.854,194.074L295.81,194.074C295.635,194.405 295.438,194.684 295.219,194.911C295.001,195.138 294.753,195.309 294.474,195.423C294.196,195.537 293.872,195.594 293.503,195.594C292.982,195.594 292.558,195.455 292.231,195.177C291.904,194.899 291.665,194.535 291.512,194.085C291.36,193.635 291.284,193.154 291.284,192.641C291.284,191.651 291.564,190.892 292.123,190.365C292.683,189.838 293.478,189.552 294.51,189.508L295.67,189.447L295.67,188.919C295.67,188.263 295.575,187.779 295.386,187.467C295.197,187.155 294.89,186.999 294.466,186.999C294.19,186.999 293.895,187.05 293.58,187.153C293.265,187.255 292.922,187.416 292.55,187.636L292.009,186.252C292.413,186 292.852,185.81 293.325,185.683C293.798,185.555 294.293,185.491 294.808,185.491ZM295.678,190.725L294.901,190.774C294.312,190.806 293.874,190.971 293.587,191.27C293.3,191.569 293.156,192.003 293.156,192.571C293.156,193.093 293.248,193.479 293.431,193.731C293.614,193.983 293.872,194.109 294.206,194.109C294.657,194.109 295.016,193.891 295.281,193.454C295.546,193.018 295.678,192.422 295.678,191.666L295.678,190.725Z" style="fill:#808080;fill-rule:nonzero;"/>
        <path d="M343.76,195.236L337.164,195.236L337.164,193.847L339.669,190.257C340.182,189.524 340.579,188.904 340.862,188.396C341.145,187.887 341.342,187.421 341.453,186.996C341.564,186.571 341.62,186.121 341.62,185.647C341.62,185.108 341.491,184.681 341.233,184.366C340.976,184.051 340.601,183.893 340.108,183.893C339.754,183.893 339.425,183.971 339.122,184.126C338.819,184.281 338.494,184.55 338.148,184.93L337.199,183.647C337.524,183.299 337.846,183.018 338.164,182.806C338.482,182.593 338.816,182.439 339.166,182.344C339.516,182.249 339.896,182.201 340.306,182.201C340.962,182.201 341.533,182.341 342.018,182.621C342.503,182.901 342.877,183.291 343.141,183.792C343.404,184.293 343.536,184.878 343.536,185.546C343.536,186.173 343.463,186.758 343.316,187.301C343.17,187.845 342.936,188.397 342.615,188.958C342.295,189.519 341.872,190.142 341.348,190.828L339.423,193.469L339.423,193.544L343.76,193.544L343.76,195.236Z" style="fill:#808080;fill-rule:nonzero;"/>
        <path d="M393.584,185.396C393.584,185.885 393.502,186.332 393.338,186.737C393.174,187.141 392.933,187.491 392.613,187.787C392.294,188.083 391.901,188.316 391.436,188.486L391.436,188.547C392.212,188.714 392.802,189.065 393.207,189.6C393.611,190.134 393.813,190.826 393.813,191.676C393.813,192.426 393.664,193.082 393.365,193.643C393.066,194.204 392.635,194.639 392.071,194.948C391.507,195.257 390.826,195.411 390.029,195.411C389.493,195.411 389.006,195.37 388.568,195.286C388.13,195.203 387.688,195.057 387.243,194.849L387.243,193.021C387.65,193.261 388.071,193.445 388.504,193.572C388.938,193.7 389.364,193.763 389.783,193.763C390.48,193.763 390.995,193.566 391.326,193.172C391.657,192.778 391.822,192.25 391.822,191.588C391.822,191.105 391.731,190.703 391.548,190.384C391.365,190.065 391.087,189.826 390.715,189.668C390.343,189.51 389.871,189.43 389.3,189.43L388.649,189.43L388.649,187.809L389.335,187.809C389.836,187.809 390.263,187.719 390.616,187.539C390.969,187.358 391.239,187.103 391.425,186.772C391.611,186.441 391.704,186.051 391.704,185.603C391.704,185.043 391.565,184.613 391.288,184.311C391.011,184.009 390.614,183.858 390.095,183.858C389.837,183.858 389.594,183.892 389.366,183.959C389.137,184.027 388.914,184.125 388.696,184.256C388.477,184.386 388.254,184.55 388.025,184.746L387.212,183.379C387.702,182.954 388.199,182.652 388.704,182.472C389.21,182.292 389.78,182.201 390.416,182.201C391.395,182.201 392.167,182.481 392.734,183.041C393.301,183.6 393.584,184.385 393.584,185.396Z" style="fill:#808080;fill-rule:nonzero;"/>
        <path d="M444.415,192.515L443.083,192.515L443.083,195.236L441.211,195.236L441.211,192.515L436.9,192.515L436.9,190.973L441.146,182.316L443.083,182.316L443.083,190.925L444.415,190.925L444.415,192.515ZM441.203,190.925L441.203,186.846C441.203,186.735 441.205,186.589 441.209,186.409C441.214,186.229 441.219,186.041 441.225,185.844C441.23,185.648 441.236,185.467 441.242,185.3C441.248,185.133 441.254,185.004 441.26,184.913L441.194,184.913C441.109,185.182 441.016,185.44 440.915,185.686C440.814,185.932 440.71,186.168 440.605,186.394L438.5,190.925L441.203,190.925Z" style="fill:#808080;fill-rule:nonzero;"/>
        <path d="M490.737,187.185C491.375,187.185 491.927,187.348 492.391,187.675C492.856,188.001 493.215,188.456 493.468,189.037C493.721,189.619 493.848,190.293 493.848,191.061C493.848,191.946 493.702,192.714 493.411,193.366C493.119,194.018 492.687,194.521 492.112,194.877C491.538,195.233 490.822,195.411 489.963,195.411C489.457,195.411 488.997,195.364 488.586,195.269C488.174,195.173 487.804,195.031 487.476,194.84L487.476,193.021C487.831,193.24 488.213,193.419 488.623,193.557C489.033,193.695 489.436,193.763 489.832,193.763C490.3,193.763 490.688,193.647 490.994,193.414C491.3,193.181 491.529,192.866 491.682,192.469C491.834,192.072 491.91,191.625 491.91,191.127C491.91,190.371 491.739,189.795 491.396,189.4C491.053,189.004 490.555,188.806 489.902,188.806C489.638,188.806 489.372,188.833 489.102,188.885C488.833,188.938 488.562,189.011 488.289,189.105L487.608,188.534L487.99,182.386L493.176,182.386L493.176,184.087L489.585,184.087L489.366,187.352C489.618,187.29 489.859,187.247 490.089,187.222C490.319,187.197 490.535,187.185 490.737,187.185Z" style="fill:#808080;fill-rule:nonzero;"/>
        <path d="M537.331,189.773C537.331,188.865 537.381,188.022 537.48,187.244C537.58,186.466 537.738,185.768 537.953,185.148C538.168,184.528 538.452,183.999 538.803,183.559C539.155,183.12 539.58,182.784 540.08,182.553C540.579,182.322 541.165,182.206 541.835,182.206C542.105,182.206 542.366,182.22 542.618,182.25C542.87,182.279 543.105,182.324 543.325,182.386L543.325,184.038C543.12,183.98 542.903,183.934 542.675,183.902C542.446,183.87 542.206,183.854 541.954,183.854C541.362,183.854 540.862,184.023 540.453,184.361C540.045,184.7 539.73,185.209 539.511,185.891C539.291,186.572 539.165,187.429 539.133,188.464L539.203,188.464C539.332,188.156 539.493,187.892 539.687,187.673C539.88,187.453 540.107,187.283 540.368,187.163C540.628,187.043 540.918,186.983 541.238,186.983C541.838,186.983 542.34,187.159 542.743,187.512C543.146,187.865 543.45,188.349 543.657,188.962C543.864,189.576 543.967,190.281 543.967,191.078C543.967,191.922 543.844,192.671 543.6,193.324C543.355,193.977 542.994,194.489 542.517,194.86C542.039,195.23 541.45,195.416 540.75,195.416C540.205,195.416 539.72,195.291 539.295,195.042C538.871,194.793 538.512,194.428 538.219,193.948C537.926,193.468 537.705,192.877 537.555,192.177C537.406,191.477 537.331,190.676 537.331,189.773ZM540.71,193.741C541.135,193.741 541.468,193.525 541.708,193.091C541.948,192.657 542.068,192 542.068,191.118C542.068,190.303 541.957,189.686 541.734,189.266C541.512,188.845 541.176,188.635 540.728,188.635C540.415,188.635 540.149,188.729 539.93,188.916C539.712,189.104 539.547,189.352 539.434,189.661C539.321,189.97 539.265,190.311 539.265,190.683C539.265,191.029 539.291,191.38 539.344,191.738C539.396,192.095 539.48,192.425 539.594,192.729C539.708,193.032 539.858,193.276 540.042,193.462C540.227,193.648 540.45,193.741 540.71,193.741Z" style="fill:#808080;fill-rule:nonzero;"/>
        <path d="M588.223,195.236L592.046,184.091L587.195,184.091L587.195,182.386L593.984,182.386L593.984,183.74L590.231,195.236L588.223,195.236Z" style="fill:#808080;fill-rule:nonzero;"/>
        <path d="M640.636,182.201C641.295,182.201 641.857,182.324 642.321,182.571C642.785,182.817 643.141,183.165 643.387,183.616C643.633,184.068 643.756,184.607 643.756,185.234C643.756,185.705 643.686,186.139 643.545,186.534C643.404,186.93 643.191,187.29 642.906,187.615C642.62,187.941 642.257,188.235 641.818,188.499C642.292,188.821 642.696,189.152 643.029,189.492C643.361,189.832 643.615,190.201 643.791,190.599C643.967,190.998 644.055,191.445 644.055,191.94C644.055,192.64 643.917,193.25 643.642,193.77C643.366,194.29 642.974,194.694 642.466,194.981C641.958,195.268 641.356,195.411 640.662,195.411C639.924,195.411 639.295,195.274 638.775,194.998C638.255,194.723 637.859,194.33 637.588,193.821C637.317,193.311 637.182,192.707 637.182,192.01C637.182,191.515 637.256,191.059 637.406,190.643C637.555,190.227 637.784,189.844 638.091,189.494C638.399,189.144 638.787,188.82 639.256,188.521C638.86,188.213 638.532,187.888 638.271,187.545C638.011,187.202 637.817,186.84 637.689,186.458C637.562,186.075 637.498,185.67 637.498,185.242C637.498,184.618 637.626,184.079 637.883,183.625C638.139,183.171 638.502,182.82 638.972,182.573C639.443,182.325 639.997,182.201 640.636,182.201ZM639.032,191.997C639.032,192.545 639.168,192.991 639.44,193.337C639.713,193.683 640.103,193.856 640.609,193.856C641.143,193.856 641.543,193.681 641.811,193.333C642.079,192.984 642.213,192.524 642.213,191.953C642.213,191.68 642.168,191.415 642.077,191.157C641.986,190.9 641.839,190.646 641.635,190.397C641.432,190.148 641.16,189.899 640.82,189.65L640.517,189.426C640.163,189.669 639.876,189.918 639.658,190.173C639.44,190.428 639.281,190.703 639.181,190.999C639.082,191.295 639.032,191.628 639.032,191.997ZM640.623,183.761C640.23,183.761 639.915,183.906 639.678,184.194C639.44,184.483 639.322,184.878 639.322,185.379C639.322,185.689 639.37,185.971 639.467,186.225C639.563,186.478 639.707,186.714 639.897,186.932C640.088,187.15 640.325,187.362 640.609,187.567C640.929,187.35 641.186,187.131 641.381,186.908C641.575,186.685 641.718,186.449 641.807,186.2C641.896,185.951 641.941,185.677 641.941,185.379C641.941,184.878 641.823,184.483 641.587,184.194C641.351,183.906 641.03,183.761 640.623,183.761Z" style="fill:#808080;fill-rule:nonzero;"/>
        <path d="M693.866,187.76C693.866,188.689 693.812,189.548 693.705,190.338C693.598,191.127 693.432,191.835 693.207,192.46C692.981,193.086 692.69,193.618 692.334,194.056C691.978,194.494 691.552,194.829 691.055,195.062C690.559,195.295 689.987,195.411 689.339,195.411C689.09,195.411 688.827,195.394 688.548,195.359C688.27,195.323 688.027,195.281 687.819,195.231L687.819,193.561C688.021,193.629 688.24,193.681 688.476,193.717C688.712,193.754 688.961,193.772 689.225,193.772C689.884,193.772 690.417,193.57 690.825,193.166C691.232,192.761 691.535,192.211 691.734,191.516C691.934,190.82 692.046,190.035 692.073,189.162L691.994,189.162C691.865,189.464 691.703,189.726 691.508,189.947C691.313,190.168 691.087,190.339 690.829,190.459C690.571,190.579 690.283,190.639 689.963,190.639C689.357,190.639 688.851,190.463 688.445,190.112C688.039,189.76 687.736,189.275 687.535,188.657C687.335,188.039 687.234,187.336 687.234,186.548C687.234,185.701 687.357,184.951 687.604,184.298C687.85,183.644 688.215,183.132 688.7,182.76C689.185,182.387 689.788,182.201 690.508,182.201C691.044,182.201 691.521,182.324 691.939,182.571C692.356,182.817 692.708,183.178 692.993,183.654C693.279,184.13 693.496,184.711 693.644,185.398C693.792,186.085 693.866,186.873 693.866,187.76ZM690.513,183.885C690.076,183.885 689.736,184.101 689.493,184.533C689.25,184.965 689.128,185.622 689.128,186.504C689.128,187.315 689.241,187.933 689.467,188.356C689.692,188.779 690.031,188.991 690.482,188.991C690.819,188.991 691.094,188.885 691.308,188.672C691.522,188.46 691.68,188.19 691.783,187.864C691.885,187.537 691.937,187.201 691.937,186.855C691.937,186.597 691.917,186.3 691.879,185.963C691.841,185.626 691.772,185.3 691.673,184.983C691.573,184.667 691.43,184.405 691.244,184.197C691.058,183.989 690.814,183.885 690.513,183.885Z" style="fill:#808080;fill-rule:nonzero;"/>
        <path d="M738.386,195.236L736.487,195.236L736.487,187.071C736.487,186.807 736.49,186.545 736.494,186.284C736.498,186.023 736.506,185.762 736.516,185.5C736.526,185.237 736.537,184.977 736.549,184.719C736.47,184.831 736.37,184.957 736.25,185.097C736.13,185.238 735.983,185.398 735.811,185.576L734.681,186.706L733.565,185.563L736.716,182.386L738.386,182.386L738.386,195.236Z" style="fill:#808080;fill-rule:nonzero;"/>
        <path d="M747.948,188.811C747.948,189.813 747.891,190.719 747.777,191.529C747.663,192.339 747.477,193.033 747.219,193.612C746.961,194.19 746.62,194.634 746.197,194.943C745.774,195.252 745.254,195.407 744.639,195.407C743.927,195.407 743.326,195.194 742.835,194.768C742.344,194.341 741.971,193.646 741.715,192.682C741.458,191.719 741.33,190.428 741.33,188.811C741.33,187.325 741.451,186.094 741.693,185.117C741.934,184.14 742.3,183.41 742.789,182.927C743.278,182.443 743.895,182.201 744.639,182.201C745.386,182.201 746.004,182.448 746.491,182.942C746.979,183.436 747.344,184.172 747.586,185.15C747.827,186.129 747.948,187.349 747.948,188.811ZM743.25,188.811C743.25,189.909 743.295,190.821 743.385,191.544C743.474,192.268 743.62,192.809 743.824,193.168C744.028,193.527 744.299,193.706 744.639,193.706C744.982,193.706 745.255,193.526 745.459,193.166C745.662,192.805 745.809,192.263 745.898,191.538C745.988,190.812 746.032,189.904 746.032,188.811C746.032,187.733 745.987,186.83 745.896,186.104C745.805,185.377 745.659,184.83 745.457,184.462C745.254,184.095 744.982,183.911 744.639,183.911C744.302,183.911 744.031,184.093 743.826,184.456C743.621,184.819 743.474,185.363 743.385,186.088C743.295,186.813 743.25,187.721 743.25,188.811Z" style="fill:#808080;fill-rule:nonzero;"/>
        <path d="M788.386,195.236L786.487,195.236L786.487,187.071C786.487,186.807 786.49,186.545 786.494,186.284C786.498,186.023 786.506,185.762 786.516,185.5C786.526,185.237 786.537,184.977 786.549,184.719C786.47,184.831 786.37,184.957 786.25,185.097C786.13,185.238 785.983,185.398 785.811,185.576L784.681,186.706L783.565,185.563L786.716,182.386L788.386,182.386L788.386,195.236Z" style="fill:#808080;fill-rule:nonzero;"/>
        <path d="M796.437,195.236L794.538,195.236L794.538,187.071C794.538,186.807 794.54,186.545 794.545,186.284C794.549,186.023 794.556,185.762 794.567,185.5C794.577,185.237 794.588,184.977 794.6,184.719C794.521,184.831 794.421,184.957 794.301,185.097C794.181,185.238 794.034,185.398 793.861,185.576L792.732,186.706L791.616,185.563L794.767,182.386L796.437,182.386L796.437,195.236Z" style="fill:#808080;fill-rule:nonzero;"/>
        <path d="M834.077,195.236L832.178,195.236L832.178,187.071C832.178,186.807 832.181,186.545 832.185,186.284C832.189,186.023 832.197,185.762 832.207,185.5C832.217,185.237 832.228,184.977 832.24,184.719C832.161,184.831 832.061,184.957 831.941,185.097C831.821,185.238 831.675,185.398 831.502,185.576L830.372,186.706L829.256,185.563L832.407,182.386L834.077,182.386L834.077,195.236Z" style="fill:#808080;fill-rule:nonzero;"/>
        <path d="M843.477,195.236L836.881,195.236L836.881,193.847L839.385,190.257C839.898,189.524 840.296,188.904 840.579,188.396C840.861,187.887 841.058,187.421 841.17,186.996C841.281,186.571 841.337,186.121 841.337,185.647C841.337,185.108 841.208,184.681 840.95,184.366C840.692,184.051 840.317,183.893 839.825,183.893C839.47,183.893 839.142,183.971 838.838,184.126C838.535,184.281 838.211,184.55 837.865,184.93L836.916,183.647C837.241,183.299 837.562,183.018 837.88,182.806C838.198,182.593 838.532,182.439 838.882,182.344C839.232,182.249 839.613,182.201 840.023,182.201C840.679,182.201 841.25,182.341 841.734,182.621C842.219,182.901 842.594,183.291 842.857,183.792C843.121,184.293 843.253,184.878 843.253,185.546C843.253,186.173 843.179,186.758 843.033,187.301C842.886,187.845 842.653,188.397 842.332,188.958C842.011,189.519 841.589,190.142 841.064,190.828L839.139,193.469L839.139,193.544L843.477,193.544L843.477,195.236Z" style="fill:#808080;fill-rule:nonzero;"/>
        <path d="M849.427,185.308C850.353,185.308 851.06,185.738 851.55,186.598C852.039,187.458 852.283,188.714 852.283,190.366C852.283,191.43 852.174,192.337 851.954,193.089C851.734,193.84 851.416,194.415 851,194.814C850.584,195.212 850.083,195.411 849.497,195.411C849.184,195.411 848.89,195.354 848.616,195.238C848.342,195.122 848.096,194.952 847.878,194.728C847.66,194.504 847.471,194.231 847.313,193.908L847.239,193.908C847.259,194.213 847.275,194.489 847.287,194.737C847.299,194.984 847.304,195.202 847.304,195.389L847.304,199.551L845.459,199.551L845.459,185.489L846.953,185.489L847.208,186.842L847.309,186.842C847.49,186.47 847.687,186.172 847.898,185.948C848.109,185.724 848.341,185.561 848.594,185.46C848.848,185.359 849.125,185.308 849.427,185.308ZM848.913,186.886C848.55,186.886 848.249,187 848.012,187.229C847.775,187.457 847.597,187.807 847.48,188.277C847.363,188.747 847.304,189.347 847.304,190.076L847.304,190.555C847.304,191.297 847.363,191.907 847.48,192.388C847.597,192.868 847.777,193.224 848.019,193.456C848.26,193.687 848.561,193.803 848.922,193.803C849.25,193.803 849.524,193.68 849.746,193.434C849.967,193.188 850.132,192.812 850.242,192.307C850.352,191.801 850.407,191.16 850.407,190.384C850.407,189.215 850.29,188.34 850.055,187.758C849.821,187.177 849.44,186.886 848.913,186.886Z" style="fill:#808080;fill-rule:nonzero;"/>
        <path d="M892.411,195.236L890.513,195.236L890.513,187.071C890.513,186.807 890.515,186.545 890.519,186.284C890.524,186.023 890.531,185.762 890.541,185.5C890.552,185.237 890.562,184.977 890.574,184.719C890.495,184.831 890.396,184.957 890.275,185.097C890.155,185.238 890.009,185.398 889.836,185.576L888.707,186.706L887.59,185.563L890.741,182.386L892.411,182.386L892.411,195.236Z" style="fill:#808080;fill-rule:nonzero;"/>
        <path d="M943.76,195.236L937.164,195.236L937.164,193.847L939.669,190.257C940.182,189.524 940.579,188.904 940.862,188.396C941.145,187.887 941.342,187.421 941.453,186.996C941.564,186.571 941.62,186.121 941.62,185.647C941.62,185.108 941.491,184.681 941.233,184.366C940.976,184.051 940.601,183.893 940.108,183.893C939.754,183.893 939.425,183.971 939.122,184.126C938.819,184.281 938.494,184.55 938.148,184.93L937.199,183.647C937.524,183.299 937.846,183.018 938.164,182.806C938.482,182.593 938.816,182.439 939.166,182.344C939.516,182.249 939.896,182.201 940.306,182.201C940.962,182.201 941.533,182.341 942.018,182.621C942.503,182.901 942.877,183.291 943.141,183.792C943.404,184.293 943.536,184.878 943.536,185.546C943.536,186.173 943.463,186.758 943.316,187.301C943.17,187.845 942.936,188.397 942.615,188.958C942.295,189.519 941.872,190.142 941.348,190.828L939.423,193.469L939.423,193.544L943.76,193.544L943.76,195.236Z" style="fill:#808080;fill-rule:nonzero;"/>
        <path d="M993.584,185.396C993.584,185.885 993.502,186.332 993.338,186.737C993.174,187.141 992.933,187.491 992.613,187.787C992.294,188.083 991.901,188.316 991.436,188.486L991.436,188.547C992.212,188.714 992.802,189.065 993.207,189.6C993.611,190.134 993.813,190.826 993.813,191.676C993.813,192.426 993.664,193.082 993.365,193.643C993.066,194.204 992.635,194.639 992.071,194.948C991.507,195.257 990.826,195.411 990.029,195.411C989.493,195.411 989.006,195.37 988.568,195.286C988.13,195.203 987.688,195.057 987.243,194.849L987.243,193.021C987.65,193.261 988.071,193.445 988.504,193.572C988.938,193.7 989.364,193.763 989.783,193.763C990.48,193.763 990.995,193.566 991.326,193.172C991.657,192.778 991.822,192.25 991.822,191.588C991.822,191.105 991.731,190.703 991.548,190.384C991.365,190.065 991.087,189.826 990.715,189.668C990.343,189.51 989.871,189.43 989.3,189.43L988.649,189.43L988.649,187.809L989.335,187.809C989.836,187.809 990.263,187.719 990.616,187.539C990.969,187.358 991.239,187.103 991.425,186.772C991.611,186.441 991.704,186.051 991.704,185.603C991.704,185.043 991.565,184.613 991.288,184.311C991.011,184.009 990.614,183.858 990.095,183.858C989.837,183.858 989.594,183.892 989.366,183.959C989.137,184.027 988.914,184.125 988.696,184.256C988.477,184.386 988.254,184.55 988.025,184.746L987.212,183.379C987.702,182.954 988.199,182.652 988.704,182.472C989.21,182.292 989.78,182.201 990.416,182.201C991.395,182.201 992.167,182.481 992.734,183.041C993.301,183.6 993.584,184.385 993.584,185.396Z" style="fill:#808080;fill-rule:nonzero;"/>
        <path d="M1044.415,192.515L1043.083,192.515L1043.083,195.236L1041.211,195.236L1041.211,192.515L1036.9,192.515L1036.9,190.973L1041.146,182.316L1043.083,182.316L1043.083,190.925L1044.415,190.925L1044.415,192.515ZM1041.203,190.925L1041.203,186.846C1041.203,186.735 1041.205,186.589 1041.209,186.409C1041.214,186.229 1041.219,186.041 1041.225,185.844C1041.23,185.648 1041.236,185.467 1041.242,185.3C1041.248,185.133 1041.254,185.004 1041.26,184.913L1041.194,184.913C1041.109,185.182 1041.016,185.44 1040.915,185.686C1040.814,185.932 1040.71,186.168 1040.605,186.394L1038.5,190.925L1041.203,190.925Z" style="fill:#808080;fill-rule:nonzero;"/>
        <path d="M1090.737,187.185C1091.375,187.185 1091.927,187.348 1092.391,187.675C1092.856,188.001 1093.215,188.456 1093.468,189.037C1093.721,189.619 1093.848,190.293 1093.848,191.061C1093.848,191.946 1093.702,192.714 1093.411,193.366C1093.119,194.018 1092.687,194.521 1092.112,194.877C1091.538,195.233 1090.822,195.411 1089.963,195.411C1089.457,195.411 1088.997,195.364 1088.586,195.269C1088.174,195.173 1087.804,195.031 1087.476,194.84L1087.476,193.021C1087.831,193.24 1088.213,193.419 1088.623,193.557C1089.033,193.695 1089.436,193.763 1089.832,193.763C1090.3,193.763 1090.688,193.647 1090.994,193.414C1091.3,193.181 1091.529,192.866 1091.682,192.469C1091.834,192.072 1091.91,191.625 1091.91,191.127C1091.91,190.371 1091.739,189.795 1091.396,189.4C1091.053,189.004 1090.555,188.806 1089.902,188.806C1089.638,188.806 1089.372,188.833 1089.102,188.885C1088.833,188.938 1088.562,189.011 1088.289,189.105L1087.608,188.534L1087.99,182.386L1093.176,182.386L1093.176,184.087L1089.585,184.087L1089.366,187.352C1089.618,187.29 1089.859,187.247 1090.089,187.222C1090.319,187.197 1090.535,187.185 1090.737,187.185Z" style="fill:#808080;fill-rule:nonzero;"/>
        <path d="M1137.331,189.773C1137.331,188.865 1137.381,188.022 1137.48,187.244C1137.58,186.466 1137.738,185.768 1137.953,185.148C1138.168,184.528 1138.452,183.999 1138.803,183.559C1139.155,183.12 1139.58,182.784 1140.08,182.553C1140.579,182.322 1141.165,182.206 1141.835,182.206C1142.105,182.206 1142.366,182.22 1142.618,182.25C1142.87,182.279 1143.105,182.324 1143.325,182.386L1143.325,184.038C1143.12,183.98 1142.903,183.934 1142.675,183.902C1142.446,183.87 1142.206,183.854 1141.954,183.854C1141.362,183.854 1140.862,184.023 1140.453,184.361C1140.045,184.7 1139.73,185.209 1139.511,185.891C1139.291,186.572 1139.165,187.429 1139.133,188.464L1139.203,188.464C1139.332,188.156 1139.493,187.892 1139.687,187.673C1139.88,187.453 1140.107,187.283 1140.368,187.163C1140.628,187.043 1140.918,186.983 1141.238,186.983C1141.838,186.983 1142.34,187.159 1142.743,187.512C1143.146,187.865 1143.45,188.349 1143.657,188.962C1143.864,189.576 1143.967,190.281 1143.967,191.078C1143.967,191.922 1143.844,192.671 1143.6,193.324C1143.355,193.977 1142.994,194.489 1142.517,194.86C1142.039,195.23 1141.45,195.416 1140.75,195.416C1140.205,195.416 1139.72,195.291 1139.295,195.042C1138.871,194.793 1138.512,194.428 1138.219,193.948C1137.926,193.468 1137.705,192.877 1137.555,192.177C1137.406,191.477 1137.331,190.676 1137.331,189.773ZM1140.71,193.741C1141.135,193.741 1141.468,193.525 1141.708,193.091C1141.948,192.657 1142.068,192 1142.068,191.118C1142.068,190.303 1141.957,189.686 1141.734,189.266C1141.512,188.845 1141.176,188.635 1140.728,188.635C1140.415,188.635 1140.149,188.729 1139.93,188.916C1139.712,189.104 1139.547,189.352 1139.434,189.661C1139.321,189.97 1139.265,190.311 1139.265,190.683C1139.265,191.029 1139.291,191.38 1139.344,191.738C1139.396,192.095 1139.48,192.425 1139.594,192.729C1139.708,193.032 1139.858,193.276 1140.042,193.462C1140.227,193.648 1140.45,193.741 1140.71,193.741Z" style="fill:#808080;fill-rule:nonzero;"/>
        <path d="M1188.223,195.236L1192.046,184.091L1187.195,184.091L1187.195,182.386L1193.984,182.386L1193.984,183.74L1190.231,195.236L1188.223,195.236Z" style="fill:#808080;fill-rule:nonzero;"/>
        <path d="M1240.636,182.201C1241.295,182.201 1241.857,182.324 1242.321,182.571C1242.785,182.817 1243.141,183.165 1243.387,183.616C1243.633,184.068 1243.756,184.607 1243.756,185.234C1243.756,185.705 1243.686,186.139 1243.545,186.534C1243.404,186.93 1243.191,187.29 1242.906,187.615C1242.62,187.941 1242.257,188.235 1241.818,188.499C1242.292,188.821 1242.696,189.152 1243.029,189.492C1243.361,189.832 1243.615,190.201 1243.791,190.599C1243.967,190.998 1244.055,191.445 1244.055,191.94C1244.055,192.64 1243.917,193.25 1243.642,193.77C1243.366,194.29 1242.974,194.694 1242.466,194.981C1241.958,195.268 1241.356,195.411 1240.662,195.411C1239.924,195.411 1239.295,195.274 1238.775,194.998C1238.255,194.723 1237.859,194.33 1237.588,193.821C1237.317,193.311 1237.182,192.707 1237.182,192.01C1237.182,191.515 1237.256,191.059 1237.406,190.643C1237.555,190.227 1237.784,189.844 1238.091,189.494C1238.399,189.144 1238.787,188.82 1239.256,188.521C1238.86,188.213 1238.532,187.888 1238.271,187.545C1238.011,187.202 1237.817,186.84 1237.689,186.458C1237.562,186.075 1237.498,185.67 1237.498,185.242C1237.498,184.618 1237.626,184.079 1237.883,183.625C1238.139,183.171 1238.502,182.82 1238.972,182.573C1239.443,182.325 1239.997,182.201 1240.636,182.201ZM1239.032,191.997C1239.032,192.545 1239.168,192.991 1239.44,193.337C1239.713,193.683 1240.103,193.856 1240.609,193.856C1241.143,193.856 1241.543,193.681 1241.811,193.333C1242.079,192.984 1242.213,192.524 1242.213,191.953C1242.213,191.68 1242.168,191.415 1242.077,191.157C1241.986,190.9 1241.839,190.646 1241.635,190.397C1241.432,190.148 1241.16,189.899 1240.82,189.65L1240.517,189.426C1240.163,189.669 1239.876,189.918 1239.658,190.173C1239.44,190.428 1239.281,190.703 1239.181,190.999C1239.082,191.295 1239.032,191.628 1239.032,191.997ZM1240.623,183.761C1240.23,183.761 1239.915,183.906 1239.678,184.194C1239.44,184.483 1239.322,184.878 1239.322,185.379C1239.322,185.689 1239.37,185.971 1239.467,186.225C1239.563,186.478 1239.707,186.714 1239.897,186.932C1240.088,187.15 1240.325,187.362 1240.609,187.567C1240.929,187.35 1241.186,187.131 1241.381,186.908C1241.575,186.685 1241.718,186.449 1241.807,186.2C1241.896,185.951 1241.941,185.677 1241.941,185.379C1241.941,184.878 1241.823,184.483 1241.587,184.194C1241.351,183.906 1241.03,183.761 1240.623,183.761Z" style="fill:#808080;fill-rule:nonzero;"/>
        <path d="M1293.866,187.76C1293.866,188.689 1293.812,189.548 1293.705,190.338C1293.598,191.127 1293.432,191.835 1293.207,192.46C1292.981,193.086 1292.69,193.618 1292.334,194.056C1291.978,194.494 1291.552,194.829 1291.055,195.062C1290.559,195.295 1289.987,195.411 1289.339,195.411C1289.09,195.411 1288.827,195.394 1288.548,195.359C1288.27,195.323 1288.027,195.281 1287.819,195.231L1287.819,193.561C1288.021,193.629 1288.24,193.681 1288.476,193.717C1288.712,193.754 1288.961,193.772 1289.225,193.772C1289.884,193.772 1290.417,193.57 1290.825,193.166C1291.232,192.761 1291.535,192.211 1291.734,191.516C1291.934,190.82 1292.046,190.035 1292.073,189.162L1291.994,189.162C1291.865,189.464 1291.703,189.726 1291.508,189.947C1291.313,190.168 1291.087,190.339 1290.829,190.459C1290.571,190.579 1290.283,190.639 1289.963,190.639C1289.357,190.639 1288.851,190.463 1288.445,190.112C1288.039,189.76 1287.736,189.275 1287.535,188.657C1287.335,188.039 1287.234,187.336 1287.234,186.548C1287.234,185.701 1287.357,184.951 1287.604,184.298C1287.85,183.644 1288.215,183.132 1288.7,182.76C1289.185,182.387 1289.788,182.201 1290.508,182.201C1291.044,182.201 1291.521,182.324 1291.939,182.571C1292.356,182.817 1292.708,183.178 1292.993,183.654C1293.279,184.13 1293.496,184.711 1293.644,185.398C1293.792,186.085 1293.866,186.873 1293.866,187.76ZM1290.513,183.885C1290.076,183.885 1289.736,184.101 1289.493,184.533C1289.25,184.965 1289.128,185.622 1289.128,186.504C1289.128,187.315 1289.241,187.933 1289.467,188.356C1289.692,188.779 1290.031,188.991 1290.482,188.991C1290.819,188.991 1291.094,188.885 1291.308,188.672C1291.522,188.46 1291.68,188.19 1291.783,187.864C1291.885,187.537 1291.937,187.201 1291.937,186.855C1291.937,186.597 1291.917,186.3 1291.879,185.963C1291.841,185.626 1291.772,185.3 1291.673,184.983C1291.573,184.667 1291.43,184.405 1291.244,184.197C1291.058,183.989 1290.814,183.885 1290.513,183.885Z" style="fill:#808080;fill-rule:nonzero;"/>
        <path d="M1338.386,195.236L1336.487,195.236L1336.487,187.071C1336.487,186.807 1336.49,186.545 1336.494,186.284C1336.498,186.023 1336.506,185.762 1336.516,185.5C1336.526,185.237 1336.537,184.977 1336.549,184.719C1336.47,184.831 1336.37,184.957 1336.25,185.097C1336.13,185.238 1335.983,185.398 1335.811,185.576L1334.681,186.706L1333.565,185.563L1336.716,182.386L1338.386,182.386L1338.386,195.236Z" style="fill:#808080;fill-rule:nonzero;"/>
        <path d="M1347.948,188.811C1347.948,189.813 1347.891,190.719 1347.777,191.529C1347.663,192.339 1347.477,193.033 1347.219,193.612C1346.961,194.19 1346.62,194.634 1346.197,194.943C1345.774,195.252 1345.254,195.407 1344.639,195.407C1343.927,195.407 1343.326,195.194 1342.835,194.768C1342.344,194.341 1341.971,193.646 1341.715,192.682C1341.458,191.719 1341.33,190.428 1341.33,188.811C1341.33,187.325 1341.451,186.094 1341.693,185.117C1341.934,184.14 1342.3,183.41 1342.789,182.927C1343.278,182.443 1343.895,182.201 1344.639,182.201C1345.386,182.201 1346.004,182.448 1346.491,182.942C1346.979,183.436 1347.344,184.172 1347.586,185.15C1347.827,186.129 1347.948,187.349 1347.948,188.811ZM1343.25,188.811C1343.25,189.909 1343.295,190.821 1343.385,191.544C1343.474,192.268 1343.62,192.809 1343.824,193.168C1344.028,193.527 1344.299,193.706 1344.639,193.706C1344.982,193.706 1345.255,193.526 1345.459,193.166C1345.662,192.805 1345.809,192.263 1345.898,191.538C1345.988,190.812 1346.032,189.904 1346.032,188.811C1346.032,187.733 1345.987,186.83 1345.896,186.104C1345.805,185.377 1345.659,184.83 1345.457,184.462C1345.254,184.095 1344.982,183.911 1344.639,183.911C1344.302,183.911 1344.031,184.093 1343.826,184.456C1343.621,184.819 1343.474,185.363 1343.385,186.088C1343.295,186.813 1343.25,187.721 1343.25,188.811Z" style="fill:#808080;fill-rule:nonzero;"/>
        <path d="M1384.077,195.236L1382.178,195.236L1382.178,187.071C1382.178,186.807 1382.181,186.545 1382.185,186.284C1382.189,186.023 1382.197,185.762 1382.207,185.5C1382.217,185.237 1382.228,184.977 1382.24,184.719C1382.161,184.831 1382.061,184.957 1381.941,185.097C1381.821,185.238 1381.675,185.398 1381.502,185.576L1380.372,186.706L1379.256,185.563L1382.407,182.386L1384.077,182.386L1384.077,195.236Z" style="fill:#808080;fill-rule:nonzero;"/>
        <path d="M1392.128,195.236L1390.229,195.236L1390.229,187.071C1390.229,186.807 1390.231,186.545 1390.236,186.284C1390.24,186.023 1390.248,185.762 1390.258,185.5C1390.268,185.237 1390.279,184.977 1390.291,184.719C1390.212,184.831 1390.112,184.957 1389.992,185.097C1389.872,185.238 1389.725,185.398 1389.552,185.576L1388.423,186.706L1387.307,185.563L1390.458,182.386L1392.128,182.386L1392.128,195.236Z" style="fill:#808080;fill-rule:nonzero;"/>
        <path d="M1399.427,185.308C1400.353,185.308 1401.06,185.738 1401.55,186.598C1402.039,187.458 1402.283,188.714 1402.283,190.366C1402.283,191.43 1402.174,192.337 1401.954,193.089C1401.734,193.84 1401.416,194.415 1401,194.814C1400.584,195.212 1400.083,195.411 1399.497,195.411C1399.184,195.411 1398.89,195.354 1398.616,195.238C1398.342,195.122 1398.096,194.952 1397.878,194.728C1397.66,194.504 1397.471,194.231 1397.313,193.908L1397.239,193.908C1397.259,194.213 1397.275,194.489 1397.287,194.737C1397.299,194.984 1397.304,195.202 1397.304,195.389L1397.304,199.551L1395.459,199.551L1395.459,185.489L1396.953,185.489L1397.208,186.842L1397.309,186.842C1397.49,186.47 1397.687,186.172 1397.898,185.948C1398.109,185.724 1398.341,185.561 1398.594,185.46C1398.848,185.359 1399.125,185.308 1399.427,185.308ZM1398.913,186.886C1398.55,186.886 1398.249,187 1398.012,187.229C1397.775,187.457 1397.597,187.807 1397.48,188.277C1397.363,188.747 1397.304,189.347 1397.304,190.076L1397.304,190.555C1397.304,191.297 1397.363,191.907 1397.48,192.388C1397.597,192.868 1397.777,193.224 1398.019,193.456C1398.26,193.687 1398.561,193.803 1398.922,193.803C1399.25,193.803 1399.524,193.68 1399.746,193.434C1399.967,193.188 1400.132,192.812 1400.242,192.307C1400.352,191.801 1400.407,191.16 1400.407,190.384C1400.407,189.215 1400.29,188.34 1400.055,187.758C1399.821,187.177 1399.44,186.886 1398.913,186.886Z" style="fill:#808080;fill-rule:nonzero;"/>
    </g>
    <path d="M215,2510L215,10" style="fill:none;stroke:#000;stroke-width:3px;"/>
    <path d="M165,2510L165,10" style="fill:none;stroke:#000;stroke-width:2px;"/>
    <path d="M265,2510L265,210" style="fill:none;stroke:#000;stroke-width:2px;"/>
    <path d="M315,2510L315,210" style="fill:none;stroke:#000;stroke-width:2px;"/>
    <path d="M365,2510L365,210" style="fill:none;stroke:#000;stroke-width:2px;"/>
    <path d="M415,2510L415,210" style="fill:none;stroke:#000;stroke-width:2px;"/>
    <path d="M465,2510L465,210" style="fill:none;stroke:#000;stroke-width:2px;"/>
    <path d="M515,2510L515,210" style="fill:none;stroke:#000;stroke-width:2px;"/>
    <path d="M565,2510L565,210" style="fill:none;stroke:#000;stroke-width:2px;"/>
    <path d="M615,2510L615,210" style="fill:none;stroke:#000;stroke-width:2px;"/>
    <path d="M665,2510L665,210" style="fill:none;stroke:#000;stroke-width:2px;"/>
    <path d="M715,2510L715,210" style="fill:none;stroke:#000;stroke-width:3px;"/>
    <path d="M765,2510L765,210" style="fill:none;stroke:#000;stroke-width:2px;"/>
    <path d="M815,2510L815,210" style="fill:none;stroke:#000;stroke-width:3px;"/>
    <path d="M865,2510L865,210" style="fill:none;stroke:#000;stroke-width:2px;"/>
    <path d="M915,2510L915,210" style="fill:none;stroke:#000;stroke-width:2px;"/>
    <path d="M965,2510L965,210" style="fill:none;stroke:#000;stroke-width:2px;"/>
    <path d="M1015,2510L1015,210" style="fill:none;stroke:#000;stroke-width:2px;"/>
    <path d="M1065,2510L1065,210" style="fill:none;stroke:#000;stroke-width:2px;"/>
    <path d="M1115,2510L1115,210" style="fill:none;stroke:#000;stroke-width:2px;"/>
    <path d="M1165,2510L1165,210" style="fill:none;stroke:#000;stroke-width:2px;"/>
    <path d="M1215,2510L1215,210" style="fill:none;stroke:#000;stroke-width:2px;"/>
    <path d="M1265,2510L1265,210" style="fill:none;stroke:#000;stroke-width:2px;"/>
    <path d="M1315,2510L1315,210" style="fill:none;stroke:#000;stroke-width:2px;"/>
    <path d="M1365,2510L1365,210" style="fill:none;stroke:#000;stroke-width:2px;"/>
</svg>
