<?xml version="1.0" encoding="UTF-8" standalone="no"?>
<!DOCTYPE svg PUBLIC "-//W3C//DTD SVG 1.1//EN" "http://www.w3.org/Graphics/SVG/1.1/DTD/svg11.dtd">
<svg width="100%" height="100%" viewBox="0 0 1880 2520" version="1.1" xmlns="http://www.w3.org/2000/svg" xmlns:xlink="http://www.w3.org/1999/xlink" xml:space="preserve" xmlns:serif="http://www.serif.com/" style="fill-rule:evenodd;clip-rule:evenodd;stroke-linecap:round;stroke-linejoin:round;stroke-miterlimit:1.5;">
    <rect id="projects" x="0" y="0" width="1880" height="2520" style="fill:none;"/>
    <g id="Layer1">
        <g>
            <path d="M515,120L515,185L115,185L115,120C115,114.5 119.5,110 125,110L505,110C510.5,110 515,114.5 515,120Z" style="fill-opacity:0.2;"/>
            <path d="M115,185L515,185" style="fill:none;stroke:#000;stroke-width:3px;"/>
            <path d="M515,120L515,2500C515,2505.5 510.5,2510 505,2510L125,2510C119.5,2510 115,2505.5 115,2500L115,120C115,114.5 119.5,110 125,110L505,110C510.5,110 515,114.5 515,120Z" style="fill:none;stroke:#000;stroke-width:3px;"/>
        </g>
        <g id="Project">
            <path d="M965,120L965,185L565,185L565,120C565,114.5 569.5,110 575,110L955,110C960.5,110 965,114.5 965,120Z" style="fill-opacity:0.2;"/>
            <path d="M565,185L965,185" style="fill:none;stroke:#000;stroke-width:3px;"/>
            <path d="M965,120L965,2500C965,2505.5 960.5,2510 955,2510L575,2510C569.5,2510 565,2505.5 565,2500L565,120C565,114.5 569.5,110 575,110L955,110C960.5,110 965,114.5 965,120Z" style="fill:none;stroke:#000;stroke-width:3px;"/>
        </g>
        <g id="Project1" serif:id="Project">
            <path d="M1415,120L1415,185L1015,185L1015,120C1015,114.5 1019.5,110 1025,110L1405,110C1410.5,110 1415,114.5 1415,120Z" style="fill-opacity:0.2;"/>
            <path d="M1015,185L1415,185" style="fill:none;stroke:#000;stroke-width:3px;"/>
            <path d="M1415,120L1415,2500C1415,2505.5 1410.5,2510 1405,2510L1025,2510C1019.5,2510 1015,2505.5 1015,2500L1015,120C1015,114.5 1019.5,110 1025,110L1405,110C1410.5,110 1415,114.5 1415,120Z" style="fill:none;stroke:#000;stroke-width:3px;"/>
        </g>
        <g id="Project2" serif:id="Project">
            <path d="M1865,120L1865,185L1465,185L1465,120C1465,114.5 1469.5,110 1475,110L1855,110C1860.5,110 1865,114.5 1865,120Z" style="fill-opacity:0.2;"/>
            <path d="M1465,185L1865,185" style="fill:none;stroke:#000;stroke-width:3px;"/>
            <path d="M1865,120L1865,2500C1865,2505.5 1860.5,2510 1855,2510L1475,2510C1469.5,2510 1465,2505.5 1465,2500L1465,120C1465,114.5 1469.5,110 1475,110L1855,110C1860.5,110 1865,114.5 1865,120Z" style="fill:none;stroke:#000;stroke-width:3px;"/>
        </g>
        <path d="M283.8,160L280,160L280,137.7L275.1,137.7L275.1,134.3L288.7,134.3L288.7,137.7L283.8,137.7L283.8,160Z" style="fill:#3f3f3f;fill-rule:nonzero;"/>
        <path d="M308,147.1C308,149.1 307.8,150.8 307.5,152.5C307.2,154.1 306.7,155.5 306,156.6C305.3,157.8 304.4,158.7 303.3,159.4C302.2,160 300.9,160.4 299.5,160.4C297.9,160.4 296.6,160 295.6,159.4C294.5,158.7 293.6,157.8 292.9,156.6C292.2,155.4 291.7,154 291.4,152.4C291,150.8 290.9,149 290.9,147.1C290.9,144.2 291.2,141.7 291.8,139.8C292.5,137.8 293.4,136.4 294.7,135.4C296,134.4 297.6,133.9 299.5,133.9C301.5,133.9 303.1,134.5 304.3,135.6C305.6,136.7 306.5,138.3 307.1,140.2C307.7,142.2 308,144.5 308,147.1ZM294.9,147.1C294.9,149.3 295,151.1 295.4,152.5C295.7,154 296.3,155.1 296.9,155.8C297.6,156.5 298.4,156.9 299.4,156.9C300.4,156.9 301.3,156.5 302,155.8C302.6,155.1 303.1,154 303.5,152.6C303.8,151.1 304,149.3 304,147.1C304,143.8 303.6,141.4 302.8,139.8C302.1,138.1 301,137.3 299.5,137.3C298.4,137.3 297.6,137.7 296.9,138.4C296.2,139.2 295.7,140.3 295.4,141.7C295,143.2 294.9,145 294.9,147.1Z" style="fill:#3f3f3f;fill-rule:nonzero;"/>
        <path d="M333.8,146.8C333.8,149.6 333.5,152.1 332.7,154C332,156 330.9,157.5 329.5,158.5C328.1,159.5 326.3,160 324.3,160L318.7,160L318.7,134.3L324.5,134.3C326.6,134.3 328.3,134.8 329.6,135.7C331,136.7 332.1,138.1 332.8,139.9C333.5,141.8 333.8,144.1 333.8,146.8ZM329.8,146.9C329.8,144.9 329.6,143.1 329.2,141.8C328.8,140.4 328.2,139.4 327.4,138.7C326.6,138 325.7,137.7 324.5,137.7L322.6,137.7L322.6,156.6L324.2,156.6C326.1,156.6 327.6,155.8 328.5,154.2C329.4,152.6 329.8,150.2 329.8,146.9Z" style="fill:#3f3f3f;fill-rule:nonzero;"/>
        <path d="M354.3,147.1C354.3,149.1 354.2,150.8 353.8,152.5C353.5,154.1 353,155.5 352.3,156.6C351.6,157.8 350.7,158.7 349.6,159.4C348.6,160 347.3,160.4 345.8,160.4C344.3,160.4 343,160 341.9,159.4C340.8,158.7 339.9,157.8 339.2,156.6C338.5,155.4 338,154 337.7,152.4C337.3,150.8 337.2,149 337.2,147.1C337.2,144.2 337.5,141.7 338.1,139.8C338.8,137.8 339.8,136.4 341,135.4C342.3,134.4 343.9,133.9 345.8,133.9C347.8,133.9 349.4,134.5 350.7,135.6C351.9,136.7 352.8,138.3 353.4,140.2C354,142.2 354.3,144.5 354.3,147.1ZM341.2,147.1C341.2,149.3 341.4,151.1 341.7,152.5C342.1,154 342.6,155.1 343.3,155.8C343.9,156.5 344.8,156.9 345.8,156.9C346.8,156.9 347.6,156.5 348.3,155.8C348.9,155.1 349.4,154 349.8,152.6C350.1,151.1 350.3,149.3 350.3,147.1C350.3,143.8 349.9,141.4 349.2,139.8C348.4,138.1 347.3,137.3 345.8,137.3C344.8,137.3 343.9,137.7 343.2,138.4C342.6,139.2 342,140.3 341.7,141.7C341.4,143.2 341.2,145 341.2,147.1Z" style="fill:#3f3f3f;fill-rule:nonzero;"/>
        <rect x="681.2" y="134.3" width="3.9" height="25.7" style="fill:#3f3f3f;fill-rule:nonzero;"/>
        <path d="M706.4,160L701.8,160L693.5,140.4L693.4,140.4C693.4,141.1 693.5,141.8 693.5,142.5C693.5,143.1 693.6,143.7 693.6,144.3C693.6,144.9 693.6,145.4 693.6,145.9L693.6,160L690,160L690,134.3L694.6,134.3L702.8,153.5L702.9,153.5C702.9,152.8 702.8,152.1 702.8,151.4C702.8,150.8 702.7,150.2 702.7,149.6C702.7,149 702.7,148.5 702.7,148.1L702.7,134.3L706.4,134.3L706.4,160Z" style="fill:#3f3f3f;fill-rule:nonzero;"/>
        <path d="M723.4,134.3C726,134.3 727.9,134.9 729.1,136.2C730.4,137.5 731,139.5 731,142C731,143.3 730.8,144.5 730.5,145.6C730.2,146.6 729.7,147.5 729.1,148.2C728.4,148.9 727.6,149.4 726.7,149.8C725.7,150.2 724.6,150.4 723.3,150.4L721.7,150.4L721.7,160L717.9,160L717.9,134.3L723.4,134.3ZM723.2,137.6L721.7,137.6L721.7,147L722.9,147C723.9,147 724.6,146.9 725.3,146.5C725.9,146.2 726.3,145.7 726.6,144.9C726.9,144.2 727.1,143.3 727.1,142.1C727.1,140.5 726.8,139.4 726.1,138.7C725.5,138 724.5,137.6 723.2,137.6Z" style="fill:#3f3f3f;fill-rule:nonzero;"/>
        <path d="M739.7,134.3C741.6,134.3 743.1,134.6 744.2,135.1C745.4,135.6 746.3,136.4 746.9,137.5C747.5,138.6 747.8,140 747.8,141.6C747.8,142.7 747.6,143.7 747.4,144.6C747.1,145.5 746.7,146.2 746.1,146.9C745.6,147.6 744.8,148.1 743.9,148.6L749.2,160L744.9,160L740.5,149.5L738.4,149.5L738.4,160L734.6,160L734.6,134.3L739.7,134.3ZM739.7,137.6L738.4,137.6L738.4,146.4L740,146.4C741.2,146.4 742.2,146 742.8,145.3C743.5,144.5 743.8,143.3 743.8,141.8C743.8,140.4 743.5,139.3 742.8,138.6C742.2,138 741.1,137.6 739.7,137.6Z" style="fill:#3f3f3f;fill-rule:nonzero;"/>
        <path d="M768.3,147.1C768.3,149.1 768.1,150.8 767.8,152.5C767.5,154.1 767,155.5 766.3,156.6C765.6,157.8 764.7,158.7 763.6,159.4C762.5,160 761.2,160.4 759.7,160.4C758.2,160.4 756.9,160 755.8,159.4C754.8,158.7 753.9,157.8 753.2,156.6C752.5,155.4 752,154 751.6,152.4C751.3,150.8 751.2,149 751.2,147.1C751.2,144.2 751.5,141.7 752.1,139.8C752.8,137.8 753.7,136.4 755,135.4C756.3,134.4 757.9,133.9 759.7,133.9C761.7,133.9 763.4,134.5 764.6,135.6C765.9,136.7 766.8,138.3 767.4,140.2C768,142.2 768.3,144.5 768.3,147.1ZM755.2,147.1C755.2,149.3 755.3,151.1 755.7,152.5C756,154 756.5,155.1 757.2,155.8C757.9,156.5 758.7,156.9 759.7,156.9C760.7,156.9 761.6,156.5 762.2,155.8C762.9,155.1 763.4,154 763.8,152.6C764.1,151.1 764.3,149.3 764.3,147.1C764.3,143.8 763.9,141.4 763.1,139.8C762.4,138.1 761.3,137.3 759.7,137.3C758.7,137.3 757.9,137.7 757.2,138.4C756.5,139.2 756,140.3 755.7,141.7C755.3,143.2 755.2,145 755.2,147.1Z" style="fill:#3f3f3f;fill-rule:nonzero;"/>
        <path d="M780.9,146L788.2,146L788.2,159C787,159.5 785.9,159.8 784.7,160C783.5,160.2 782.3,160.4 781,160.4C778.9,160.4 777.2,159.8 775.8,158.7C774.4,157.6 773.4,156 772.7,154C772,152 771.6,149.7 771.6,147.1C771.6,144.5 772,142.2 772.8,140.2C773.5,138.2 774.7,136.7 776.2,135.6C777.7,134.5 779.5,133.9 781.8,133.9C782.9,133.9 784,134.1 785,134.4C786,134.6 787,135.1 787.8,135.6L786.6,138.8C785.8,138.3 785.1,137.9 784.3,137.7C783.5,137.4 782.7,137.3 781.9,137.3C780.5,137.3 779.4,137.7 778.5,138.5C777.5,139.2 776.8,140.3 776.4,141.8C775.9,143.3 775.7,145.1 775.7,147.2C775.7,149.1 775.9,150.8 776.3,152.3C776.6,153.7 777.3,154.9 778.1,155.7C778.9,156.5 780,157 781.3,157C781.9,157 782.4,156.9 782.9,156.8C783.5,156.7 783.9,156.6 784.4,156.5L784.4,149.4L780.9,149.4L780.9,146Z" style="fill:#3f3f3f;fill-rule:nonzero;"/>
        <path d="M797.7,134.3C799.5,134.3 801,134.6 802.2,135.1C803.4,135.6 804.3,136.4 804.9,137.5C805.5,138.6 805.8,140 805.8,141.6C805.8,142.7 805.6,143.7 805.4,144.6C805.1,145.5 804.7,146.2 804.1,146.9C803.5,147.6 802.8,148.1 801.9,148.6L807.2,160L802.9,160L798.5,149.5L796.4,149.5L796.4,160L792.5,160L792.5,134.3L797.7,134.3ZM797.7,137.6L796.4,137.6L796.4,146.4L798,146.4C799.2,146.4 800.2,146 800.8,145.3C801.5,144.5 801.8,143.3 801.8,141.8C801.8,140.4 801.5,139.3 800.8,138.6C800.2,138 799.1,137.6 797.7,137.6Z" style="fill:#3f3f3f;fill-rule:nonzero;"/>
        <path d="M820.8,160L809.9,160L809.9,134.3L820.8,134.3L820.8,137.6L813.8,137.6L813.8,144.9L820.3,144.9L820.3,148.3L813.8,148.3L813.8,156.6L820.8,156.6L820.8,160Z" style="fill:#3f3f3f;fill-rule:nonzero;"/>
        <path d="M836.4,152.7C836.4,154.2 836.1,155.6 835.5,156.7C834.9,157.8 834.1,158.7 833,159.4C831.9,160 830.7,160.4 829.2,160.4C828.5,160.4 827.9,160.3 827.2,160.2C826.6,160.1 826,160 825.4,159.8C824.8,159.6 824.2,159.4 823.6,159.1L823.6,155.1C824.5,155.7 825.4,156.1 826.4,156.3C827.3,156.6 828.2,156.8 829.1,156.8C829.8,156.8 830.4,156.6 830.9,156.3C831.4,155.9 831.8,155.5 832.1,155C832.3,154.4 832.4,153.8 832.4,153.1C832.4,152.4 832.3,151.8 832.1,151.3C831.9,150.8 831.5,150.3 831,149.8C830.4,149.4 829.7,148.9 828.7,148.3C827.9,147.9 827.3,147.5 826.7,147C826.1,146.6 825.5,146.1 825.1,145.5C824.7,145 824.3,144.3 824.1,143.6C823.9,142.8 823.8,141.9 823.8,140.9C823.8,139.5 824,138.3 824.6,137.2C825.2,136.2 826,135.4 827,134.8C828.1,134.2 829.3,133.9 830.7,133.9C831.7,133.9 832.7,134.1 833.6,134.3C834.6,134.6 835.4,134.9 836.2,135.4L835.1,138.8C834.3,138.4 833.6,138 832.8,137.8C832.1,137.6 831.4,137.5 830.8,137.5C830.1,137.5 829.6,137.6 829.1,137.9C828.6,138.2 828.3,138.6 828,139.1C827.8,139.5 827.7,140.1 827.7,140.7C827.7,141.5 827.8,142.1 828,142.6C828.2,143.1 828.6,143.6 829.2,144C829.7,144.5 830.5,144.9 831.5,145.5C832.6,146.1 833.5,146.7 834.2,147.4C834.9,148.1 835.5,148.9 835.8,149.7C836.2,150.6 836.4,151.6 836.4,152.7Z" style="fill:#3f3f3f;fill-rule:nonzero;"/>
        <path d="M851.6,152.7C851.6,154.2 851.4,155.6 850.8,156.7C850.2,157.8 849.3,158.7 848.3,159.4C847.2,160 846,160.4 844.5,160.4C843.8,160.4 843.2,160.3 842.5,160.2C841.9,160.1 841.2,160 840.6,159.8C840,159.6 839.5,159.4 838.9,159.1L838.9,155.1C839.7,155.7 840.7,156.1 841.6,156.3C842.6,156.6 843.5,156.8 844.3,156.8C845.1,156.8 845.7,156.6 846.2,156.3C846.7,155.9 847.1,155.5 847.3,155C847.6,154.4 847.7,153.8 847.7,153.1C847.7,152.4 847.6,151.8 847.4,151.3C847.2,150.8 846.8,150.3 846.3,149.8C845.7,149.4 845,148.9 844,148.3C843.2,147.9 842.5,147.5 841.9,147C841.3,146.6 840.8,146.1 840.4,145.5C840,145 839.6,144.3 839.4,143.6C839.2,142.8 839.1,141.9 839.1,140.9C839,139.5 839.3,138.3 839.9,137.2C840.4,136.2 841.3,135.4 842.3,134.8C843.3,134.2 844.6,133.9 846,133.9C847,133.9 848,134.1 848.9,134.3C849.8,134.6 850.7,134.9 851.5,135.4L850.4,138.8C849.6,138.4 848.8,138 848.1,137.8C847.4,137.6 846.7,137.5 846.1,137.5C845.4,137.5 844.8,137.6 844.4,137.9C843.9,138.2 843.5,138.6 843.3,139.1C843.1,139.5 842.9,140.1 842.9,140.7C842.9,141.5 843,142.1 843.3,142.6C843.5,143.1 843.9,143.6 844.4,144C845,144.5 845.8,144.9 846.7,145.5C847.8,146.1 848.7,146.7 849.5,147.4C850.2,148.1 850.7,148.9 851.1,149.7C851.5,150.6 851.6,151.6 851.6,152.7Z" style="fill:#3f3f3f;fill-rule:nonzero;"/>
        <path d="M1193.9,146.8C1193.9,149.6 1193.5,152.1 1192.8,154C1192.1,156 1191,157.5 1189.6,158.5C1188.1,159.5 1186.4,160 1184.3,160L1178.8,160L1178.8,134.3L1184.6,134.3C1186.6,134.3 1188.3,134.8 1189.7,135.7C1191.1,136.7 1192.1,138.1 1192.8,139.9C1193.5,141.8 1193.9,144.1 1193.9,146.8ZM1189.9,146.9C1189.9,144.9 1189.7,143.1 1189.3,141.8C1188.9,140.4 1188.3,139.4 1187.5,138.7C1186.7,138 1185.7,137.7 1184.5,137.7L1182.6,137.7L1182.6,156.6L1184.2,156.6C1186.2,156.6 1187.6,155.8 1188.5,154.2C1189.4,152.6 1189.9,150.2 1189.9,146.9Z" style="fill:#3f3f3f;fill-rule:nonzero;"/>
        <path d="M1214.4,147.1C1214.4,149.1 1214.2,150.8 1213.9,152.5C1213.5,154.1 1213,155.5 1212.3,156.6C1211.6,157.8 1210.8,158.7 1209.7,159.4C1208.6,160 1207.3,160.4 1205.8,160.4C1204.3,160.4 1203,160 1201.9,159.4C1200.8,158.7 1199.9,157.8 1199.2,156.6C1198.6,155.4 1198.1,154 1197.7,152.4C1197.4,150.8 1197.2,149 1197.2,147.1C1197.2,144.2 1197.5,141.7 1198.2,139.8C1198.8,137.8 1199.8,136.4 1201.1,135.4C1202.4,134.4 1203.9,133.9 1205.8,133.9C1207.8,133.9 1209.4,134.5 1210.7,135.6C1212,136.7 1212.9,138.3 1213.5,140.2C1214.1,142.2 1214.4,144.5 1214.4,147.1ZM1201.2,147.1C1201.2,149.3 1201.4,151.1 1201.8,152.5C1202.1,154 1202.6,155.1 1203.3,155.8C1204,156.5 1204.8,156.9 1205.8,156.9C1206.8,156.9 1207.6,156.5 1208.3,155.8C1209,155.1 1209.5,154 1209.8,152.6C1210.2,151.1 1210.3,149.3 1210.3,147.1C1210.3,143.8 1210,141.4 1209.2,139.8C1208.5,138.1 1207.3,137.3 1205.8,137.3C1204.8,137.3 1204,137.7 1203.3,138.4C1202.6,139.2 1202.1,140.3 1201.7,141.7C1201.4,143.2 1201.2,145 1201.2,147.1Z" style="fill:#3f3f3f;fill-rule:nonzero;"/>
        <path d="M1234.9,160L1230.3,160L1222,140.4L1221.9,140.4C1222,141.1 1222,141.8 1222,142.5C1222.1,143.1 1222.1,143.7 1222.1,144.3C1222.1,144.9 1222.1,145.4 1222.1,145.9L1222.1,160L1218.5,160L1218.5,134.3L1223.1,134.3L1231.3,153.5L1231.4,153.5C1231.4,152.8 1231.4,152.1 1231.3,151.4C1231.3,150.8 1231.3,150.2 1231.3,149.6C1231.2,149 1231.2,148.5 1231.2,148.1L1231.2,134.3L1234.9,134.3L1234.9,160Z" style="fill:#3f3f3f;fill-rule:nonzero;"/>
        <path d="M1250.6,160L1239.8,160L1239.8,134.3L1250.6,134.3L1250.6,137.6L1243.7,137.6L1243.7,144.9L1250.2,144.9L1250.2,148.3L1243.7,148.3L1243.7,156.6L1250.6,156.6L1250.6,160Z" style="fill:#3f3f3f;fill-rule:nonzero;"/>
        <path d="M1622.4,160.5L1620.7,153.3L1614.8,153.3L1613.2,160.5L1609.1,160.5L1615.3,134.8L1620.2,134.8L1626.5,160.5L1622.4,160.5ZM1620.1,149.8L1618.4,142.1C1618.3,141.6 1618.2,141.1 1618.2,140.6C1618.1,140.1 1618,139.7 1617.9,139.2C1617.9,138.8 1617.8,138.4 1617.7,137.9C1617.7,138.3 1617.7,138.8 1617.6,139.2C1617.5,139.7 1617.4,140.1 1617.4,140.6C1617.3,141.1 1617.2,141.5 1617.1,142L1615.4,149.8L1620.1,149.8Z" style="fill:#3f3f3f;fill-rule:nonzero;"/>
        <path d="M1634.1,134.8C1636,134.8 1637.5,135.1 1638.7,135.6C1639.8,136.1 1640.7,136.9 1641.3,138C1641.9,139.1 1642.2,140.5 1642.2,142.1C1642.2,143.2 1642.1,144.2 1641.8,145.1C1641.5,146 1641.1,146.7 1640.5,147.4C1640,148.1 1639.2,148.6 1638.3,149.1L1643.6,160.5L1639.3,160.5L1634.9,150L1632.8,150L1632.8,160.5L1629,160.5L1629,134.8L1634.1,134.8ZM1634.1,138.1L1632.8,138.1L1632.8,146.9L1634.4,146.9C1635.6,146.9 1636.6,146.5 1637.2,145.8C1637.9,145 1638.2,143.8 1638.2,142.3C1638.2,140.9 1637.9,139.8 1637.2,139.1C1636.6,138.5 1635.5,138.1 1634.1,138.1Z" style="fill:#3f3f3f;fill-rule:nonzero;"/>
        <path d="M1654.7,137.8C1653.8,137.8 1653,138.1 1652.4,138.6C1651.7,139.1 1651.2,139.8 1650.8,140.7C1650.4,141.6 1650.1,142.7 1649.9,143.9C1649.7,145 1649.6,146.3 1649.6,147.7C1649.6,149.7 1649.8,151.5 1650.2,152.9C1650.6,154.4 1651.2,155.5 1652,156.3C1652.8,157.1 1653.8,157.4 1654.9,157.4C1655.7,157.4 1656.4,157.3 1657.1,157.1C1657.7,156.9 1658.4,156.6 1659,156.3L1659,159.7C1658.4,160.1 1657.6,160.4 1656.9,160.6C1656.1,160.8 1655.3,160.8 1654.4,160.8C1652.5,160.8 1651,160.3 1649.6,159.3C1648.3,158.2 1647.3,156.7 1646.6,154.8C1645.9,152.8 1645.6,150.4 1645.6,147.6C1645.6,145.8 1645.8,144 1646.1,142.4C1646.5,140.8 1647.1,139.4 1647.8,138.2C1648.6,137 1649.5,136.1 1650.6,135.4C1651.7,134.7 1653,134.4 1654.5,134.4C1655.4,134.4 1656.3,134.5 1657.2,134.8C1658,135 1658.9,135.4 1659.7,135.8L1658.5,139.1C1657.9,138.7 1657.3,138.4 1656.7,138.1C1656,137.9 1655.4,137.8 1654.7,137.8Z" style="fill:#3f3f3f;fill-rule:nonzero;"/>
        <path d="M1678,160.5L1674.1,160.5L1674.1,148.8L1666.9,148.8L1666.9,160.5L1663,160.5L1663,134.8L1666.9,134.8L1666.9,145.4L1674.1,145.4L1674.1,134.8L1678,134.8L1678,160.5Z" style="fill:#3f3f3f;fill-rule:nonzero;"/>
        <rect x="1682.9" y="134.8" width="3.9" height="25.7" style="fill:#3f3f3f;fill-rule:nonzero;"/>
        <path d="M1706.3,134.8L1700,160.5L1695.5,160.5L1689.3,134.8L1693.3,134.8L1696.8,150.9C1697,151.4 1697.1,152 1697.2,152.6C1697.3,153.3 1697.4,153.9 1697.5,154.5C1697.6,155.2 1697.7,155.7 1697.7,156.2C1697.8,155.7 1697.9,155.2 1698,154.5C1698.1,153.9 1698.2,153.3 1698.3,152.7C1698.5,152 1698.6,151.4 1698.7,150.9L1702.3,134.8L1706.3,134.8Z" style="fill:#3f3f3f;fill-rule:nonzero;"/>
        <path d="M1719.6,160.5L1708.8,160.5L1708.8,134.8L1719.6,134.8L1719.6,138.1L1712.6,138.1L1712.6,145.4L1719.1,145.4L1719.1,148.8L1712.6,148.8L1712.6,157.1L1719.6,157.1L1719.6,160.5Z" style="fill:#3f3f3f;fill-rule:nonzero;"/>
    </g>
</svg>
