<?xml version="1.0" encoding="UTF-8" standalone="no"?>
<!DOCTYPE svg PUBLIC "-//W3C//DTD SVG 1.1//EN" "http://www.w3.org/Graphics/SVG/1.1/DTD/svg11.dtd">
<svg width="100%" height="100%" viewBox="0 0 1880 2520" version="1.1" xmlns="http://www.w3.org/2000/svg" xmlns:xlink="http://www.w3.org/1999/xlink" xml:space="preserve" xmlns:serif="http://www.serif.com/" style="fill-rule:evenodd;clip-rule:evenodd;stroke-linecap:round;stroke-linejoin:round;stroke-miterlimit:1.5;">
    <rect id="year" x="0" y="0" width="1880" height="2520" style="fill:none;"/>
    <g id="Layer1">
        <g>
            <g>
                <path d="M615,170L615,235L115,235L115,170C115,164.481 119.481,160 125,160L605,160C610.519,160 615,164.481 615,170Z" style="fill:#ccc;"/>
                <path d="M115,235L615,235" style="fill:none;stroke:#000;stroke-width:3px;"/>
                <path d="M615,170L615,650C615,655.519 610.519,660 605,660L125,660C119.481,660 115,655.519 115,650L115,170C115,164.481 119.481,160 125,160L605,160C610.519,160 615,164.481 615,170Z" style="fill:none;stroke:#000;stroke-width:3px;"/>
            </g>
            <g>
                <path d="M1215,170L1215,235L715,235L715,170C715,164.481 719.481,160 725,160L1205,160C1210.519,160 1215,164.481 1215,170Z" style="fill:#ccc;"/>
                <path d="M715,235L1215,235" style="fill:none;stroke:#000;stroke-width:3px;"/>
                <path d="M1215,170L1215,650C1215,655.519 1210.519,660 1205,660L725,660C719.481,660 715,655.519 715,650L715,170C715,164.481 719.481,160 725,160L1205,160C1210.519,160 1215,164.481 1215,170Z" style="fill:none;stroke:#000;stroke-width:3px;"/>
            </g>
            <g>
                <path d="M1815,170L1815,235L1315,235L1315,170C1315,164.481 1319.481,160 1325,160L1805,160C1810.519,160 1815,164.481 1815,170Z" style="fill:#ccc;"/>
                <path d="M1315,235L1815,235" style="fill:none;stroke:#000;stroke-width:3px;"/>
                <path d="M1815,170L1815,650C1815,655.519 1810.519,660 1805,660L1325,660C1319.481,660 1315,655.519 1315,650L1315,170C1315,164.481 1319.481,160 1325,160L1805,160C1810.519,160 1815,164.481 1815,170Z" style="fill:none;stroke:#000;stroke-width:3px;"/>
            </g>
        </g>
        <g>
            <g>
                <path d="M615,770L615,835L115,835L115,770C115,764.481 119.481,760 125,760L605,760C610.519,760 615,764.481 615,770Z" style="fill:#ccc;"/>
                <path d="M115,835L615,835" style="fill:none;stroke:#000;stroke-width:3px;"/>
                <path d="M615,770L615,1250C615,1255.519 610.519,1260 605,1260L125,1260C119.481,1260 115,1255.519 115,1250L115,770C115,764.481 119.481,760 125,760L605,760C610.519,760 615,764.481 615,770Z" style="fill:none;stroke:#000;stroke-width:3px;"/>
            </g>
            <g>
                <path d="M1215,770L1215,835L715,835L715,770C715,764.481 719.481,760 725,760L1205,760C1210.519,760 1215,764.481 1215,770Z" style="fill:#ccc;"/>
                <path d="M715,835L1215,835" style="fill:none;stroke:#000;stroke-width:3px;"/>
                <path d="M1215,770L1215,1250C1215,1255.519 1210.519,1260 1205,1260L725,1260C719.481,1260 715,1255.519 715,1250L715,770C715,764.481 719.481,760 725,760L1205,760C1210.519,760 1215,764.481 1215,770Z" style="fill:none;stroke:#000;stroke-width:3px;"/>
            </g>
            <g>
                <path d="M1815,770L1815,835L1315,835L1315,770C1315,764.481 1319.481,760 1325,760L1805,760C1810.519,760 1815,764.481 1815,770Z" style="fill:#ccc;"/>
                <path d="M1315,835L1815,835" style="fill:none;stroke:#000;stroke-width:3px;"/>
                <path d="M1815,770L1815,1250C1815,1255.519 1810.519,1260 1805,1260L1325,1260C1319.481,1260 1315,1255.519 1315,1250L1315,770C1315,764.481 1319.481,760 1325,760L1805,760C1810.519,760 1815,764.481 1815,770Z" style="fill:none;stroke:#000;stroke-width:3px;"/>
            </g>
        </g>
        <g>
            <g>
                <path d="M615,1370L615,1435L115,1435L115,1370C115,1364.481 119.481,1360 125,1360L605,1360C610.519,1360 615,1364.481 615,1370Z" style="fill:#ccc;"/>
                <path d="M115,1435L615,1435" style="fill:none;stroke:#000;stroke-width:3px;"/>
                <path d="M615,1370L615,1850C615,1855.519 610.519,1860 605,1860L125,1860C119.481,1860 115,1855.519 115,1850L115,1370C115,1364.481 119.481,1360 125,1360L605,1360C610.519,1360 615,1364.481 615,1370Z" style="fill:none;stroke:#000;stroke-width:3px;"/>
            </g>
            <g>
                <path d="M1215,1370L1215,1435L715,1435L715,1370C715,1364.481 719.481,1360 725,1360L1205,1360C1210.519,1360 1215,1364.481 1215,1370Z" style="fill:#ccc;"/>
                <path d="M715,1435L1215,1435" style="fill:none;stroke:#000;stroke-width:3px;"/>
                <path d="M1215,1370L1215,1850C1215,1855.519 1210.519,1860 1205,1860L725,1860C719.481,1860 715,1855.519 715,1850L715,1370C715,1364.481 719.481,1360 725,1360L1205,1360C1210.519,1360 1215,1364.481 1215,1370Z" style="fill:none;stroke:#000;stroke-width:3px;"/>
            </g>
            <g>
                <path d="M1815,1370L1815,1435L1315,1435L1315,1370C1315,1364.481 1319.481,1360 1325,1360L1805,1360C1810.519,1360 1815,1364.481 1815,1370Z" style="fill:#ccc;"/>
                <path d="M1315,1435L1815,1435" style="fill:none;stroke:#000;stroke-width:3px;"/>
                <path d="M1815,1370L1815,1850C1815,1855.519 1810.519,1860 1805,1860L1325,1860C1319.481,1860 1315,1855.519 1315,1850L1315,1370C1315,1364.481 1319.481,1360 1325,1360L1805,1360C1810.519,1360 1815,1364.481 1815,1370Z" style="fill:none;stroke:#000;stroke-width:3px;"/>
            </g>
        </g>
        <g>
            <g>
                <path d="M615,1970L615,2035L115,2035L115,1970C115,1964.481 119.481,1960 125,1960L605,1960C610.519,1960 615,1964.481 615,1970Z" style="fill:#ccc;"/>
                <path d="M115,2035L615,2035" style="fill:none;stroke:#000;stroke-width:3px;"/>
                <path d="M615,1970L615,2450C615,2455.519 610.519,2460 605,2460L125,2460C119.481,2460 115,2455.519 115,2450L115,1970C115,1964.481 119.481,1960 125,1960L605,1960C610.519,1960 615,1964.481 615,1970Z" style="fill:none;stroke:#000;stroke-width:3px;"/>
            </g>
            <g>
                <path d="M1215,1970L1215,2035L715,2035L715,1970C715,1964.481 719.481,1960 725,1960L1205,1960C1210.519,1960 1215,1964.481 1215,1970Z" style="fill:#ccc;"/>
                <path d="M715,2035L1215,2035" style="fill:none;stroke:#000;stroke-width:3px;"/>
                <path d="M1215,1970L1215,2450C1215,2455.519 1210.519,2460 1205,2460L725,2460C719.481,2460 715,2455.519 715,2450L715,1970C715,1964.481 719.481,1960 725,1960L1205,1960C1210.519,1960 1215,1964.481 1215,1970Z" style="fill:none;stroke:#000;stroke-width:3px;"/>
            </g>
            <g>
                <path d="M1815,1970L1815,2035L1315,2035L1315,1970C1315,1964.481 1319.481,1960 1325,1960L1805,1960C1810.519,1960 1815,1964.481 1815,1970Z" style="fill:#ccc;"/>
                <path d="M1315,2035L1815,2035" style="fill:none;stroke:#000;stroke-width:3px;"/>
                <path d="M1815,1970L1815,2450C1815,2455.519 1810.519,2460 1805,2460L1325,2460C1319.481,2460 1315,2455.519 1315,2450L1315,1970C1315,1964.481 1319.481,1960 1325,1960L1805,1960C1810.519,1960 1815,1964.481 1815,1970Z" style="fill:none;stroke:#000;stroke-width:3px;"/>
            </g>
        </g>
        <path d="M303.586,217.629C303.106,217.629 302.631,217.6 302.163,217.541C301.694,217.482 301.254,217.383 300.844,217.242L300.844,213.023C301.137,213.129 301.448,213.217 301.776,213.287C302.104,213.357 302.456,213.393 302.831,213.393C303.417,213.393 303.882,213.255 304.228,212.979C304.574,212.704 304.823,212.238 304.975,211.582C305.127,210.926 305.204,210.029 305.204,208.893L305.204,184.301L310.108,184.301L310.108,208.805C310.108,211.031 309.856,212.789 309.352,214.078C308.848,215.367 308.11,216.281 307.137,216.82C306.165,217.359 304.981,217.629 303.586,217.629Z" style="fill:#3f3f3f;fill-rule:nonzero;"/>
        <path d="M326.051,210L324.715,203.812L319.002,203.812L317.667,210L312.375,210L318.598,184.301L324.979,184.301L331.307,210L326.051,210ZM323.959,199.523L322.571,192.721C322.477,192.158 322.386,191.607 322.298,191.068C322.21,190.529 322.128,190.011 322.052,189.513C321.976,189.015 321.909,188.549 321.85,188.115C321.815,188.525 321.762,188.977 321.692,189.469C321.622,189.961 321.54,190.477 321.446,191.016C321.352,191.555 321.247,192.1 321.129,192.65L319.758,199.523L323.959,199.523Z" style="fill:#3f3f3f;fill-rule:nonzero;"/>
        <path d="M351.399,210L345.598,210L338.075,192.07L337.934,192.07C338.004,192.902 338.06,193.685 338.101,194.417C338.142,195.149 338.171,195.82 338.189,196.43C338.207,197.039 338.215,197.59 338.215,198.082L338.215,210L333.61,210L333.61,184.301L339.375,184.301L346.864,201.826L347.004,201.826C346.958,201.018 346.917,200.265 346.881,199.567C346.846,198.87 346.817,198.223 346.793,197.625C346.77,197.027 346.758,196.482 346.758,195.99L346.758,184.301L351.399,184.301L351.399,210Z" style="fill:#3f3f3f;fill-rule:nonzero;"/>
        <path d="M371.772,184.301L371.772,201.545C371.772,203.514 371.467,205.148 370.858,206.449C370.249,207.75 369.352,208.726 368.168,209.376C366.985,210.026 365.52,210.352 363.774,210.352C361.231,210.352 359.277,209.634 357.912,208.198C356.546,206.763 355.864,204.58 355.864,201.65L355.864,184.301L360.786,184.301L360.786,201.475C360.786,203.104 361.043,204.267 361.559,204.964C362.075,205.661 362.825,206.01 363.809,206.01C364.5,206.01 365.072,205.86 365.523,205.562C365.974,205.263 366.314,204.779 366.542,204.111C366.771,203.443 366.885,202.553 366.885,201.439L366.885,184.301L371.772,184.301Z" style="fill:#3f3f3f;fill-rule:nonzero;"/>
        <path d="M387.61,210L386.274,203.812L380.561,203.812L379.225,210L373.934,210L380.157,184.301L386.538,184.301L392.866,210L387.61,210ZM385.518,199.523L384.129,192.721C384.036,192.158 383.945,191.607 383.857,191.068C383.769,190.529 383.687,190.011 383.611,189.513C383.535,189.015 383.467,188.549 383.409,188.115C383.374,188.525 383.321,188.977 383.25,189.469C383.18,189.961 383.098,190.477 383.004,191.016C382.911,191.555 382.805,192.1 382.688,192.65L381.317,199.523L385.518,199.523Z" style="fill:#3f3f3f;fill-rule:nonzero;"/>
        <path d="M401.145,184.301C403.043,184.301 404.62,184.576 405.874,185.127C407.127,185.678 408.062,186.504 408.677,187.605C409.292,188.707 409.6,190.09 409.6,191.754C409.6,192.809 409.471,193.767 409.213,194.628C408.956,195.489 408.554,196.257 408.009,196.931C407.464,197.604 406.77,198.193 405.926,198.697L411.217,210L405.786,210L401.584,199.928L400.108,199.928L400.108,210L395.168,210L395.168,184.301L401.145,184.301ZM401.11,188.467L400.108,188.467L400.108,196.025L401.215,196.025C402.317,196.025 403.152,195.691 403.72,195.023C404.289,194.355 404.573,193.348 404.573,192C404.573,190.793 404.289,189.902 403.72,189.328C403.152,188.754 402.282,188.467 401.11,188.467Z" style="fill:#3f3f3f;fill-rule:nonzero;"/>
        <path d="M419.866,194.742L423.293,184.301L428.374,184.301L422.292,200.104L422.292,210L417.387,210L417.387,200.244L411.305,184.301L416.42,184.301L419.866,194.742Z" style="fill:#3f3f3f;fill-rule:nonzero;"/>
        <path d="M905.182,210L901.314,210L901.314,184.301L912.107,184.301L912.107,187.649L905.182,187.649L905.182,195.946L911.686,195.946L911.686,199.312L905.182,199.312L905.182,210Z" style="fill:#3f3f3f;fill-rule:nonzero;"/>
        <path d="M926.381,210L915.553,210L915.553,184.301L926.381,184.301L926.381,187.649L919.42,187.649L919.42,194.936L925.933,194.936L925.933,198.302L919.42,198.302L919.42,206.581L926.381,206.581L926.381,210Z" style="fill:#3f3f3f;fill-rule:nonzero;"/>
        <path d="M930.424,184.301L936.611,184.301C939.055,184.301 940.893,184.815 942.126,185.843C943.36,186.872 943.977,188.438 943.977,190.541C943.977,191.596 943.837,192.527 943.559,193.336C943.281,194.145 942.876,194.807 942.346,195.322C941.816,195.838 941.167,196.189 940.399,196.377L940.399,196.535C941.337,196.77 942.106,197.15 942.707,197.678C943.307,198.205 943.751,198.877 944.038,199.695C944.325,200.512 944.469,201.48 944.469,202.6C944.469,204.1 944.192,205.403 943.638,206.511C943.084,207.618 942.282,208.477 941.23,209.086C940.178,209.695 938.908,210 937.42,210L930.424,210L930.424,184.301ZM934.291,195.041L936.594,195.041C937.789,195.041 938.667,194.703 939.226,194.026C939.786,193.349 940.065,192.343 940.065,191.007C940.065,189.87 939.772,189.003 939.187,188.405C938.601,187.808 937.716,187.509 936.532,187.509L934.291,187.509L934.291,195.041ZM934.291,198.196L934.291,206.704L937.068,206.704C938.205,206.704 939.062,206.342 939.639,205.619C940.216,204.895 940.505,203.801 940.505,202.336C940.505,201.428 940.358,200.667 940.065,200.055C939.772,199.443 939.352,198.98 938.804,198.667C938.256,198.353 937.59,198.196 936.805,198.196L934.291,198.196Z" style="fill:#3f3f3f;fill-rule:nonzero;"/>
        <path d="M953.592,184.301C955.408,184.301 956.911,184.569 958.101,185.105C959.29,185.641 960.176,186.45 960.759,187.531C961.342,188.612 961.634,189.973 961.634,191.613C961.634,192.715 961.499,193.707 961.229,194.588C960.96,195.47 960.542,196.241 959.977,196.9C959.412,197.559 958.684,198.117 957.793,198.574L963.049,210L958.777,210L954.356,199.541L952.273,199.541L952.273,210L948.406,210L948.406,184.301L953.592,184.301ZM953.583,187.649L952.273,187.649L952.273,196.412L953.829,196.412C955.077,196.412 956.032,196.03 956.694,195.265C957.356,194.5 957.688,193.348 957.688,191.807C957.688,190.359 957.355,189.305 956.69,188.643C956.025,187.98 954.989,187.649 953.583,187.649Z" style="fill:#3f3f3f;fill-rule:nonzero;"/>
        <path d="M980.478,184.301L980.478,201.756C980.478,203.719 980.193,205.334 979.625,206.603C979.057,207.872 978.223,208.813 977.125,209.429C976.026,210.044 974.668,210.352 973.051,210.352C970.648,210.352 968.81,209.653 967.536,208.255C966.261,206.858 965.624,204.712 965.624,201.817L965.624,184.301L969.482,184.301L969.482,201.738C969.482,203.584 969.792,204.907 970.41,205.707C971.028,206.506 971.914,206.906 973.068,206.906C973.854,206.906 974.508,206.735 975.033,206.392C975.557,206.049 975.953,205.497 976.219,204.735C976.486,203.974 976.619,202.963 976.619,201.703L976.619,184.301L980.478,184.301Z" style="fill:#3f3f3f;fill-rule:nonzero;"/>
        <path d="M996.087,210L994.452,202.775L988.546,202.775L986.911,210L982.771,210L988.985,184.301L993.872,184.301L1000.2,210L996.087,210ZM993.811,199.339L992.132,191.578C992.044,191.08 991.959,190.592 991.877,190.115C991.795,189.637 991.719,189.176 991.648,188.73C991.578,188.285 991.514,187.86 991.455,187.456C991.42,187.849 991.37,188.268 991.306,188.713C991.241,189.158 991.165,189.617 991.077,190.088C990.989,190.56 990.893,191.039 990.787,191.525L989.144,199.339L993.811,199.339Z" style="fill:#3f3f3f;fill-rule:nonzero;"/>
        <path d="M1007.864,184.301C1009.681,184.301 1011.184,184.569 1012.373,185.105C1013.562,185.641 1014.449,186.45 1015.032,187.531C1015.615,188.612 1015.906,189.973 1015.906,191.613C1015.906,192.715 1015.771,193.707 1015.502,194.588C1015.232,195.47 1014.815,196.241 1014.25,196.9C1013.684,197.559 1012.956,198.117 1012.065,198.574L1017.321,210L1013.05,210L1008.629,199.541L1006.546,199.541L1006.546,210L1002.679,210L1002.679,184.301L1007.864,184.301ZM1007.855,187.649L1006.546,187.649L1006.546,196.412L1008.102,196.412C1009.35,196.412 1010.305,196.03 1010.967,195.265C1011.629,194.5 1011.96,193.348 1011.96,191.807C1011.96,190.359 1011.627,189.305 1010.962,188.643C1010.297,187.98 1009.262,187.649 1007.855,187.649Z" style="fill:#3f3f3f;fill-rule:nonzero;"/>
        <path d="M1025.346,195.691L1029.037,184.301L1033.045,184.301L1027.244,200.051L1027.244,210L1023.395,210L1023.395,200.156L1017.603,184.301L1021.619,184.301L1025.346,195.691Z" style="fill:#3f3f3f;fill-rule:nonzero;"/>
        <path d="M1526.403,210L1520.743,189.601L1520.602,189.601C1520.655,190.386 1520.697,191.108 1520.729,191.767C1520.762,192.426 1520.785,193.017 1520.8,193.538C1520.814,194.06 1520.822,194.511 1520.822,194.892L1520.822,210L1517.192,210L1517.192,184.301L1522.571,184.301L1528.011,203.786L1528.125,203.786L1533.575,184.301L1538.962,184.301L1538.962,210L1535.236,210L1535.236,194.909C1535.236,194.487 1535.243,194.014 1535.258,193.49C1535.272,192.965 1535.294,192.381 1535.324,191.736C1535.353,191.092 1535.385,190.386 1535.42,189.618L1535.289,189.618L1529.611,210L1526.403,210Z" style="fill:#3f3f3f;fill-rule:nonzero;"/>
        <path d="M1554.712,210L1553.078,202.775L1547.171,202.775L1545.537,210L1541.397,210L1547.611,184.301L1552.498,184.301L1558.826,210L1554.712,210ZM1552.436,199.339L1550.757,191.578C1550.669,191.08 1550.584,190.592 1550.502,190.115C1550.42,189.637 1550.344,189.176 1550.274,188.73C1550.204,188.285 1550.139,187.86 1550.081,187.456C1550.045,187.849 1549.996,188.268 1549.931,188.713C1549.867,189.158 1549.791,189.617 1549.703,190.088C1549.615,190.56 1549.518,191.039 1549.413,191.525L1547.769,199.339L1552.436,199.339Z" style="fill:#3f3f3f;fill-rule:nonzero;"/>
        <path d="M1566.49,184.301C1568.306,184.301 1569.809,184.569 1570.999,185.105C1572.188,185.641 1573.074,186.45 1573.657,187.531C1574.24,188.612 1574.532,189.973 1574.532,191.613C1574.532,192.715 1574.397,193.707 1574.127,194.588C1573.858,195.47 1573.44,196.241 1572.875,196.9C1572.31,197.559 1571.582,198.117 1570.691,198.574L1575.947,210L1571.675,210L1567.254,199.541L1565.171,199.541L1565.171,210L1561.304,210L1561.304,184.301L1566.49,184.301ZM1566.481,187.649L1565.171,187.649L1565.171,196.412L1566.727,196.412C1567.975,196.412 1568.93,196.03 1569.592,195.265C1570.254,194.5 1570.585,193.348 1570.585,191.807C1570.585,190.359 1570.253,189.305 1569.588,188.643C1568.923,187.98 1567.887,187.649 1566.481,187.649Z" style="fill:#3f3f3f;fill-rule:nonzero;"/>
        <path d="M1587.03,187.315C1586.145,187.315 1585.379,187.57 1584.731,188.08C1584.084,188.59 1583.552,189.299 1583.136,190.207C1582.72,191.115 1582.413,192.166 1582.213,193.358C1582.014,194.55 1581.915,195.826 1581.915,197.186C1581.915,199.242 1582.127,200.999 1582.552,202.455C1582.977,203.911 1583.587,205.024 1584.384,205.794C1585.181,206.565 1586.133,206.95 1587.241,206.95C1588.002,206.95 1588.723,206.836 1589.403,206.607C1590.083,206.379 1590.733,206.104 1591.354,205.781L1591.354,209.244C1590.704,209.613 1589.993,209.89 1589.223,210.075C1588.452,210.259 1587.619,210.352 1586.722,210.352C1584.882,210.352 1583.305,209.832 1581.989,208.792C1580.674,207.751 1579.665,206.247 1578.961,204.278C1578.258,202.31 1577.907,199.934 1577.907,197.15C1577.907,195.281 1578.094,193.545 1578.469,191.943C1578.844,190.34 1579.405,188.937 1580.152,187.733C1580.899,186.529 1581.828,185.591 1582.938,184.92C1584.049,184.25 1585.336,183.914 1586.801,183.914C1587.739,183.914 1588.643,184.033 1589.513,184.27C1590.383,184.507 1591.219,184.863 1592.022,185.338L1590.818,188.563C1590.232,188.177 1589.628,187.872 1589.007,187.649C1588.386,187.427 1587.727,187.315 1587.03,187.315Z" style="fill:#3f3f3f;fill-rule:nonzero;"/>
        <path d="M1610.347,210L1606.48,210L1606.48,198.302L1599.229,198.302L1599.229,210L1595.362,210L1595.362,184.301L1599.229,184.301L1599.229,194.883L1606.48,194.883L1606.48,184.301L1610.347,184.301L1610.347,210Z" style="fill:#3f3f3f;fill-rule:nonzero;"/>
        <path d="M340.791,810.367L339.156,803.143L333.25,803.143L331.615,810.367L327.475,810.367L333.689,784.668L338.576,784.668L344.904,810.367L340.791,810.367ZM338.514,799.706L336.835,791.945C336.748,791.447 336.663,790.959 336.581,790.482C336.499,790.004 336.422,789.543 336.352,789.098C336.282,788.652 336.217,788.228 336.159,787.823C336.124,788.216 336.074,788.635 336.009,789.08C335.945,789.525 335.869,789.984 335.781,790.456C335.693,790.927 335.596,791.406 335.491,791.893L333.847,799.706L338.514,799.706Z" style="fill:#3f3f3f;fill-rule:nonzero;"/>
        <path d="M352.946,784.668C355.512,784.668 357.414,785.311 358.65,786.597C359.886,787.883 360.504,789.818 360.504,792.402C360.504,793.715 360.346,794.887 360.03,795.918C359.713,796.949 359.237,797.825 358.602,798.546C357.966,799.267 357.166,799.816 356.202,800.194C355.238,800.572 354.103,800.761 352.796,800.761L351.25,800.761L351.25,810.367L347.382,810.367L347.382,784.668L352.946,784.668ZM352.708,787.999L351.25,787.999L351.25,797.412L352.427,797.412C353.388,797.412 354.178,797.245 354.796,796.911C355.414,796.577 355.874,796.044 356.176,795.312C356.478,794.579 356.628,793.621 356.628,792.438C356.628,790.873 356.308,789.742 355.666,789.045C355.024,788.348 354.039,787.999 352.708,787.999Z" style="fill:#3f3f3f;fill-rule:nonzero;"/>
        <path d="M369.267,784.668C371.083,784.668 372.586,784.936 373.776,785.472C374.965,786.008 375.852,786.817 376.435,787.898C377.018,788.979 377.309,790.34 377.309,791.98C377.309,793.082 377.174,794.074 376.905,794.956C376.635,795.837 376.218,796.608 375.652,797.267C375.087,797.926 374.359,798.484 373.468,798.941L378.724,810.367L374.453,810.367L370.032,799.908L367.949,799.908L367.949,810.367L364.082,810.367L364.082,784.668L369.267,784.668ZM369.258,788.017L367.949,788.017L367.949,796.779L369.504,796.779C370.752,796.779 371.708,796.397 372.37,795.632C373.032,794.868 373.363,793.715 373.363,792.174C373.363,790.727 373.03,789.672 372.365,789.01C371.7,788.348 370.665,788.017 369.258,788.017Z" style="fill:#3f3f3f;fill-rule:nonzero;"/>
        <rect x="381.484" y="784.668" width="3.867" height="25.699" style="fill:#3f3f3f;fill-rule:nonzero;"/>
        <path d="M390.282,810.367L390.282,784.668L394.149,784.668L394.149,806.948L401.154,806.948L401.154,810.367L390.282,810.367Z" style="fill:#3f3f3f;fill-rule:nonzero;"/>
        <path d="M947.198,810.367L941.538,789.968L941.397,789.968C941.45,790.753 941.492,791.475 941.524,792.134C941.557,792.793 941.58,793.384 941.595,793.905C941.609,794.427 941.617,794.878 941.617,795.259L941.617,810.367L937.987,810.367L937.987,784.668L943.366,784.668L948.806,804.153L948.92,804.153L954.37,784.668L959.757,784.668L959.757,810.367L956.031,810.367L956.031,795.276C956.031,794.854 956.038,794.381 956.053,793.857C956.067,793.333 956.089,792.748 956.119,792.104C956.148,791.459 956.18,790.753 956.215,789.985L956.083,789.985L950.406,810.367L947.198,810.367Z" style="fill:#3f3f3f;fill-rule:nonzero;"/>
        <path d="M975.507,810.367L973.873,803.143L967.966,803.143L966.332,810.367L962.192,810.367L968.406,784.668L973.292,784.668L979.621,810.367L975.507,810.367ZM973.231,799.706L971.552,791.945C971.464,791.447 971.379,790.959 971.297,790.482C971.215,790.004 971.139,789.543 971.069,789.098C970.999,788.652 970.934,788.228 970.875,787.823C970.84,788.216 970.791,788.635 970.726,789.08C970.662,789.525 970.585,789.984 970.498,790.456C970.41,790.927 970.313,791.406 970.208,791.893L968.564,799.706L973.231,799.706Z" style="fill:#3f3f3f;fill-rule:nonzero;"/>
        <path d="M987.364,796.059L991.055,784.668L995.063,784.668L989.262,800.418L989.262,810.367L985.413,810.367L985.413,800.523L979.621,784.668L983.637,784.668L987.364,796.059Z" style="fill:#3f3f3f;fill-rule:nonzero;"/>
        <path d="M1532.239,817.618C1531.788,817.618 1531.348,817.589 1530.92,817.53C1530.493,817.472 1530.091,817.372 1529.716,817.231L1529.716,813.865C1530.009,813.971 1530.323,814.059 1530.657,814.129C1530.991,814.199 1531.342,814.234 1531.711,814.234C1532.28,814.234 1532.734,814.091 1533.074,813.804C1533.414,813.517 1533.661,813.046 1533.816,812.393C1533.972,811.74 1534.049,810.862 1534.049,809.761L1534.049,784.668L1537.899,784.668L1537.899,809.84C1537.899,811.768 1537.682,813.3 1537.249,814.437C1536.815,815.573 1536.176,816.388 1535.333,816.88C1534.489,817.372 1533.458,817.618 1532.239,817.618Z" style="fill:#3f3f3f;fill-rule:nonzero;"/>
        <path d="M1557.455,784.668L1557.455,802.123C1557.455,804.086 1557.17,805.702 1556.602,806.97C1556.034,808.239 1555.2,809.181 1554.102,809.796C1553.003,810.411 1551.645,810.719 1550.028,810.719C1547.625,810.719 1545.787,810.02 1544.513,808.623C1543.238,807.225 1542.601,805.079 1542.601,802.185L1542.601,784.668L1546.459,784.668L1546.459,802.105C1546.459,803.951 1546.769,805.274 1547.387,806.074C1548.005,806.874 1548.891,807.273 1550.045,807.273C1550.831,807.273 1551.485,807.102 1552.01,806.759C1552.534,806.417 1552.93,805.864 1553.196,805.103C1553.463,804.341 1553.596,803.33 1553.596,802.07L1553.596,784.668L1557.455,784.668Z" style="fill:#3f3f3f;fill-rule:nonzero;"/>
        <path d="M1578.601,810.367L1574.004,810.367L1565.76,790.768L1565.62,790.768C1565.678,791.494 1565.725,792.186 1565.76,792.842C1565.795,793.498 1565.82,794.113 1565.835,794.688C1565.85,795.262 1565.857,795.801 1565.857,796.305L1565.857,810.367L1562.227,810.367L1562.227,784.668L1566.797,784.668L1575.033,803.907L1575.156,803.907C1575.115,803.157 1575.078,802.456 1575.046,801.802C1575.014,801.149 1574.989,800.54 1574.971,799.974C1574.954,799.409 1574.945,798.892 1574.945,798.423L1574.945,784.668L1578.601,784.668L1578.601,810.367Z" style="fill:#3f3f3f;fill-rule:nonzero;"/>
        <path d="M1594.36,810.367L1583.532,810.367L1583.532,784.668L1594.36,784.668L1594.36,788.017L1587.399,788.017L1587.399,795.303L1593.912,795.303L1593.912,798.669L1587.399,798.669L1587.399,806.948L1594.36,806.948L1594.36,810.367Z" style="fill:#3f3f3f;fill-rule:nonzero;"/>
        <path d="M338.606,1412.618C338.155,1412.618 337.716,1412.589 337.288,1412.53C336.86,1412.472 336.459,1412.372 336.084,1412.231L336.084,1408.865C336.377,1408.971 336.69,1409.059 337.024,1409.129C337.358,1409.199 337.71,1409.234 338.079,1409.234C338.647,1409.234 339.102,1409.091 339.441,1408.804C339.781,1408.517 340.029,1408.046 340.184,1407.393C340.339,1406.74 340.417,1405.862 340.417,1404.761L340.417,1379.668L344.267,1379.668L344.267,1404.84C344.267,1406.768 344.05,1408.3 343.616,1409.437C343.183,1410.573 342.544,1411.388 341.7,1411.88C340.856,1412.372 339.825,1412.618 338.606,1412.618Z" style="fill:#3f3f3f;fill-rule:nonzero;"/>
        <path d="M363.822,1379.668L363.822,1397.123C363.822,1399.086 363.538,1400.702 362.97,1401.97C362.401,1403.239 361.568,1404.181 360.469,1404.796C359.371,1405.411 358.013,1405.719 356.396,1405.719C353.993,1405.719 352.155,1405.02 350.88,1403.623C349.606,1402.225 348.969,1400.079 348.969,1397.185L348.969,1379.668L352.827,1379.668L352.827,1397.105C352.827,1398.951 353.136,1400.274 353.754,1401.074C354.373,1401.874 355.259,1402.273 356.413,1402.273C357.198,1402.273 357.853,1402.102 358.377,1401.759C358.902,1401.417 359.297,1400.864 359.564,1400.103C359.831,1399.341 359.964,1398.33 359.964,1397.07L359.964,1379.668L363.822,1379.668Z" style="fill:#3f3f3f;fill-rule:nonzero;"/>
        <path d="M368.595,1405.367L368.595,1379.668L372.462,1379.668L372.462,1401.948L379.467,1401.948L379.467,1405.367L368.595,1405.367Z" style="fill:#3f3f3f;fill-rule:nonzero;"/>
        <path d="M387.781,1391.059L391.473,1379.668L395.48,1379.668L389.68,1395.418L389.68,1405.367L385.83,1405.367L385.83,1395.523L380.038,1379.668L384.055,1379.668L387.781,1391.059Z" style="fill:#3f3f3f;fill-rule:nonzero;"/>
        <path d="M926.17,1405.367L924.535,1398.143L918.629,1398.143L916.994,1405.367L912.854,1405.367L919.068,1379.668L923.955,1379.668L930.283,1405.367L926.17,1405.367ZM923.894,1394.706L922.215,1386.945C922.127,1386.447 922.042,1385.959 921.96,1385.482C921.878,1385.004 921.802,1384.543 921.731,1384.098C921.661,1383.652 921.597,1383.228 921.538,1382.823C921.503,1383.216 921.453,1383.635 921.389,1384.08C921.324,1384.525 921.248,1384.984 921.16,1385.456C921.072,1385.927 920.976,1386.406 920.87,1386.893L919.227,1394.706L923.894,1394.706Z" style="fill:#3f3f3f;fill-rule:nonzero;"/>
        <path d="M947.431,1379.668L947.431,1397.123C947.431,1399.086 947.146,1400.702 946.578,1401.97C946.01,1403.239 945.176,1404.181 944.078,1404.796C942.979,1405.411 941.621,1405.719 940.004,1405.719C937.602,1405.719 935.763,1405.02 934.489,1403.623C933.214,1402.225 932.577,1400.079 932.577,1397.185L932.577,1379.668L936.436,1379.668L936.436,1397.105C936.436,1398.951 936.745,1400.274 937.363,1401.074C937.981,1401.874 938.867,1402.273 940.021,1402.273C940.807,1402.273 941.461,1402.102 941.986,1401.759C942.51,1401.417 942.906,1400.864 943.172,1400.103C943.439,1399.341 943.572,1398.33 943.572,1397.07L943.572,1379.668L947.431,1379.668Z" style="fill:#3f3f3f;fill-rule:nonzero;"/>
        <path d="M960.649,1391.401L967.927,1391.401L967.927,1404.383C966.796,1404.828 965.631,1405.162 964.433,1405.385C963.235,1405.607 962.021,1405.719 960.79,1405.719C958.681,1405.719 956.932,1405.159 955.543,1404.04C954.154,1402.921 953.117,1401.367 952.432,1399.377C951.746,1397.388 951.403,1395.081 951.403,1392.456C951.403,1389.831 951.784,1387.533 952.546,1385.561C953.308,1383.589 954.44,1382.053 955.943,1380.951C957.446,1379.85 959.305,1379.299 961.52,1379.299C962.668,1379.299 963.755,1379.442 964.78,1379.729C965.806,1380.017 966.746,1380.418 967.602,1380.934L966.38,1384.159C965.612,1383.667 964.836,1383.298 964.051,1383.052C963.266,1382.806 962.46,1382.683 961.634,1382.683C960.274,1382.683 959.135,1383.065 958.215,1383.83C957.295,1384.594 956.601,1385.71 956.132,1387.178C955.663,1388.646 955.429,1390.44 955.429,1392.562C955.429,1394.466 955.625,1396.153 956.018,1397.624C956.41,1399.095 957.021,1400.245 957.85,1401.074C958.679,1401.903 959.75,1402.317 961.062,1402.317C961.631,1402.317 962.176,1402.275 962.697,1402.19C963.219,1402.105 963.705,1401.983 964.156,1401.825L964.156,1394.741L960.649,1394.741L960.649,1391.401Z" style="fill:#3f3f3f;fill-rule:nonzero;"/>
        <path d="M986.964,1379.668L986.964,1397.123C986.964,1399.086 986.68,1400.702 986.111,1401.97C985.543,1403.239 984.709,1404.181 983.611,1404.796C982.512,1405.411 981.154,1405.719 979.537,1405.719C977.135,1405.719 975.296,1405.02 974.022,1403.623C972.748,1402.225 972.11,1400.079 972.11,1397.185L972.11,1379.668L975.969,1379.668L975.969,1397.105C975.969,1398.951 976.278,1400.274 976.896,1401.074C977.514,1401.874 978.4,1402.273 979.555,1402.273C980.34,1402.273 980.995,1402.102 981.519,1401.759C982.043,1401.417 982.439,1400.864 982.706,1400.103C982.972,1399.341 983.105,1398.33 983.105,1397.07L983.105,1379.668L986.964,1379.668Z" style="fill:#3f3f3f;fill-rule:nonzero;"/>
        <path d="M1003.303,1398.099C1003.303,1399.599 1003.008,1400.921 1002.419,1402.067C1001.831,1403.212 1001.003,1404.107 999.937,1404.752C998.87,1405.396 997.613,1405.719 996.166,1405.719C995.475,1405.719 994.807,1405.678 994.162,1405.596C993.518,1405.514 992.895,1405.38 992.294,1405.196C991.694,1405.011 991.106,1404.772 990.532,1404.479L990.532,1400.507C991.399,1401.034 992.318,1401.436 993.288,1401.711C994.257,1401.986 995.155,1402.124 995.981,1402.124C996.726,1402.124 997.348,1401.961 997.849,1401.636C998.35,1401.311 998.729,1400.873 998.987,1400.322C999.245,1399.771 999.374,1399.159 999.374,1398.485C999.374,1397.771 999.266,1397.158 999.049,1396.648C998.832,1396.139 998.453,1395.657 997.911,1395.203C997.369,1394.749 996.608,1394.252 995.63,1393.713C994.88,1393.285 994.202,1392.846 993.595,1392.395C992.989,1391.943 992.47,1391.439 992.04,1390.883C991.609,1390.326 991.279,1389.676 991.051,1388.932C990.822,1388.188 990.708,1387.306 990.708,1386.286C990.69,1384.886 990.966,1383.66 991.534,1382.608C992.103,1381.556 992.908,1380.739 993.951,1380.156C994.994,1379.573 996.219,1379.287 997.625,1379.299C998.633,1379.299 999.608,1379.429 1000.552,1379.69C1001.495,1379.951 1002.359,1380.295 1003.145,1380.723L1002.011,1384.186C1001.237,1383.74 1000.492,1383.409 999.774,1383.192C999.056,1382.976 998.378,1382.867 997.739,1382.867C997.065,1382.867 996.494,1383.006 996.025,1383.285C995.557,1383.563 995.199,1383.944 994.953,1384.427C994.707,1384.911 994.584,1385.469 994.584,1386.102C994.584,1386.857 994.697,1387.487 994.922,1387.991C995.148,1388.495 995.539,1388.962 996.096,1389.393C996.652,1389.824 997.42,1390.312 998.398,1390.856C999.488,1391.46 1000.396,1392.104 1001.123,1392.79C1001.85,1393.476 1002.395,1394.248 1002.758,1395.106C1003.121,1395.964 1003.303,1396.962 1003.303,1398.099Z" style="fill:#3f3f3f;fill-rule:nonzero;"/>
        <path d="M1013.683,1405.367L1009.851,1405.367L1009.851,1383.069L1004.955,1383.069L1004.955,1379.668L1018.569,1379.668L1018.569,1383.069L1013.683,1383.069L1013.683,1405.367Z" style="fill:#3f3f3f;fill-rule:nonzero;"/>
        <path d="M1502.699,1398.099C1502.699,1399.599 1502.404,1400.921 1501.815,1402.067C1501.227,1403.212 1500.399,1404.107 1499.333,1404.752C1498.266,1405.396 1497.009,1405.719 1495.562,1405.719C1494.871,1405.719 1494.203,1405.678 1493.558,1405.596C1492.914,1405.514 1492.291,1405.38 1491.69,1405.196C1491.09,1405.011 1490.502,1404.772 1489.928,1404.479L1489.928,1400.507C1490.795,1401.034 1491.714,1401.436 1492.684,1401.711C1493.653,1401.986 1494.551,1402.124 1495.377,1402.124C1496.122,1402.124 1496.744,1401.961 1497.245,1401.636C1497.746,1401.311 1498.125,1400.873 1498.383,1400.322C1498.641,1399.771 1498.77,1399.159 1498.77,1398.485C1498.77,1397.771 1498.662,1397.158 1498.445,1396.648C1498.228,1396.139 1497.849,1395.657 1497.307,1395.203C1496.765,1394.749 1496.004,1394.252 1495.026,1393.713C1494.276,1393.285 1493.598,1392.846 1492.991,1392.395C1492.385,1391.943 1491.866,1391.439 1491.436,1390.883C1491.005,1390.326 1490.675,1389.676 1490.447,1388.932C1490.218,1388.188 1490.104,1387.306 1490.104,1386.286C1490.086,1384.886 1490.362,1383.66 1490.93,1382.608C1491.499,1381.556 1492.304,1380.739 1493.347,1380.156C1494.39,1379.573 1495.615,1379.287 1497.021,1379.299C1498.029,1379.299 1499.004,1379.429 1499.948,1379.69C1500.891,1379.951 1501.755,1380.295 1502.541,1380.723L1501.407,1384.186C1500.633,1383.74 1499.888,1383.409 1499.17,1383.192C1498.452,1382.976 1497.774,1382.867 1497.135,1382.867C1496.461,1382.867 1495.89,1383.006 1495.421,1383.285C1494.953,1383.563 1494.595,1383.944 1494.349,1384.427C1494.103,1384.911 1493.98,1385.469 1493.98,1386.102C1493.98,1386.857 1494.093,1387.487 1494.318,1387.991C1494.544,1388.495 1494.935,1388.962 1495.492,1389.393C1496.048,1389.824 1496.816,1390.312 1497.794,1390.856C1498.884,1391.46 1499.792,1392.104 1500.519,1392.79C1501.246,1393.476 1501.791,1394.248 1502.154,1395.106C1502.517,1395.964 1502.699,1396.962 1502.699,1398.099Z" style="fill:#3f3f3f;fill-rule:nonzero;"/>
        <path d="M1517.236,1405.367L1506.408,1405.367L1506.408,1379.668L1517.236,1379.668L1517.236,1383.017L1510.275,1383.017L1510.275,1390.303L1516.788,1390.303L1516.788,1393.669L1510.275,1393.669L1510.275,1401.948L1517.236,1401.948L1517.236,1405.367Z" style="fill:#3f3f3f;fill-rule:nonzero;"/>
        <path d="M1526.842,1379.668C1529.409,1379.668 1531.31,1380.311 1532.546,1381.597C1533.783,1382.883 1534.401,1384.818 1534.401,1387.402C1534.401,1388.715 1534.243,1389.887 1533.926,1390.918C1533.61,1391.949 1533.134,1392.825 1532.498,1393.546C1531.862,1394.267 1531.063,1394.816 1530.099,1395.194C1529.135,1395.572 1528,1395.761 1526.693,1395.761L1525.146,1395.761L1525.146,1405.367L1521.279,1405.367L1521.279,1379.668L1526.842,1379.668ZM1526.605,1382.999L1525.146,1382.999L1525.146,1392.412L1526.324,1392.412C1527.285,1392.412 1528.074,1392.245 1528.692,1391.911C1529.311,1391.577 1529.771,1391.044 1530.072,1390.312C1530.374,1389.579 1530.525,1388.621 1530.525,1387.438C1530.525,1385.873 1530.204,1384.742 1529.563,1384.045C1528.921,1383.348 1527.935,1382.999 1526.605,1382.999Z" style="fill:#3f3f3f;fill-rule:nonzero;"/>
        <path d="M1544.649,1405.367L1540.817,1405.367L1540.817,1383.069L1535.921,1383.069L1535.921,1379.668L1549.536,1379.668L1549.536,1383.069L1544.649,1383.069L1544.649,1405.367Z" style="fill:#3f3f3f;fill-rule:nonzero;"/>
        <path d="M1563.299,1405.367L1552.471,1405.367L1552.471,1379.668L1563.299,1379.668L1563.299,1383.017L1556.338,1383.017L1556.338,1390.303L1562.851,1390.303L1562.851,1393.669L1556.338,1393.669L1556.338,1401.948L1563.299,1401.948L1563.299,1405.367Z" style="fill:#3f3f3f;fill-rule:nonzero;"/>
        <path d="M1576.553,1405.367L1570.893,1384.968L1570.752,1384.968C1570.805,1385.753 1570.848,1386.475 1570.88,1387.134C1570.912,1387.793 1570.936,1388.384 1570.95,1388.905C1570.965,1389.427 1570.972,1389.878 1570.972,1390.259L1570.972,1405.367L1567.342,1405.367L1567.342,1379.668L1572.721,1379.668L1578.162,1399.153L1578.276,1399.153L1583.725,1379.668L1589.113,1379.668L1589.113,1405.367L1585.386,1405.367L1585.386,1390.276C1585.386,1389.854 1585.394,1389.381 1585.408,1388.857C1585.423,1388.333 1585.445,1387.748 1585.474,1387.104C1585.503,1386.459 1585.536,1385.753 1585.571,1384.985L1585.439,1384.985L1579.761,1405.367L1576.553,1405.367Z" style="fill:#3f3f3f;fill-rule:nonzero;"/>
        <path d="M1594.026,1379.668L1600.213,1379.668C1602.657,1379.668 1604.495,1380.182 1605.729,1381.21C1606.962,1382.239 1607.579,1383.805 1607.579,1385.908C1607.579,1386.963 1607.439,1387.895 1607.161,1388.703C1606.883,1389.512 1606.479,1390.174 1605.948,1390.689C1605.418,1391.205 1604.769,1391.557 1604.001,1391.744L1604.001,1391.902C1604.939,1392.137 1605.708,1392.518 1606.309,1393.045C1606.909,1393.572 1607.353,1394.245 1607.64,1395.062C1607.927,1395.879 1608.071,1396.848 1608.071,1397.967C1608.071,1399.467 1607.794,1400.771 1607.24,1401.878C1606.687,1402.985 1605.884,1403.844 1604.832,1404.453C1603.78,1405.062 1602.51,1405.367 1601.022,1405.367L1594.026,1405.367L1594.026,1379.668ZM1597.893,1390.408L1600.196,1390.408C1601.391,1390.408 1602.269,1390.07 1602.828,1389.393C1603.388,1388.716 1603.667,1387.71 1603.667,1386.374C1603.667,1385.237 1603.375,1384.37 1602.789,1383.772C1602.203,1383.175 1601.318,1382.876 1600.134,1382.876L1597.893,1382.876L1597.893,1390.408ZM1597.893,1393.563L1597.893,1402.071L1600.67,1402.071C1601.807,1402.071 1602.664,1401.709 1603.241,1400.986C1603.818,1400.262 1604.107,1399.168 1604.107,1397.703C1604.107,1396.795 1603.96,1396.035 1603.667,1395.422C1603.375,1394.81 1602.954,1394.347 1602.406,1394.034C1601.858,1393.72 1601.192,1393.563 1600.407,1393.563L1597.893,1393.563Z" style="fill:#3f3f3f;fill-rule:nonzero;"/>
        <path d="M1622.836,1405.367L1612.008,1405.367L1612.008,1379.668L1622.836,1379.668L1622.836,1383.017L1615.875,1383.017L1615.875,1390.303L1622.388,1390.303L1622.388,1393.669L1615.875,1393.669L1615.875,1401.948L1622.836,1401.948L1622.836,1405.367Z" style="fill:#3f3f3f;fill-rule:nonzero;"/>
        <path d="M1632.065,1379.668C1633.881,1379.668 1635.384,1379.936 1636.574,1380.472C1637.763,1381.008 1638.649,1381.817 1639.232,1382.898C1639.815,1383.979 1640.107,1385.34 1640.107,1386.98C1640.107,1388.082 1639.972,1389.074 1639.703,1389.956C1639.433,1390.837 1639.016,1391.608 1638.45,1392.267C1637.885,1392.926 1637.157,1393.484 1636.266,1393.941L1641.522,1405.367L1637.25,1405.367L1632.83,1394.908L1630.747,1394.908L1630.747,1405.367L1626.879,1405.367L1626.879,1379.668L1632.065,1379.668ZM1632.056,1383.017L1630.747,1383.017L1630.747,1391.779L1632.302,1391.779C1633.55,1391.779 1634.505,1391.397 1635.167,1390.632C1635.83,1389.868 1636.161,1388.715 1636.161,1387.174C1636.161,1385.727 1635.828,1384.672 1635.163,1384.01C1634.498,1383.348 1633.462,1383.017 1632.056,1383.017Z" style="fill:#3f3f3f;fill-rule:nonzero;"/>
        <path d="M322.14,1997.474C322.14,1999.413 321.973,2001.192 321.639,2002.809C321.305,2004.426 320.794,2005.825 320.105,2007.006C319.417,2008.186 318.532,2009.099 317.451,2009.743C316.37,2010.388 315.083,2010.71 313.588,2010.71C312.077,2010.71 310.776,2010.382 309.686,2009.726C308.596,2009.07 307.707,2008.147 307.019,2006.957C306.33,2005.768 305.82,2004.364 305.489,2002.747C305.158,2001.13 304.993,1999.361 304.993,1997.439C304.993,1994.532 305.316,1992.104 305.964,1990.153C306.611,1988.201 307.574,1986.734 308.851,1985.749C310.128,1984.765 311.708,1984.273 313.588,1984.273C315.586,1984.273 317.214,1984.831 318.471,1985.947C319.728,1987.063 320.653,1988.613 321.248,1990.596C321.843,1992.58 322.14,1994.872 322.14,1997.474ZM309,1997.474C309,1999.624 309.175,2001.426 309.523,2002.879C309.872,2004.332 310.386,2005.426 311.066,2006.162C311.746,2006.897 312.581,2007.265 313.571,2007.265C314.579,2007.265 315.418,2006.906 316.089,2006.188C316.76,2005.47 317.265,2004.386 317.605,2002.936C317.945,2001.486 318.115,1999.665 318.115,1997.474C318.115,1994.204 317.737,1991.757 316.981,1990.131C316.225,1988.505 315.094,1987.692 313.588,1987.692C312.575,1987.692 311.728,1988.059 311.048,1988.795C310.369,1989.53 309.857,1990.623 309.515,1992.073C309.172,1993.523 309,1995.323 309,1997.474Z" style="fill:#3f3f3f;fill-rule:nonzero;"/>
        <path d="M334.603,1987.674C333.718,1987.674 332.952,1987.929 332.305,1988.439C331.657,1988.948 331.125,1989.657 330.709,1990.566C330.293,1991.474 329.986,1992.524 329.787,1993.716C329.587,1994.909 329.488,1996.185 329.488,1997.544C329.488,1999.601 329.7,2001.357 330.125,2002.813C330.55,2004.269 331.161,2005.382 331.958,2006.153C332.754,2006.924 333.707,2007.309 334.814,2007.309C335.576,2007.309 336.296,2007.195 336.976,2006.966C337.656,2006.737 338.306,2006.462 338.927,2006.14L338.927,2009.603C338.277,2009.972 337.566,2010.249 336.796,2010.433C336.025,2010.618 335.192,2010.71 334.295,2010.71C332.456,2010.71 330.878,2010.19 329.563,2009.15C328.247,2008.11 327.238,2006.606 326.535,2004.637C325.832,2002.668 325.48,2000.292 325.48,1997.509C325.48,1995.64 325.667,1993.904 326.042,1992.301C326.417,1990.699 326.979,1989.296 327.726,1988.091C328.473,1986.887 329.401,1985.95 330.512,1985.279C331.622,1984.608 332.91,1984.273 334.375,1984.273C335.312,1984.273 336.216,1984.391 337.086,1984.629C337.956,1984.866 338.792,1985.222 339.595,1985.696L338.391,1988.922C337.805,1988.535 337.202,1988.231 336.581,1988.008C335.959,1987.785 335.3,1987.674 334.603,1987.674Z" style="fill:#3f3f3f;fill-rule:nonzero;"/>
        <path d="M349.606,2010.359L345.774,2010.359L345.774,1988.061L340.878,1988.061L340.878,1984.659L354.493,1984.659L354.493,1988.061L349.606,1988.061L349.606,2010.359Z" style="fill:#3f3f3f;fill-rule:nonzero;"/>
        <path d="M373.776,1997.474C373.776,1999.413 373.609,2001.192 373.275,2002.809C372.941,2004.426 372.43,2005.825 371.741,2007.006C371.053,2008.186 370.168,2009.099 369.087,2009.743C368.006,2010.388 366.718,2010.71 365.224,2010.71C363.712,2010.71 362.412,2010.382 361.322,2009.726C360.232,2009.07 359.343,2008.147 358.654,2006.957C357.966,2005.768 357.456,2004.364 357.125,2002.747C356.794,2001.13 356.628,1999.361 356.628,1997.439C356.628,1994.532 356.952,1992.104 357.6,1990.153C358.247,1988.201 359.209,1986.734 360.487,1985.749C361.764,1984.765 363.343,1984.273 365.224,1984.273C367.222,1984.273 368.85,1984.831 370.106,1985.947C371.363,1987.063 372.289,1988.613 372.884,1990.596C373.479,1992.58 373.776,1994.872 373.776,1997.474ZM360.636,1997.474C360.636,1999.624 360.811,2001.426 361.159,2002.879C361.508,2004.332 362.022,2005.426 362.702,2006.162C363.381,2006.897 364.216,2007.265 365.207,2007.265C366.214,2007.265 367.054,2006.906 367.725,2006.188C368.396,2005.47 368.901,2004.386 369.241,2002.936C369.581,2001.486 369.75,1999.665 369.75,1997.474C369.75,1994.204 369.373,1991.757 368.617,1990.131C367.861,1988.505 366.73,1987.692 365.224,1987.692C364.21,1987.692 363.364,1988.059 362.684,1988.795C362.004,1989.53 361.493,1990.623 361.15,1992.073C360.808,1993.523 360.636,1995.323 360.636,1997.474Z" style="fill:#3f3f3f;fill-rule:nonzero;"/>
        <path d="M377.916,1984.659L384.103,1984.659C386.546,1984.659 388.385,1985.174 389.618,1986.202C390.852,1987.23 391.468,1988.796 391.468,1990.9C391.468,1991.954 391.329,1992.886 391.051,1993.695C390.772,1994.503 390.368,1995.165 389.838,1995.681C389.308,1996.196 388.659,1996.548 387.891,1996.736L387.891,1996.894C388.829,1997.128 389.598,1997.509 390.198,1998.036C390.799,1998.564 391.243,1999.236 391.53,2000.053C391.817,2000.871 391.96,2001.839 391.96,2002.958C391.96,2004.458 391.684,2005.762 391.13,2006.869C390.576,2007.977 389.773,2008.835 388.722,2009.445C387.67,2010.054 386.4,2010.359 384.912,2010.359L377.916,2010.359L377.916,1984.659ZM381.783,1995.4L384.085,1995.4C385.281,1995.4 386.158,1995.061 386.718,1994.384C387.277,1993.708 387.557,1992.701 387.557,1991.365C387.557,1990.229 387.264,1989.362 386.678,1988.764C386.092,1988.166 385.208,1987.867 384.024,1987.867L381.783,1987.867L381.783,1995.4ZM381.783,1998.555L381.783,2007.063L384.56,2007.063C385.697,2007.063 386.554,2006.701 387.131,2005.977C387.708,2005.254 387.997,2004.159 387.997,2002.695C387.997,2001.786 387.85,2001.026 387.557,2000.414C387.264,1999.801 386.844,1999.339 386.296,1999.025C385.748,1998.712 385.082,1998.555 384.296,1998.555L381.783,1998.555Z" style="fill:#3f3f3f;fill-rule:nonzero;"/>
        <path d="M406.726,2010.359L395.898,2010.359L395.898,1984.659L406.726,1984.659L406.726,1988.008L399.765,1988.008L399.765,1995.294L406.278,1995.294L406.278,1998.66L399.765,1998.66L399.765,2006.94L406.726,2006.94L406.726,2010.359Z" style="fill:#3f3f3f;fill-rule:nonzero;"/>
        <path d="M415.955,1984.659C417.771,1984.659 419.274,1984.927 420.463,1985.464C421.653,1986 422.539,1986.808 423.122,1987.889C423.705,1988.97 423.997,1990.331 423.997,1991.972C423.997,1993.073 423.862,1994.065 423.592,1994.947C423.323,1995.829 422.905,1996.599 422.34,1997.258C421.774,1997.918 421.046,1998.476 420.156,1998.933L425.412,2010.359L421.14,2010.359L416.719,1999.9L414.636,1999.9L414.636,2010.359L410.769,2010.359L410.769,1984.659L415.955,1984.659ZM415.946,1988.008L414.636,1988.008L414.636,1996.771L416.192,1996.771C417.44,1996.771 418.395,1996.388 419.057,1995.624C419.719,1994.859 420.05,1993.706 420.05,1992.165C420.05,1990.718 419.718,1989.663 419.053,1989.001C418.388,1988.339 417.352,1988.008 415.946,1988.008Z" style="fill:#3f3f3f;fill-rule:nonzero;"/>
        <path d="M907.84,2010.359L903.244,2010.359L895,1990.759L894.859,1990.759C894.917,1991.486 894.964,1992.177 895,1992.833C895.035,1993.489 895.06,1994.105 895.074,1994.679C895.089,1995.253 895.096,1995.792 895.096,1996.296L895.096,2010.359L891.466,2010.359L891.466,1984.659L896.037,1984.659L904.272,2003.899L904.395,2003.899C904.354,2003.149 904.317,2002.447 904.285,2001.794C904.253,2001.14 904.228,2000.531 904.21,1999.966C904.193,1999.4 904.184,1998.883 904.184,1998.414L904.184,1984.659L907.84,1984.659L907.84,2010.359Z" style="fill:#3f3f3f;fill-rule:nonzero;"/>
        <path d="M929.119,1997.474C929.119,1999.413 928.952,2001.192 928.618,2002.809C928.284,2004.426 927.772,2005.825 927.084,2007.006C926.396,2008.186 925.511,2009.099 924.43,2009.743C923.349,2010.388 922.061,2010.71 920.567,2010.71C919.055,2010.71 917.754,2010.382 916.665,2009.726C915.575,2009.07 914.686,2008.147 913.997,2006.957C913.309,2005.768 912.799,2004.364 912.468,2002.747C912.137,2001.13 911.971,1999.361 911.971,1997.439C911.971,1994.532 912.295,1992.104 912.942,1990.153C913.59,1988.201 914.552,1986.734 915.83,1985.749C917.107,1984.765 918.686,1984.273 920.567,1984.273C922.565,1984.273 924.192,1984.831 925.449,1985.947C926.706,1987.063 927.632,1988.613 928.227,1990.596C928.821,1992.58 929.119,1994.872 929.119,1997.474ZM915.979,1997.474C915.979,1999.624 916.153,2001.426 916.502,2002.879C916.851,2004.332 917.365,2005.426 918.044,2006.162C918.724,2006.897 919.559,2007.265 920.549,2007.265C921.557,2007.265 922.396,2006.906 923.067,2006.188C923.738,2005.47 924.244,2004.386 924.583,2002.936C924.923,2001.486 925.093,1999.665 925.093,1997.474C925.093,1994.204 924.715,1991.757 923.959,1990.131C923.204,1988.505 922.073,1987.692 920.567,1987.692C919.553,1987.692 918.707,1988.059 918.027,1988.795C917.347,1989.53 916.836,1990.623 916.493,1992.073C916.15,1993.523 915.979,1995.323 915.979,1997.474Z" style="fill:#3f3f3f;fill-rule:nonzero;"/>
        <path d="M947.804,1984.659L941.494,2010.359L937.029,2010.359L930.78,1984.659L934.814,1984.659L938.356,2000.787C938.473,2001.303 938.589,2001.877 938.703,2002.51C938.817,2003.143 938.923,2003.773 939.02,2004.4C939.116,2005.027 939.197,2005.595 939.261,2006.105C939.332,2005.595 939.417,2005.028 939.516,2004.404C939.616,2003.78 939.727,2003.152 939.85,2002.519C939.973,2001.886 940.093,2001.3 940.21,2000.761L943.788,1984.659L947.804,1984.659Z" style="fill:#3f3f3f;fill-rule:nonzero;"/>
        <path d="M961.111,2010.359L950.283,2010.359L950.283,1984.659L961.111,1984.659L961.111,1988.008L954.15,1988.008L954.15,1995.294L960.663,1995.294L960.663,1998.66L954.15,1998.66L954.15,2006.94L961.111,2006.94L961.111,2010.359Z" style="fill:#3f3f3f;fill-rule:nonzero;"/>
        <path d="M974.365,2010.359L968.705,1989.959L968.564,1989.959C968.617,1990.744 968.659,1991.466 968.691,1992.126C968.724,1992.785 968.747,1993.375 968.762,1993.897C968.776,1994.418 968.784,1994.869 968.784,1995.25L968.784,2010.359L965.154,2010.359L965.154,1984.659L970.533,1984.659L975.973,2004.145L976.087,2004.145L981.537,1984.659L986.924,1984.659L986.924,2010.359L983.198,2010.359L983.198,1995.268C983.198,1994.846 983.205,1994.373 983.22,1993.848C983.234,1993.324 983.256,1992.739 983.286,1992.095C983.315,1991.45 983.347,1990.744 983.382,1989.977L983.25,1989.977L977.573,2010.359L974.365,2010.359Z" style="fill:#3f3f3f;fill-rule:nonzero;"/>
        <path d="M991.837,1984.659L998.025,1984.659C1000.468,1984.659 1002.307,1985.174 1003.54,1986.202C1004.773,1987.23 1005.39,1988.796 1005.39,1990.9C1005.39,1991.954 1005.251,1992.886 1004.973,1993.695C1004.694,1994.503 1004.29,1995.165 1003.76,1995.681C1003.229,1996.196 1002.581,1996.548 1001.813,1996.736L1001.813,1996.894C1002.75,1997.128 1003.52,1997.509 1004.12,1998.036C1004.721,1998.564 1005.165,1999.236 1005.452,2000.053C1005.739,2000.871 1005.882,2001.839 1005.882,2002.958C1005.882,2004.458 1005.605,2005.762 1005.052,2006.869C1004.498,2007.977 1003.695,2008.835 1002.644,2009.445C1001.592,2010.054 1000.322,2010.359 998.833,2010.359L991.837,2010.359L991.837,1984.659ZM995.705,1995.4L998.007,1995.4C999.203,1995.4 1000.08,1995.061 1000.64,1994.384C1001.199,1993.708 1001.479,1992.701 1001.479,1991.365C1001.479,1990.229 1001.186,1989.362 1000.6,1988.764C1000.014,1988.166 999.129,1987.867 997.946,1987.867L995.705,1987.867L995.705,1995.4ZM995.705,1998.555L995.705,2007.063L998.482,2007.063C999.619,2007.063 1000.476,2006.701 1001.053,2005.977C1001.63,2005.254 1001.918,2004.159 1001.918,2002.695C1001.918,2001.786 1001.772,2001.026 1001.479,2000.414C1001.186,1999.801 1000.766,1999.339 1000.218,1999.025C999.67,1998.712 999.003,1998.555 998.218,1998.555L995.705,1998.555Z" style="fill:#3f3f3f;fill-rule:nonzero;"/>
        <path d="M1020.648,2010.359L1009.82,2010.359L1009.82,1984.659L1020.648,1984.659L1020.648,1988.008L1013.687,1988.008L1013.687,1995.294L1020.2,1995.294L1020.2,1998.66L1013.687,1998.66L1013.687,2006.94L1020.648,2006.94L1020.648,2010.359Z" style="fill:#3f3f3f;fill-rule:nonzero;"/>
        <path d="M1029.876,1984.659C1031.693,1984.659 1033.196,1984.927 1034.385,1985.464C1035.575,1986 1036.461,1986.808 1037.044,1987.889C1037.627,1988.97 1037.918,1990.331 1037.918,1991.972C1037.918,1993.073 1037.784,1994.065 1037.514,1994.947C1037.245,1995.829 1036.827,1996.599 1036.262,1997.258C1035.696,1997.918 1034.968,1998.476 1034.078,1998.933L1039.333,2010.359L1035.062,2010.359L1030.641,1999.9L1028.558,1999.9L1028.558,2010.359L1024.691,2010.359L1024.691,1984.659L1029.876,1984.659ZM1029.868,1988.008L1028.558,1988.008L1028.558,1996.771L1030.114,1996.771C1031.362,1996.771 1032.317,1996.388 1032.979,1995.624C1033.641,1994.859 1033.972,1993.706 1033.972,1992.165C1033.972,1990.718 1033.64,1989.663 1032.975,1989.001C1032.31,1988.339 1031.274,1988.008 1029.868,1988.008Z" style="fill:#3f3f3f;fill-rule:nonzero;"/>
        <path d="M1510.196,1997.113C1510.196,1999.996 1509.831,2002.421 1509.102,2004.386C1508.372,2006.352 1507.298,2007.839 1505.88,2008.847C1504.462,2009.855 1502.71,2010.359 1500.625,2010.359L1495.079,2010.359L1495.079,1984.659L1500.915,1984.659C1502.924,1984.659 1504.619,1985.134 1505.999,1986.083C1507.379,1987.032 1508.423,1988.433 1509.132,1990.284C1509.841,1992.136 1510.196,1994.412 1510.196,1997.113ZM1506.197,1997.298C1506.197,1995.218 1505.998,1993.492 1505.599,1992.121C1505.201,1990.75 1504.604,1989.728 1503.811,1989.054C1503.017,1988.38 1502.022,1988.043 1500.827,1988.043L1498.946,1988.043L1498.946,2006.94L1500.554,2006.94C1502.505,2006.94 1503.934,2006.138 1504.839,2004.536C1505.744,2002.933 1506.197,2000.521 1506.197,1997.298Z" style="fill:#3f3f3f;fill-rule:nonzero;"/>
        <path d="M1525.172,2010.359L1514.344,2010.359L1514.344,1984.659L1525.172,1984.659L1525.172,1988.008L1518.211,1988.008L1518.211,1995.294L1524.724,1995.294L1524.724,1998.66L1518.211,1998.66L1518.211,2006.94L1525.172,2006.94L1525.172,2010.359Z" style="fill:#3f3f3f;fill-rule:nonzero;"/>
        <path d="M1537.539,1987.674C1536.654,1987.674 1535.888,1987.929 1535.24,1988.439C1534.593,1988.948 1534.061,1989.657 1533.645,1990.566C1533.229,1991.474 1532.921,1992.524 1532.722,1993.716C1532.523,1994.909 1532.423,1996.185 1532.423,1997.544C1532.423,1999.601 1532.636,2001.357 1533.061,2002.813C1533.485,2004.269 1534.096,2005.382 1534.893,2006.153C1535.69,2006.924 1536.642,2007.309 1537.75,2007.309C1538.511,2007.309 1539.232,2007.195 1539.912,2006.966C1540.591,2006.737 1541.242,2006.462 1541.863,2006.14L1541.863,2009.603C1541.212,2009.972 1540.502,2010.249 1539.731,2010.433C1538.961,2010.618 1538.127,2010.71 1537.231,2010.71C1535.391,2010.71 1533.813,2010.19 1532.498,2009.15C1531.183,2008.11 1530.173,2006.606 1529.47,2004.637C1528.767,2002.668 1528.416,2000.292 1528.416,1997.509C1528.416,1995.64 1528.603,1993.904 1528.978,1992.301C1529.353,1990.699 1529.914,1989.296 1530.661,1988.091C1531.408,1986.887 1532.337,1985.95 1533.447,1985.279C1534.558,1984.608 1535.845,1984.273 1537.31,1984.273C1538.248,1984.273 1539.151,1984.391 1540.021,1984.629C1540.892,1984.866 1541.728,1985.222 1542.531,1985.696L1541.327,1988.922C1540.741,1988.535 1540.137,1988.231 1539.516,1988.008C1538.895,1987.785 1538.236,1987.674 1537.539,1987.674Z" style="fill:#3f3f3f;fill-rule:nonzero;"/>
        <path d="M1556.699,2010.359L1545.871,2010.359L1545.871,1984.659L1556.699,1984.659L1556.699,1988.008L1549.738,1988.008L1549.738,1995.294L1556.25,1995.294L1556.25,1998.66L1549.738,1998.66L1549.738,2006.94L1556.699,2006.94L1556.699,2010.359Z" style="fill:#3f3f3f;fill-rule:nonzero;"/>
        <path d="M1569.953,2010.359L1564.292,1989.959L1564.152,1989.959C1564.205,1990.744 1564.247,1991.466 1564.279,1992.126C1564.312,1992.785 1564.335,1993.375 1564.35,1993.897C1564.364,1994.418 1564.372,1994.869 1564.372,1995.25L1564.372,2010.359L1560.742,2010.359L1560.742,1984.659L1566.121,1984.659L1571.561,2004.145L1571.675,2004.145L1577.125,1984.659L1582.512,1984.659L1582.512,2010.359L1578.786,2010.359L1578.786,1995.268C1578.786,1994.846 1578.793,1994.373 1578.808,1993.848C1578.822,1993.324 1578.844,1992.739 1578.874,1992.095C1578.903,1991.45 1578.935,1990.744 1578.97,1989.977L1578.838,1989.977L1573.161,2010.359L1569.953,2010.359Z" style="fill:#3f3f3f;fill-rule:nonzero;"/>
        <path d="M1587.425,1984.659L1593.613,1984.659C1596.056,1984.659 1597.895,1985.174 1599.128,1986.202C1600.361,1987.23 1600.978,1988.796 1600.978,1990.9C1600.978,1991.954 1600.839,1992.886 1600.561,1993.695C1600.282,1994.503 1599.878,1995.165 1599.348,1995.681C1598.817,1996.196 1598.168,1996.548 1597.401,1996.736L1597.401,1996.894C1598.338,1997.128 1599.107,1997.509 1599.708,1998.036C1600.309,1998.564 1600.752,1999.236 1601.04,2000.053C1601.327,2000.871 1601.47,2001.839 1601.47,2002.958C1601.47,2004.458 1601.193,2005.762 1600.64,2006.869C1600.086,2007.977 1599.283,2008.835 1598.231,2009.445C1597.18,2010.054 1595.91,2010.359 1594.421,2010.359L1587.425,2010.359L1587.425,1984.659ZM1591.292,1995.4L1593.595,1995.4C1594.791,1995.4 1595.668,1995.061 1596.228,1994.384C1596.787,1993.708 1597.067,1992.701 1597.067,1991.365C1597.067,1990.229 1596.774,1989.362 1596.188,1988.764C1595.602,1988.166 1594.717,1987.867 1593.534,1987.867L1591.292,1987.867L1591.292,1995.4ZM1591.292,1998.555L1591.292,2007.063L1594.07,2007.063C1595.207,2007.063 1596.063,2006.701 1596.641,2005.977C1597.218,2005.254 1597.506,2004.159 1597.506,2002.695C1597.506,2001.786 1597.36,2001.026 1597.067,2000.414C1596.774,1999.801 1596.354,1999.339 1595.806,1999.025C1595.258,1998.712 1594.591,1998.555 1593.806,1998.555L1591.292,1998.555Z" style="fill:#3f3f3f;fill-rule:nonzero;"/>
        <path d="M1616.236,2010.359L1605.408,2010.359L1605.408,1984.659L1616.236,1984.659L1616.236,1988.008L1609.275,1988.008L1609.275,1995.294L1615.788,1995.294L1615.788,1998.66L1609.275,1998.66L1609.275,2006.94L1616.236,2006.94L1616.236,2010.359Z" style="fill:#3f3f3f;fill-rule:nonzero;"/>
        <path d="M1625.464,1984.659C1627.281,1984.659 1628.784,1984.927 1629.973,1985.464C1631.163,1986 1632.049,1986.808 1632.632,1987.889C1633.215,1988.97 1633.506,1990.331 1633.506,1991.972C1633.506,1993.073 1633.372,1994.065 1633.102,1994.947C1632.833,1995.829 1632.415,1996.599 1631.85,1997.258C1631.284,1997.918 1630.556,1998.476 1629.666,1998.933L1634.921,2010.359L1630.65,2010.359L1626.229,1999.9L1624.146,1999.9L1624.146,2010.359L1620.279,2010.359L1620.279,1984.659L1625.464,1984.659ZM1625.456,1988.008L1624.146,1988.008L1624.146,1996.771L1625.702,1996.771C1626.95,1996.771 1627.905,1996.388 1628.567,1995.624C1629.229,1994.859 1629.56,1993.706 1629.56,1992.165C1629.56,1990.718 1629.228,1989.663 1628.563,1989.001C1627.897,1988.339 1626.862,1988.008 1625.456,1988.008Z" style="fill:#3f3f3f;fill-rule:nonzero;"/>
    </g>
</svg>
